<svg width="154" height="94" viewBox="0 0 154 94" fill="none" xmlns="http://www.w3.org/2000/svg">
<g filter="url(#filter0_di_11005_172997)">
<g clip-path="url(#clip0_11005_172997)">
<g clip-path="url(#clip1_11005_172997)">
<rect width="150" height="90" transform="translate(2 1)" fill="url(#paint0_linear_11005_172997)"/>
<mask id="mask0_11005_172997" style="mask-type:alpha" maskUnits="userSpaceOnUse" x="2" y="1" width="150" height="100">
<path d="M2 1H152V101H2V1Z" fill="url(#paint1_linear_11005_172997)"/>
</mask>
<g mask="url(#mask0_11005_172997)">
<path d="M12 1.5H142C147.247 1.5 151.5 5.7533 151.5 11V91C151.5 96.2467 147.247 100.5 142 100.5H12C6.7533 100.5 2.5 96.2467 2.5 91V11L2.5127 10.5107C2.76734 5.49142 6.91739 1.5 12 1.5Z" stroke="url(#paint2_linear_11005_172997)"/>
<path d="M43 13.5H112C116.142 13.5 119.5 16.8579 119.5 21V83C119.5 87.1421 116.142 90.5 112 90.5H43C38.8579 90.5 35.5 87.1421 35.5 83V21L35.5098 20.6143C35.7105 16.6514 38.9872 13.5 43 13.5Z" fill="white"/>
<path d="M43 13.5H112C116.142 13.5 119.5 16.8579 119.5 21V83C119.5 87.1421 116.142 90.5 112 90.5H43C38.8579 90.5 35.5 87.1421 35.5 83V21L35.5098 20.6143C35.7105 16.6514 38.9872 13.5 43 13.5Z" stroke="#F2E5FF"/>
<path d="M44.9717 66.875C44.9717 64.6659 46.7625 62.875 48.9717 62.875H52.9717C55.1808 62.875 56.9717 64.6659 56.9717 66.875V78.875C56.9717 81.0841 55.1808 82.875 52.9717 82.875H48.9717C46.7625 82.875 44.9717 81.0841 44.9717 78.875V66.875Z" fill="#8040BF"/>
<path d="M61.9717 56.875C61.9717 54.6659 63.7625 52.875 65.9717 52.875H69.9717C72.1808 52.875 73.9717 54.6659 73.9717 56.875V78.875C73.9717 81.0841 72.1808 82.875 69.9717 82.875H65.9717C63.7625 82.875 61.9717 81.0841 61.9717 78.875V56.875Z" fill="#8040BF"/>
<path d="M78.9717 42.875C78.9717 40.6659 80.7625 38.875 82.9717 38.875H86.9717C89.1808 38.875 90.9717 40.6659 90.9717 42.875V78.875C90.9717 81.0841 89.1808 82.875 86.9717 82.875H82.9717C80.7625 82.875 78.9717 81.0841 78.9717 78.875V42.875Z" fill="#8040BF"/>
<path d="M35 19.5H119C123.142 19.5 126.5 22.8579 126.5 27V89C126.5 93.1421 123.142 96.5 119 96.5H35C30.8579 96.5 27.5 93.1421 27.5 89V27L27.5098 26.6143C27.7041 22.7792 30.7792 19.7041 34.6143 19.5098L35 19.5Z" fill="white"/>
<path d="M35 19.5H119C123.142 19.5 126.5 22.8579 126.5 27V89C126.5 93.1421 123.142 96.5 119 96.5H35C30.8579 96.5 27.5 93.1421 27.5 89V27L27.5098 26.6143C27.7041 22.7792 30.7792 19.7041 34.6143 19.5098L35 19.5Z" stroke="#F2E5FF"/>
<path d="M38.5342 72.875C38.5342 70.6659 40.325 68.875 42.5342 68.875H46.5342C48.7433 68.875 50.5342 70.6659 50.5342 72.875V84.875C50.5342 87.0841 48.7433 88.875 46.5342 88.875H42.5342C40.325 88.875 38.5342 87.0841 38.5342 84.875V72.875Z" fill="#8040BF"/>
<path d="M55.5342 62.875C55.5342 60.6659 57.325 58.875 59.5342 58.875H63.5342C65.7433 58.875 67.5342 60.6659 67.5342 62.875V84.875C67.5342 87.0841 65.7433 88.875 63.5342 88.875H59.5342C57.325 88.875 55.5342 87.0841 55.5342 84.875V62.875Z" fill="#8040BF"/>
<path d="M72.5342 48.875C72.5342 46.6659 74.325 44.875 76.5342 44.875H80.5342C82.7433 44.875 84.5342 46.6659 84.5342 48.875V84.875C84.5342 87.0841 82.7433 88.875 80.5342 88.875H76.5342C74.325 88.875 72.5342 87.0841 72.5342 84.875V48.875Z" fill="#8040BF"/>
<path d="M25 25.5H129C133.142 25.5 136.5 28.8579 136.5 33V95C136.5 99.1421 133.142 102.5 129 102.5H25C20.8579 102.5 17.5 99.1421 17.5 95V33L17.5098 32.6143C17.7105 28.6514 20.9872 25.5 25 25.5Z" fill="white"/>
<path d="M25 25.5H129C133.142 25.5 136.5 28.8579 136.5 33V95C136.5 99.1421 133.142 102.5 129 102.5H25C20.8579 102.5 17.5 99.1421 17.5 95V33L17.5098 32.6143C17.7105 28.6514 20.9872 25.5 25 25.5Z" stroke="#F2E5FF"/>
<g clip-path="url(#clip2_11005_172997)">
<path d="M50.0303 62.0754V67.8119L55.0003 64.9454V59.2029L50.0303 62.0754Z" fill="#4040B2"/>
<path d="M44.515 59.203L49.485 62.0755V67.812L44.515 64.942V59.203ZM39 56V61.7395L43.97 64.6095V58.8695L39 56ZM44.515 71.312L49.485 74.182V68.442L44.515 65.5725V71.312Z" fill="#5C4EE5"/>
</g>
<g clip-path="url(#clip3_11005_172997)">
<path fill-rule="evenodd" clip-rule="evenodd" d="M66.5469 62.4358H67.8998V64.2675H69.5342V62.4358H70.8871V67.5811H69.5342V65.619H67.8998V67.5811H66.5469V62.4358ZM72.4391 67.5811V62.4358H75.6393V63.554H73.792V64.391H75.4264V65.5298H73.792V66.4766H75.6393V67.5811H72.4391ZM77.1227 67.5811V62.4358H78.4755V66.2227H80.3297V67.5811H77.1227ZM82.4243 62.4358L84.5257 64.343L86.6203 62.4358H87.2315V67.5811H85.8717V64.9398L84.5257 66.1678L83.1728 64.9467V67.5811H81.8131V62.4358H82.4243Z" fill="#0F1689"/>
<mask id="mask1_11005_172997" style="mask-type:luminance" maskUnits="userSpaceOnUse" x="66" y="49" width="22" height="12">
<path fill-rule="evenodd" clip-rule="evenodd" d="M66.5 49.5127H87.9224V60.4436H66.5V49.5127Z" fill="white"/>
</mask>
<g mask="url(#mask1_11005_172997)">
<path fill-rule="evenodd" clip-rule="evenodd" d="M81.7916 59.1479C82.1801 59.4199 83.0758 58.811 83.7923 57.7877C84.5087 56.7645 84.7746 55.7145 84.3861 55.4425C83.9976 55.1705 83.1018 55.7794 82.3854 56.8026C81.6689 57.8258 81.4031 58.8758 81.7916 59.1479Z" fill="#0F1689"/>
<path fill-rule="evenodd" clip-rule="evenodd" d="M72.5356 59.1479C72.1471 59.4199 71.2513 58.811 70.5349 57.7877C69.8184 56.7645 69.5526 55.7145 69.9411 55.4425C70.3296 55.1705 71.2253 55.7794 71.9418 56.8026C72.6582 57.8258 72.9241 58.8758 72.5356 59.1479Z" fill="#0F1689"/>
<path fill-rule="evenodd" clip-rule="evenodd" d="M77.1588 57.5459C76.6845 57.5459 76.3001 56.5333 76.3001 55.2842C76.3001 54.0351 76.6845 53.0225 77.1588 53.0225C77.6331 53.0225 78.0176 54.0351 78.0176 55.2842C78.0176 56.5333 77.6331 57.5459 77.1588 57.5459Z" fill="#0F1689"/>
</g>
<mask id="mask2_11005_172997" style="mask-type:luminance" maskUnits="userSpaceOnUse" x="66" y="49" width="22" height="12">
<path fill-rule="evenodd" clip-rule="evenodd" d="M66.5 49.5127H87.9224V60.4436H66.5V49.5127Z" fill="white"/>
</mask>
<g mask="url(#mask2_11005_172997)">
<path fill-rule="evenodd" clip-rule="evenodd" d="M69.7295 60.6248C71.2537 58.2439 73.9132 56.6628 76.9418 56.6628C80.0558 56.6628 82.7793 58.3341 84.2802 60.8277L83.1086 61.5329C81.843 59.4303 79.5532 58.0304 76.9418 58.0304C74.4018 58.0304 72.1663 59.3547 70.8812 61.3621L69.7295 60.6248ZM83.9994 70.2013C82.454 72.4515 79.8703 73.9299 76.9418 73.9299C74.0187 73.9299 71.439 72.4568 69.8927 70.2136L71.0186 69.4374C72.3222 71.3286 74.49 72.5624 76.9418 72.5624C79.3981 72.5624 81.5693 71.3241 82.8722 69.4271L83.9994 70.2013Z" fill="#0F1689"/>
</g>
<mask id="mask3_11005_172997" style="mask-type:luminance" maskUnits="userSpaceOnUse" x="65" y="69" width="23" height="12">
<path fill-rule="evenodd" clip-rule="evenodd" d="M87.3877 80.675L65.9653 80.675L65.9653 69.7441L87.3877 69.7441L87.3877 80.675Z" fill="white"/>
</mask>
<g mask="url(#mask3_11005_172997)">
<path fill-rule="evenodd" clip-rule="evenodd" d="M72.0961 71.0399C71.7076 70.7678 70.8119 71.3768 70.0954 72.4C69.379 73.4232 69.1131 74.4732 69.5016 74.7452C69.8901 75.0173 70.7859 74.4083 71.5023 73.3851C72.2188 72.3619 72.4846 71.3119 72.0961 71.0399Z" fill="#0F1689"/>
<path fill-rule="evenodd" clip-rule="evenodd" d="M81.3521 71.0399C81.7406 70.7678 82.6364 71.3768 83.3528 72.4C84.0693 73.4232 84.3351 74.4732 83.9466 74.7452C83.5581 75.0173 82.6624 74.4083 81.9459 73.3851C81.2295 72.3619 80.9636 71.3119 81.3521 71.0399Z" fill="#0F1689"/>
<path fill-rule="evenodd" clip-rule="evenodd" d="M76.7289 72.6419C77.2032 72.6419 77.5876 73.6545 77.5876 74.9036C77.5876 76.1527 77.2032 77.1653 76.7289 77.1653C76.2546 77.1653 75.8701 76.1527 75.8701 74.9036C75.8701 73.6545 76.2546 72.6419 76.7289 72.6419Z" fill="#0F1689"/>
</g>
<mask id="mask4_11005_172997" style="mask-type:luminance" maskUnits="userSpaceOnUse" x="65" y="69" width="23" height="12">
<path fill-rule="evenodd" clip-rule="evenodd" d="M87.3877 80.675L65.9653 80.675L65.9653 69.7441L87.3877 69.7441L87.3877 80.675Z" fill="white"/>
</mask>
<g mask="url(#mask4_11005_172997)">
<path fill-rule="evenodd" clip-rule="evenodd" d="M84.1582 69.5627C82.634 71.9436 79.9745 73.5247 76.9458 73.5247C73.8319 73.5247 71.1084 71.8534 69.6075 69.3598L70.7791 68.6546C72.0447 70.7572 74.3345 72.1571 76.9458 72.1571C79.4859 72.1571 81.7214 70.8328 83.0065 68.8254L84.1582 69.5627ZM69.8883 59.9862C71.4337 57.736 74.0174 56.2576 76.9458 56.2576C79.869 56.2576 82.4487 57.7307 83.995 59.9739L82.8691 60.7501C81.5655 58.8589 79.3977 57.6251 76.9458 57.6251C74.4896 57.6251 72.3184 58.8634 71.0155 60.7604L69.8883 59.9862Z" fill="#0F1689"/>
</g>
</g>
<path d="M113.565 63.5798C113.47 62.8951 113.093 62.3006 112.412 61.7635L112.019 61.497L111.756 61.8947C111.42 62.4072 111.252 63.1206 111.305 63.8053C111.33 64.0431 111.408 64.4777 111.65 64.8508C111.408 64.9861 110.928 65.1665 110.289 65.1542H98.0703L98.0457 65.2977C97.9309 65.9824 97.9309 68.1268 99.3044 69.7709C100.35 71.0215 101.912 71.657 103.954 71.657C108.382 71.657 111.654 69.5946 113.191 65.8389C113.794 65.8512 115.094 65.843 115.762 64.5515C115.779 64.5228 115.82 64.4449 115.934 64.1989L116 64.0636L115.627 63.8094C115.217 63.5429 114.286 63.4404 113.565 63.5798ZM107.841 59H105.983V60.7097H107.841V59ZM107.841 61.0541H105.983V62.7639H107.841V61.0541ZM105.643 61.0541H103.786V62.7639H105.643V61.0541ZM103.45 61.0541H101.592V62.7639H103.45V61.0541ZM101.252 63.1083H99.3946V64.818H101.252V63.1083ZM103.45 63.1083H101.592V64.818H103.45V63.1083ZM105.643 63.1083H103.786V64.818H105.643V63.1083ZM107.841 63.1083H105.983V64.818H107.841V63.1083ZM110.038 63.1083H108.181V64.818H110.038V63.1083Z" fill="#1D63ED"/>
</g>
</g>
</g>
</g>
<defs>
<filter id="filter0_di_11005_172997" x="0" y="0" width="154" height="94" filterUnits="userSpaceOnUse" color-interpolation-filters="sRGB">
<feFlood flood-opacity="0" result="BackgroundImageFix"/>
<feColorMatrix in="SourceAlpha" type="matrix" values="0 0 0 0 0 0 0 0 0 0 0 0 0 0 0 0 0 0 127 0" result="hardAlpha"/>
<feOffset dy="1"/>
<feGaussianBlur stdDeviation="1"/>
<feComposite in2="hardAlpha" operator="out"/>
<feColorMatrix type="matrix" values="0 0 0 0 0 0 0 0 0 0 0 0 0 0 0 0 0 0 0.08 0"/>
<feBlend mode="normal" in2="BackgroundImageFix" result="effect1_dropShadow_11005_172997"/>
<feBlend mode="normal" in="SourceGraphic" in2="effect1_dropShadow_11005_172997" result="shape"/>
<feColorMatrix in="SourceAlpha" type="matrix" values="0 0 0 0 0 0 0 0 0 0 0 0 0 0 0 0 0 0 127 0" result="hardAlpha"/>
<feMorphology radius="2" operator="erode" in="SourceAlpha" result="effect2_innerShadow_11005_172997"/>
<feOffset/>
<feComposite in2="hardAlpha" operator="arithmetic" k2="-1" k3="1"/>
<feColorMatrix type="matrix" values="0 0 0 0 1 0 0 0 0 1 0 0 0 0 1 0 0 0 0.12 0"/>
<feBlend mode="normal" in2="shape" result="effect2_innerShadow_11005_172997"/>
</filter>
<linearGradient id="paint0_linear_11005_172997" x1="75" y1="0" x2="75" y2="90" gradientUnits="userSpaceOnUse">
<stop stop-color="#F6F0FF"/>
<stop offset="1" stop-color="white"/>
</linearGradient>
<linearGradient id="paint1_linear_11005_172997" x1="76.3243" y1="14.3929" x2="76.6193" y2="101.001" gradientUnits="userSpaceOnUse">
<stop stop-color="white"/>
<stop offset="1" stop-color="white" stop-opacity="0.02"/>
</linearGradient>
<linearGradient id="paint2_linear_11005_172997" x1="16" y1="1" x2="35.5" y2="55" gradientUnits="userSpaceOnUse">
<stop stop-color="#8040BF"/>
<stop offset="1" stop-color="white" stop-opacity="0.02"/>
</linearGradient>
<clipPath id="clip0_11005_172997">
<path d="M2 11C2 5.47715 6.47715 1 12 1H142C147.523 1 152 5.47715 152 11V81C152 86.5228 147.523 91 142 91H12C6.47715 91 2 86.5228 2 81V11Z" fill="white"/>
</clipPath>
<clipPath id="clip1_11005_172997">
<rect width="150" height="90" fill="white" transform="translate(2 1)"/>
</clipPath>
<clipPath id="clip2_11005_172997">
<rect width="24" height="24" fill="white" transform="translate(35 53)"/>
</clipPath>
<clipPath id="clip3_11005_172997">
<rect width="20.7863" height="24" fill="white" transform="translate(66.5 53)"/>
</clipPath>
</defs>
</svg>
