<svg width="94" height="64" viewBox="0 0 94 64" fill="none" xmlns="http://www.w3.org/2000/svg">
<g filter="url(#filter0_di_11005_173001)">
<g clip-path="url(#clip0_11005_173001)">
<g clip-path="url(#clip1_11005_173001)">
<rect width="90" height="60" transform="translate(2 1)" fill="url(#paint0_linear_11005_173001)"/>
<mask id="mask0_11005_173001" style="mask-type:alpha" maskUnits="userSpaceOnUse" x="2" y="1" width="90" height="60">
<path d="M2 1H92V61H2V1Z" fill="url(#paint1_linear_11005_173001)"/>
</mask>
<g mask="url(#mask0_11005_173001)">
<path d="M12 1.5H82C87.2467 1.5 91.5 5.7533 91.5 11V51C91.5 56.2467 87.2467 60.5 82 60.5H12C6.7533 60.5 2.5 56.2467 2.5 51V11C2.5 5.7533 6.7533 1.5 12 1.5Z" stroke="url(#paint2_linear_11005_173001)"/>
<path d="M21 16C21 13.7909 22.7909 12 25 12H69C71.2091 12 73 13.7909 73 16V55C73 57.2091 71.2091 59 69 59H25C22.7909 59 21 57.2091 21 55V16Z" fill="#141217"/>
<path d="M25 12.5H69C70.933 12.5 72.5 14.067 72.5 16V55C72.5 56.933 70.933 58.5 69 58.5H25C23.067 58.5 21.5 56.933 21.5 55V16C21.5 14.067 23.067 12.5 25 12.5Z" stroke="#8040BF" stroke-opacity="0.4"/>
<rect x="31.4004" y="18" width="2" height="6.06667" rx="0.25" transform="rotate(90 31.4004 18)" fill="#8040BF"/>
<rect x="31.4004" y="23" width="3" height="6.06667" rx="0.25" transform="rotate(90 31.4004 23)" fill="#3A424A"/>
<rect x="31.4004" y="29" width="2" height="6.06667" rx="0.25" transform="rotate(90 31.4004 29)" fill="#3A424A"/>
<rect x="31.4004" y="34" width="3" height="6.06667" rx="0.25" transform="rotate(90 31.4004 34)" fill="#3A424A"/>
<rect x="31.4004" y="40" width="2" height="6.06667" rx="0.25" transform="rotate(90 31.4004 40)" fill="#3A424A"/>
<rect x="57.4004" y="18" width="2" height="22.5333" rx="0.25" transform="rotate(90 57.4004 18)" fill="#8040BF"/>
<rect x="57.4004" y="23" width="3" height="22.5333" rx="0.25" transform="rotate(90 57.4004 23)" fill="#3A424A"/>
<rect x="57.4004" y="29" width="2" height="22.5333" rx="0.25" transform="rotate(90 57.4004 29)" fill="#3A424A"/>
<rect x="57.4004" y="34" width="3" height="22.5333" rx="0.25" transform="rotate(90 57.4004 34)" fill="#3A424A"/>
<rect x="57.4004" y="40" width="2" height="22.5333" rx="0.25" transform="rotate(90 57.4004 40)" fill="#3A424A"/>
<rect x="70.4004" y="18" width="2" height="9.53333" rx="0.25" transform="rotate(90 70.4004 18)" fill="#8040BF"/>
<rect x="70.4004" y="23" width="3" height="9.53333" rx="0.25" transform="rotate(90 70.4004 23)" fill="#3A424A"/>
<rect x="70.4004" y="29" width="2" height="9.53333" rx="0.25" transform="rotate(90 70.4004 29)" fill="#3A424A"/>
<rect x="70.4004" y="34" width="3" height="9.53333" rx="0.25" transform="rotate(90 70.4004 34)" fill="#3A424A"/>
<rect x="70.4004" y="40" width="2" height="9.53333" rx="0.25" transform="rotate(90 70.4004 40)" fill="#3A424A"/>
<path d="M17 22C17 19.7909 18.7909 18 21 18H73C75.2091 18 77 19.7909 77 22V61C77 63.2091 75.2091 65 73 65H21C18.7909 65 17 63.2091 17 61V22Z" fill="#141217"/>
<path d="M21 18.5H73C74.933 18.5 76.5 20.067 76.5 22V61C76.5 62.933 74.933 64.5 73 64.5H21C19.067 64.5 17.5 62.933 17.5 61V22C17.5 20.067 19.067 18.5 21 18.5Z" stroke="#8040BF" stroke-opacity="0.4"/>
<rect x="28.8037" y="24" width="3" height="6.88525" rx="0.5" transform="rotate(90 28.8037 24)" fill="#8040BF"/>
<rect x="28.8037" y="29" width="3" height="6.88525" rx="0.5" transform="rotate(90 28.8037 29)" fill="#3A424A"/>
<rect x="28.8037" y="35" width="3" height="6.88525" rx="0.5" transform="rotate(90 28.8037 35)" fill="#3A424A"/>
<rect x="28.8037" y="40" width="3" height="6.88525" rx="0.5" transform="rotate(90 28.8037 40)" fill="#3A424A"/>
<rect x="28.8037" y="46" width="3" height="6.88525" rx="0.5" transform="rotate(90 28.8037 46)" fill="#3A424A"/>
<rect x="59.2949" y="24" width="3" height="26.5574" rx="0.5" transform="rotate(90 59.2949 24)" fill="#8040BF"/>
<rect x="59.2949" y="29" width="3" height="26.5574" rx="0.5" transform="rotate(90 59.2949 29)" fill="#3A424A"/>
<rect x="59.2949" y="35" width="3" height="26.5574" rx="0.5" transform="rotate(90 59.2949 35)" fill="#3A424A"/>
<rect x="59.2949" y="40" width="3" height="26.5574" rx="0.5" transform="rotate(90 59.2949 40)" fill="#3A424A"/>
<rect x="59.2949" y="46" width="3" height="26.5574" rx="0.5" transform="rotate(90 59.2949 46)" fill="#3A424A"/>
<rect x="74.0488" y="24" width="3" height="10.8197" rx="0.5" transform="rotate(90 74.0488 24)" fill="#8040BF"/>
<rect x="74.0488" y="29" width="3" height="10.8197" rx="0.5" transform="rotate(90 74.0488 29)" fill="#3A424A"/>
<rect x="74.0488" y="35" width="3" height="10.8197" rx="0.5" transform="rotate(90 74.0488 35)" fill="#3A424A"/>
<rect x="74.0488" y="40" width="3" height="10.8197" rx="0.5" transform="rotate(90 74.0488 40)" fill="#3A424A"/>
<rect x="74.0488" y="46" width="3" height="10.8197" rx="0.5" transform="rotate(90 74.0488 46)" fill="#3A424A"/>
<path d="M12 28C12 25.7909 13.7909 24 16 24H78C80.2091 24 82 25.7909 82 28V67C82 69.2091 80.2091 71 78 71H16C13.7909 71 12 69.2091 12 67V28Z" fill="#141217"/>
<path d="M16 24.5H78C79.933 24.5 81.5 26.067 81.5 28V67C81.5 68.933 79.933 70.5 78 70.5H16C14.067 70.5 12.5 68.933 12.5 67V28C12.5 26.067 14.067 24.5 16 24.5Z" stroke="#8040BF" stroke-opacity="0.4"/>
<g clip-path="url(#clip2_11005_173001)">
<path d="M29.0195 40.0503V43.8746L32.3329 41.9636V38.1353L29.0195 40.0503Z" fill="#4040B2"/>
<path d="M25.3437 38.1353L28.657 40.0503V43.8747L25.3437 41.9613V38.1353ZM21.667 36V39.8263L24.9803 41.7397V37.913L21.667 36ZM25.3437 46.208L28.657 48.1213V44.2947L25.3437 42.3817V46.208Z" fill="#5C4EE5"/>
</g>
<g clip-path="url(#clip3_11005_173001)">
<path fill-rule="evenodd" clip-rule="evenodd" d="M40.0312 40.2905H40.9332V41.5117H42.0228V40.2905H42.9247V43.7207H42.0228V42.4127H40.9332V43.7207H40.0312V40.2905ZM43.9594 43.7207V40.2905H46.0929V41.036H44.8613V41.594H45.9509V42.3532H44.8613V42.9844H46.0929V43.7207H43.9594ZM47.0818 43.7207V40.2905H47.9837V42.8152H49.2198V43.7207H47.0818ZM50.6162 40.2905L52.0172 41.562L53.4135 40.2905H53.821V43.7207H52.9145V41.9599L52.0172 42.7786L51.1152 41.9645V43.7207H50.2087V40.2905H50.6162Z" fill="white"/>
<mask id="mask1_11005_173001" style="mask-type:luminance" maskUnits="userSpaceOnUse" x="40" y="31" width="15" height="8">
<path fill-rule="evenodd" clip-rule="evenodd" d="M40 31.6753H54.2816V38.9626H40V31.6753Z" fill="white"/>
</mask>
<g mask="url(#mask1_11005_173001)">
<path fill-rule="evenodd" clip-rule="evenodd" d="M50.1944 38.0989C50.4534 38.2803 51.0505 37.8743 51.5282 37.1922C52.0058 36.51 52.183 35.81 51.924 35.6287C51.665 35.4473 51.0679 35.8533 50.5902 36.5354C50.1126 37.2175 49.9354 37.9175 50.1944 38.0989Z" fill="white"/>
<path fill-rule="evenodd" clip-rule="evenodd" d="M44.0234 38.0989C43.7644 38.2803 43.1672 37.8743 42.6896 37.1922C42.212 36.51 42.0347 35.81 42.2937 35.6287C42.5527 35.4473 43.1499 35.8533 43.6275 36.5354C44.1052 37.2175 44.2824 37.9175 44.0234 38.0989Z" fill="white"/>
<path fill-rule="evenodd" clip-rule="evenodd" d="M47.1062 37.0307C46.79 37.0307 46.5337 36.3557 46.5337 35.5229C46.5337 34.6902 46.79 34.0151 47.1062 34.0151C47.4224 34.0151 47.6787 34.6902 47.6787 35.5229C47.6787 36.3557 47.4224 37.0307 47.1062 37.0307Z" fill="white"/>
</g>
<mask id="mask2_11005_173001" style="mask-type:luminance" maskUnits="userSpaceOnUse" x="40" y="31" width="15" height="8">
<path fill-rule="evenodd" clip-rule="evenodd" d="M40 31.6753H54.2816V38.9626H40V31.6753Z" fill="white"/>
</mask>
<g mask="url(#mask2_11005_173001)">
<path fill-rule="evenodd" clip-rule="evenodd" d="M42.1533 39.0834C43.1694 37.4962 44.9425 36.4421 46.9616 36.4421C49.0375 36.4421 50.8532 37.5563 51.8538 39.2187L51.0727 39.6889C50.229 38.2871 48.7025 37.3538 46.9616 37.3538C45.2682 37.3538 43.7779 38.2367 42.9211 39.575L42.1533 39.0834ZM51.6666 45.4678C50.6363 46.9679 48.9139 47.9535 46.9616 47.9535C45.0128 47.9535 43.293 46.9715 42.2621 45.476L43.0127 44.9585C43.8818 46.2193 45.327 47.0418 46.9616 47.0418C48.5991 47.0418 50.0466 46.2163 50.9151 44.9517L51.6666 45.4678Z" fill="white"/>
</g>
<mask id="mask3_11005_173001" style="mask-type:luminance" maskUnits="userSpaceOnUse" x="39" y="45" width="15" height="8">
<path fill-rule="evenodd" clip-rule="evenodd" d="M53.9248 52.45L39.6432 52.4499L39.6432 45.1627L53.9248 45.1627L53.9248 52.45Z" fill="white"/>
</mask>
<g mask="url(#mask3_11005_173001)">
<path fill-rule="evenodd" clip-rule="evenodd" d="M43.7304 46.0263C43.4714 45.845 42.8743 46.251 42.3966 46.9331C41.919 47.6152 41.7418 48.3152 42.0008 48.4966C42.2598 48.6779 42.8569 48.272 43.3346 47.5898C43.8122 46.9077 43.9894 46.2077 43.7304 46.0263Z" fill="white"/>
<path fill-rule="evenodd" clip-rule="evenodd" d="M49.9014 46.0263C50.1604 45.845 50.7576 46.251 51.2352 46.9331C51.7128 47.6152 51.8901 48.3152 51.6311 48.4966C51.3721 48.6779 50.7749 48.272 50.2973 47.5898C49.8196 46.9077 49.6424 46.2077 49.9014 46.0263Z" fill="white"/>
<path fill-rule="evenodd" clip-rule="evenodd" d="M46.8186 47.0945C47.1348 47.0945 47.3911 47.7696 47.3911 48.6023C47.3911 49.435 47.1348 50.1101 46.8186 50.1101C46.5024 50.1101 46.2461 49.435 46.2461 48.6023C46.2461 47.7696 46.5024 47.0945 46.8186 47.0945Z" fill="white"/>
</g>
<mask id="mask4_11005_173001" style="mask-type:luminance" maskUnits="userSpaceOnUse" x="39" y="45" width="15" height="8">
<path fill-rule="evenodd" clip-rule="evenodd" d="M53.9248 52.45L39.6432 52.4499L39.6432 45.1627L53.9248 45.1627L53.9248 52.45Z" fill="white"/>
</mask>
<g mask="url(#mask4_11005_173001)">
<path fill-rule="evenodd" clip-rule="evenodd" d="M51.7715 45.0418C50.7554 46.6291 48.9823 47.6831 46.9632 47.6831C44.8873 47.6831 43.0716 46.569 42.071 44.9065L42.8521 44.4364C43.6958 45.8381 45.2223 46.7714 46.9632 46.7714C48.6566 46.7714 50.1469 45.8885 51.0037 44.5503L51.7715 45.0418ZM42.2582 38.6574C43.2885 37.1573 45.0109 36.1717 46.9632 36.1717C48.912 36.1717 50.6318 37.1538 51.6627 38.6493L50.9121 39.1667C50.043 37.9059 48.5978 37.0834 46.9632 37.0834C45.3257 37.0834 43.8783 37.9089 43.0097 39.1736L42.2582 38.6574Z" fill="white"/>
</g>
</g>
<path d="M71.3764 41.0532C71.3135 40.5967 71.062 40.2004 70.6083 39.8423L70.3459 39.6646L70.1709 39.9298C69.9468 40.2714 69.8347 40.7471 69.8703 41.2035C69.8867 41.3621 69.9386 41.6518 70.0999 41.9005C69.9386 41.9908 69.6188 42.111 69.1924 42.1028H61.0469L61.0305 42.1985C60.9539 42.655 60.9539 44.0845 61.8696 45.1806C62.5666 46.0143 63.6081 46.438 64.9693 46.438C67.9214 46.438 70.1026 45.0631 71.1276 42.5593C71.5294 42.5675 72.3959 42.562 72.8415 41.701C72.8524 41.6819 72.8797 41.6299 72.9563 41.4659L73 41.3757L72.7513 41.2063C72.4779 41.0286 71.8574 40.9603 71.3764 41.0532ZM67.5606 38H66.3223V39.1398H67.5606V38ZM67.5606 39.3694H66.3223V40.5093H67.5606V39.3694ZM66.0955 39.3694H64.8572V40.5093H66.0955V39.3694ZM64.6331 39.3694H63.3949V40.5093H64.6331V39.3694ZM63.168 40.7389H61.9298V41.8787H63.168V40.7389ZM64.6331 40.7389H63.3949V41.8787H64.6331V40.7389ZM66.0955 40.7389H64.8572V41.8787H66.0955V40.7389ZM67.5606 40.7389H66.3223V41.8787H67.5606V40.7389ZM69.0256 40.7389H67.7874V41.8787H69.0256V40.7389Z" fill="#1D63ED"/>
</g>
</g>
</g>
</g>
<defs>
<filter id="filter0_di_11005_173001" x="0" y="0" width="94" height="64" filterUnits="userSpaceOnUse" color-interpolation-filters="sRGB">
<feFlood flood-opacity="0" result="BackgroundImageFix"/>
<feColorMatrix in="SourceAlpha" type="matrix" values="0 0 0 0 0 0 0 0 0 0 0 0 0 0 0 0 0 0 127 0" result="hardAlpha"/>
<feOffset dy="1"/>
<feGaussianBlur stdDeviation="1"/>
<feComposite in2="hardAlpha" operator="out"/>
<feColorMatrix type="matrix" values="0 0 0 0 0 0 0 0 0 0 0 0 0 0 0 0 0 0 0.4 0"/>
<feBlend mode="normal" in2="BackgroundImageFix" result="effect1_dropShadow_11005_173001"/>
<feBlend mode="normal" in="SourceGraphic" in2="effect1_dropShadow_11005_173001" result="shape"/>
<feColorMatrix in="SourceAlpha" type="matrix" values="0 0 0 0 0 0 0 0 0 0 0 0 0 0 0 0 0 0 127 0" result="hardAlpha"/>
<feMorphology radius="2" operator="erode" in="SourceAlpha" result="effect2_innerShadow_11005_173001"/>
<feOffset/>
<feComposite in2="hardAlpha" operator="arithmetic" k2="-1" k3="1"/>
<feColorMatrix type="matrix" values="0 0 0 0 1 0 0 0 0 1 0 0 0 0 1 0 0 0 0.12 0"/>
<feBlend mode="normal" in2="shape" result="effect2_innerShadow_11005_173001"/>
</filter>
<linearGradient id="paint0_linear_11005_173001" x1="45" y1="0" x2="45" y2="60" gradientUnits="userSpaceOnUse">
<stop stop-color="#8040BF" stop-opacity="0.24"/>
<stop offset="1" stop-color="#141217"/>
</linearGradient>
<linearGradient id="paint1_linear_11005_173001" x1="46.5946" y1="9.03571" x2="46.7716" y2="61.0008" gradientUnits="userSpaceOnUse">
<stop stop-color="white"/>
<stop offset="1" stop-color="white" stop-opacity="0.02"/>
</linearGradient>
<linearGradient id="paint2_linear_11005_173001" x1="10.4" y1="1" x2="22.1" y2="33.4" gradientUnits="userSpaceOnUse">
<stop stop-color="#C494F4"/>
<stop offset="1" stop-color="white" stop-opacity="0.02"/>
</linearGradient>
<clipPath id="clip0_11005_173001">
<path d="M2 11C2 5.47715 6.47715 1 12 1H82C87.5228 1 92 5.47715 92 11V51C92 56.5228 87.5228 61 82 61H12C6.47715 61 2 56.5228 2 51V11Z" fill="white"/>
</clipPath>
<clipPath id="clip1_11005_173001">
<rect width="90" height="60" fill="white" transform="translate(2 1)"/>
</clipPath>
<clipPath id="clip2_11005_173001">
<rect width="16" height="16" fill="white" transform="translate(19 34)"/>
</clipPath>
<clipPath id="clip3_11005_173001">
<rect width="13.8575" height="16" fill="white" transform="translate(40 34)"/>
</clipPath>
</defs>
</svg>
