<svg width="154" height="94" viewBox="0 0 154 94" fill="none" xmlns="http://www.w3.org/2000/svg">
<g filter="url(#filter0_di_10774_83641)">
<g clip-path="url(#clip0_10774_83641)">
<g clip-path="url(#clip1_10774_83641)">
<rect width="150" height="90" transform="translate(2 1)" fill="url(#paint0_linear_10774_83641)"/>
<mask id="mask0_10774_83641" style="mask-type:alpha" maskUnits="userSpaceOnUse" x="2" y="1" width="150" height="100">
<path d="M2 1H152V101H2V1Z" fill="url(#paint1_linear_10774_83641)"/>
</mask>
<g mask="url(#mask0_10774_83641)">
<path d="M12 1.5H142C147.247 1.5 151.5 5.7533 151.5 11V91C151.5 96.2467 147.247 100.5 142 100.5H12C6.7533 100.5 2.5 96.2467 2.5 91V11L2.5127 10.5107C2.76734 5.49142 6.91739 1.5 12 1.5Z" stroke="url(#paint2_linear_10774_83641)"/>
<path d="M43 13.5H112C116.142 13.5 119.5 16.8579 119.5 21V83C119.5 87.1421 116.142 90.5 112 90.5H43C38.8579 90.5 35.5 87.1421 35.5 83V21L35.5098 20.6143C35.7105 16.6514 38.9872 13.5 43 13.5Z" fill="white"/>
<path d="M43 13.5H112C116.142 13.5 119.5 16.8579 119.5 21V83C119.5 87.1421 116.142 90.5 112 90.5H43C38.8579 90.5 35.5 87.1421 35.5 83V21L35.5098 20.6143C35.7105 16.6514 38.9872 13.5 43 13.5Z" stroke="#F2E5FF"/>
<path d="M44.9717 66.875C44.9717 64.6659 46.7625 62.875 48.9717 62.875H52.9717C55.1808 62.875 56.9717 64.6659 56.9717 66.875V78.875C56.9717 81.0841 55.1808 82.875 52.9717 82.875H48.9717C46.7625 82.875 44.9717 81.0841 44.9717 78.875V66.875Z" fill="#8040BF"/>
<path d="M61.9717 56.875C61.9717 54.6659 63.7625 52.875 65.9717 52.875H69.9717C72.1808 52.875 73.9717 54.6659 73.9717 56.875V78.875C73.9717 81.0841 72.1808 82.875 69.9717 82.875H65.9717C63.7625 82.875 61.9717 81.0841 61.9717 78.875V56.875Z" fill="#8040BF"/>
<path d="M78.9717 42.875C78.9717 40.6659 80.7625 38.875 82.9717 38.875H86.9717C89.1808 38.875 90.9717 40.6659 90.9717 42.875V78.875C90.9717 81.0841 89.1808 82.875 86.9717 82.875H82.9717C80.7625 82.875 78.9717 81.0841 78.9717 78.875V42.875Z" fill="#8040BF"/>
<path d="M35 19.5H119C123.142 19.5 126.5 22.8579 126.5 27V89C126.5 93.1421 123.142 96.5 119 96.5H35C30.8579 96.5 27.5 93.1421 27.5 89V27L27.5098 26.6143C27.7041 22.7792 30.7792 19.7041 34.6143 19.5098L35 19.5Z" fill="white"/>
<path d="M35 19.5H119C123.142 19.5 126.5 22.8579 126.5 27V89C126.5 93.1421 123.142 96.5 119 96.5H35C30.8579 96.5 27.5 93.1421 27.5 89V27L27.5098 26.6143C27.7041 22.7792 30.7792 19.7041 34.6143 19.5098L35 19.5Z" stroke="#F2E5FF"/>
<path d="M38.5342 72.875C38.5342 70.6659 40.325 68.875 42.5342 68.875H46.5342C48.7433 68.875 50.5342 70.6659 50.5342 72.875V84.875C50.5342 87.0841 48.7433 88.875 46.5342 88.875H42.5342C40.325 88.875 38.5342 87.0841 38.5342 84.875V72.875Z" fill="#8040BF"/>
<path d="M55.5342 62.875C55.5342 60.6659 57.325 58.875 59.5342 58.875H63.5342C65.7433 58.875 67.5342 60.6659 67.5342 62.875V84.875C67.5342 87.0841 65.7433 88.875 63.5342 88.875H59.5342C57.325 88.875 55.5342 87.0841 55.5342 84.875V62.875Z" fill="#8040BF"/>
<path d="M72.5342 48.875C72.5342 46.6659 74.325 44.875 76.5342 44.875H80.5342C82.7433 44.875 84.5342 46.6659 84.5342 48.875V84.875C84.5342 87.0841 82.7433 88.875 80.5342 88.875H76.5342C74.325 88.875 72.5342 87.0841 72.5342 84.875V48.875Z" fill="#8040BF"/>
<path d="M25 25.5H129C133.142 25.5 136.5 28.8579 136.5 33V95C136.5 99.1421 133.142 102.5 129 102.5H25C20.8579 102.5 17.5 99.1421 17.5 95V33L17.5098 32.6143C17.7105 28.6514 20.9872 25.5 25 25.5Z" fill="white"/>
<path d="M25 25.5H129C133.142 25.5 136.5 28.8579 136.5 33V95C136.5 99.1421 133.142 102.5 129 102.5H25C20.8579 102.5 17.5 99.1421 17.5 95V33L17.5098 32.6143C17.7105 28.6514 20.9872 25.5 25 25.5Z" stroke="#F2E5FF"/>
<mask id="path-13-inside-1_10774_83641" fill="white">
<path d="M75.8271 42.1377C76.0728 42.148 76.3165 42.1666 76.5586 42.1895C76.8031 42.2125 77.0456 42.2419 77.2861 42.2773C77.5328 42.3137 77.7773 42.3562 78.0195 42.4053C78.0654 42.4146 78.1116 42.4219 78.1572 42.4316C78.4472 42.4934 78.7329 42.5671 79.0156 42.6465C79.101 42.6705 79.1868 42.6922 79.2715 42.7178C79.7415 42.8596 80.1995 43.0283 80.6465 43.2168C80.8167 43.2886 80.9848 43.3641 81.1514 43.4424C81.3296 43.5261 81.5058 43.6131 81.6797 43.7041C83.4771 44.6444 85.0349 45.9642 86.2422 47.5557C86.3506 47.6986 86.4559 47.8439 86.5586 47.9912C86.6183 48.0768 86.6786 48.162 86.7363 48.249C86.8658 48.4443 86.9891 48.6436 87.1084 48.8457C87.1777 48.9631 87.2468 49.0806 87.3125 49.2002C87.5044 49.5494 87.6795 49.9085 87.8398 50.2754C87.977 50.5893 88.1039 50.9087 88.2168 51.2344C88.3363 51.5789 88.4422 51.9297 88.5332 52.2861C88.5354 52.2948 88.5378 52.3038 88.54 52.3125C93.4698 52.3498 97.4539 56.2746 97.4541 61.1104C97.4541 63.0897 96.7868 64.9168 95.6602 66.3867C94.1094 68.41 91.7673 69.9094 89.1191 69.8975C85.1248 69.9094 69.757 69.9092 63.877 69.9092L63.5586 69.9043C63.4972 69.9026 63.4361 69.8992 63.375 69.8965C63.347 69.8952 63.319 69.894 63.291 69.8926C63.1207 69.8837 62.9514 69.8709 62.7832 69.8545C62.7718 69.8534 62.7604 69.8527 62.749 69.8516C62.5822 69.8347 62.4165 69.8142 62.252 69.79C62.2272 69.7864 62.2025 69.7821 62.1777 69.7783C61.843 69.7269 61.5134 69.6607 61.1895 69.5801C61.1738 69.5762 61.1582 69.5723 61.1426 69.5684C60.9796 69.527 60.8181 69.482 60.6582 69.4336C60.6478 69.4304 60.6374 69.427 60.627 69.4238C60.4747 69.3772 60.3241 69.3273 60.1748 69.2744C60.1455 69.264 60.1161 69.2538 60.0869 69.2432C59.9472 69.1923 59.8088 69.1393 59.6719 69.083C59.6404 69.0701 59.6094 69.0562 59.5781 69.043C59.2858 68.9197 59.0001 68.7847 58.7217 68.6377C58.704 68.6284 58.6865 68.6188 58.6689 68.6094C58.5328 68.5365 58.3982 68.4612 58.2656 68.3828C58.2458 68.3711 58.2258 68.3595 58.2061 68.3477C58.0722 68.2674 57.9405 68.1843 57.8105 68.0986C57.7935 68.0874 57.7767 68.0758 57.7598 68.0645C57.4925 67.8861 57.2338 67.6965 56.9844 67.4961C56.9703 67.4848 56.9555 67.4743 56.9414 67.4629C56.8269 67.37 56.715 67.2741 56.6045 67.1768C56.5754 67.1511 56.5464 67.1255 56.5176 67.0996C56.409 67.0018 56.3017 66.9027 56.1973 66.8008C56.1836 66.7874 56.1708 66.7732 56.1572 66.7598C55.9409 66.5463 55.7335 66.3244 55.5361 66.0938C55.5065 66.0592 55.4774 66.0242 55.4482 65.9893L55.4365 65.9756L55.1572 65.627C55.0617 65.5017 54.9699 65.3736 54.8799 65.2441C54.8457 65.195 54.8136 65.1445 54.7803 65.0947C54.7202 65.0051 54.6599 64.9157 54.6025 64.8242C54.5734 64.7778 54.546 64.7304 54.5176 64.6836C54.464 64.5951 54.4114 64.5061 54.3604 64.416C54.3257 64.3548 54.2913 64.2934 54.2578 64.2314C54.2152 64.1526 54.1735 64.0732 54.1328 63.9932C54.0988 63.9262 54.0658 63.8588 54.0332 63.791C53.9931 63.7077 53.9549 63.6235 53.917 63.5391C53.8899 63.4786 53.862 63.4185 53.8359 63.3574C53.7852 63.2384 53.7368 63.1182 53.6904 62.9971C53.679 62.9673 53.6664 62.9381 53.6553 62.9082C53.5979 62.7543 53.5443 62.5986 53.4941 62.4414C53.4824 62.4045 53.4723 62.3671 53.4609 62.3301C53.4228 62.2059 53.3861 62.0811 53.3525 61.9551C53.3408 61.911 53.3305 61.8666 53.3193 61.8223C53.2907 61.7086 53.2632 61.5945 53.2383 61.4795C53.2226 61.4069 53.2085 61.3339 53.1943 61.2607C53.1788 61.1809 53.1641 61.1009 53.1504 61.0205C53.1358 60.9349 53.1218 60.849 53.1094 60.7627C53.0953 60.6655 53.0836 60.5678 53.0723 60.4697C53.0657 60.4125 53.0584 60.3553 53.0527 60.2979C53.0395 60.1638 53.0286 60.029 53.0205 59.8936C53.0182 59.8549 53.0156 59.8161 53.0137 59.7773C53.0053 59.6055 53 59.4327 53 59.2588C53 59.0828 53.0041 58.9073 53.0127 58.7334C53.0165 58.6573 53.0249 58.5816 53.0303 58.5059C53.0372 58.4082 53.0421 58.3107 53.0518 58.2139C53.0598 58.1328 53.0711 58.0522 53.0811 57.9717C53.0922 57.8812 53.1028 57.7909 53.1162 57.7012C53.129 57.6154 53.1452 57.5304 53.1602 57.4453C53.1745 57.3634 53.1878 57.2815 53.2041 57.2002C53.2219 57.1111 53.2426 57.0228 53.2627 56.9346C53.2807 56.8553 53.2976 56.7759 53.3174 56.6973C53.3357 56.6245 53.3571 56.5526 53.377 56.4805C53.4024 56.388 53.4272 56.2955 53.4551 56.2041C53.4766 56.1337 53.4995 56.0639 53.5225 55.9941C53.5497 55.9111 53.5772 55.8282 53.6064 55.7461C53.635 55.666 53.6659 55.587 53.6963 55.5078C53.7283 55.4245 53.7599 55.3411 53.7939 55.2588C53.8214 55.1925 53.8511 55.1272 53.8799 55.0615C53.9153 54.9807 53.9509 54.9001 53.9883 54.8203C54.0266 54.7386 54.0661 54.6577 54.1064 54.5771C54.1393 54.5115 54.1719 54.4457 54.2061 54.3809C54.2487 54.3 54.2932 54.2203 54.3379 54.1406C54.3755 54.0736 54.4131 54.0066 54.4521 53.9404C54.4948 53.8682 54.5387 53.7968 54.583 53.7256C54.6275 53.6541 54.6726 53.5831 54.7188 53.5127C54.7622 53.4464 54.8066 53.3807 54.8516 53.3154C54.8998 53.2454 54.9492 53.1763 54.999 53.1074C55.0482 53.0395 55.0977 52.972 55.1484 52.9053C55.1969 52.8416 55.246 52.7784 55.2959 52.7158C55.3458 52.6532 55.396 52.5908 55.4473 52.5293C55.5043 52.4608 55.5623 52.3932 55.6211 52.3262C55.6723 52.2677 55.7239 52.2097 55.7764 52.1523C55.8369 52.0863 55.8988 52.0216 55.9609 51.957C56.0111 51.905 56.0611 51.8528 56.1123 51.8018C56.1765 51.7377 56.2418 51.6748 56.3076 51.6123C56.3651 51.5578 56.4228 51.5035 56.4814 51.4502C56.5446 51.3928 56.6093 51.3372 56.6738 51.2812C56.7321 51.2308 56.7902 51.1801 56.8496 51.1309C56.9305 51.0637 57.0128 50.9984 57.0957 50.9336C57.1391 50.8996 57.1816 50.8644 57.2256 50.8311C57.3093 50.7676 57.3948 50.7066 57.4805 50.6455C57.5361 50.6058 57.591 50.565 57.6475 50.5264C57.719 50.4773 57.7925 50.4312 57.8652 50.3838C57.9321 50.3403 57.9985 50.296 58.0664 50.2539C58.1423 50.2069 58.2198 50.1624 58.2969 50.1172C58.3633 50.0782 58.4288 50.0376 58.4961 50C58.604 49.9397 58.714 49.8829 58.8242 49.8262C58.8598 49.8079 58.8948 49.7884 58.9307 49.7705C59.3839 49.5435 59.8555 49.3465 60.3428 49.1826C60.407 49.161 60.4723 49.1425 60.5371 49.1221C60.6328 49.0919 60.7284 49.0609 60.8252 49.0332C60.9183 49.0066 61.0124 48.9832 61.1064 48.959C61.1779 48.9406 61.2492 48.9213 61.3213 48.9043C61.4122 48.8829 61.504 48.8649 61.5957 48.8457C61.675 48.8291 61.7541 48.8108 61.834 48.7959C61.922 48.7795 62.0108 48.7662 62.0996 48.752C62.1808 48.7389 62.2619 48.7242 62.3438 48.7129C62.4525 48.6979 62.5621 48.6867 62.6719 48.6748C62.7194 48.6697 62.7668 48.6627 62.8145 48.6582L62.8164 48.6592H62.8174L62.8145 48.6582C62.8359 48.6562 62.8574 48.6543 62.8789 48.6523C62.926 48.6481 62.9732 48.6452 63.0205 48.6416C63.1739 48.6299 63.3283 48.6206 63.4834 48.6152C65.8856 44.7255 70.2464 42.125 75.2275 42.125L75.8271 42.1377Z"/>
</mask>
<path d="M75.8271 42.1377C76.0728 42.148 76.3165 42.1666 76.5586 42.1895C76.8031 42.2125 77.0456 42.2419 77.2861 42.2773C77.5328 42.3137 77.7773 42.3562 78.0195 42.4053C78.0654 42.4146 78.1116 42.4219 78.1572 42.4316C78.4472 42.4934 78.7329 42.5671 79.0156 42.6465C79.101 42.6705 79.1868 42.6922 79.2715 42.7178C79.7415 42.8596 80.1995 43.0283 80.6465 43.2168C80.8167 43.2886 80.9848 43.3641 81.1514 43.4424C81.3296 43.5261 81.5058 43.6131 81.6797 43.7041C83.4771 44.6444 85.0349 45.9642 86.2422 47.5557C86.3506 47.6986 86.4559 47.8439 86.5586 47.9912C86.6183 48.0768 86.6786 48.162 86.7363 48.249C86.8658 48.4443 86.9891 48.6436 87.1084 48.8457C87.1777 48.9631 87.2468 49.0806 87.3125 49.2002C87.5044 49.5494 87.6795 49.9085 87.8398 50.2754C87.977 50.5893 88.1039 50.9087 88.2168 51.2344C88.3363 51.5789 88.4422 51.9297 88.5332 52.2861C88.5354 52.2948 88.5378 52.3038 88.54 52.3125C93.4698 52.3498 97.4539 56.2746 97.4541 61.1104C97.4541 63.0897 96.7868 64.9168 95.6602 66.3867C94.1094 68.41 91.7673 69.9094 89.1191 69.8975C85.1248 69.9094 69.757 69.9092 63.877 69.9092L63.5586 69.9043C63.4972 69.9026 63.4361 69.8992 63.375 69.8965C63.347 69.8952 63.319 69.894 63.291 69.8926C63.1207 69.8837 62.9514 69.8709 62.7832 69.8545C62.7718 69.8534 62.7604 69.8527 62.749 69.8516C62.5822 69.8347 62.4165 69.8142 62.252 69.79C62.2272 69.7864 62.2025 69.7821 62.1777 69.7783C61.843 69.7269 61.5134 69.6607 61.1895 69.5801C61.1738 69.5762 61.1582 69.5723 61.1426 69.5684C60.9796 69.527 60.8181 69.482 60.6582 69.4336C60.6478 69.4304 60.6374 69.427 60.627 69.4238C60.4747 69.3772 60.3241 69.3273 60.1748 69.2744C60.1455 69.264 60.1161 69.2538 60.0869 69.2432C59.9472 69.1923 59.8088 69.1393 59.6719 69.083C59.6404 69.0701 59.6094 69.0562 59.5781 69.043C59.2858 68.9197 59.0001 68.7847 58.7217 68.6377C58.704 68.6284 58.6865 68.6188 58.6689 68.6094C58.5328 68.5365 58.3982 68.4612 58.2656 68.3828C58.2458 68.3711 58.2258 68.3595 58.2061 68.3477C58.0722 68.2674 57.9405 68.1843 57.8105 68.0986C57.7935 68.0874 57.7767 68.0758 57.7598 68.0645C57.4925 67.8861 57.2338 67.6965 56.9844 67.4961C56.9703 67.4848 56.9555 67.4743 56.9414 67.4629C56.8269 67.37 56.715 67.2741 56.6045 67.1768C56.5754 67.1511 56.5464 67.1255 56.5176 67.0996C56.409 67.0018 56.3017 66.9027 56.1973 66.8008C56.1836 66.7874 56.1708 66.7732 56.1572 66.7598C55.9409 66.5463 55.7335 66.3244 55.5361 66.0938C55.5065 66.0592 55.4774 66.0242 55.4482 65.9893L55.4365 65.9756L55.1572 65.627C55.0617 65.5017 54.9699 65.3736 54.8799 65.2441C54.8457 65.195 54.8136 65.1445 54.7803 65.0947C54.7202 65.0051 54.6599 64.9157 54.6025 64.8242C54.5734 64.7778 54.546 64.7304 54.5176 64.6836C54.464 64.5951 54.4114 64.5061 54.3604 64.416C54.3257 64.3548 54.2913 64.2934 54.2578 64.2314C54.2152 64.1526 54.1735 64.0732 54.1328 63.9932C54.0988 63.9262 54.0658 63.8588 54.0332 63.791C53.9931 63.7077 53.9549 63.6235 53.917 63.5391C53.8899 63.4786 53.862 63.4185 53.8359 63.3574C53.7852 63.2384 53.7368 63.1182 53.6904 62.9971C53.679 62.9673 53.6664 62.9381 53.6553 62.9082C53.5979 62.7543 53.5443 62.5986 53.4941 62.4414C53.4824 62.4045 53.4723 62.3671 53.4609 62.3301C53.4228 62.2059 53.3861 62.0811 53.3525 61.9551C53.3408 61.911 53.3305 61.8666 53.3193 61.8223C53.2907 61.7086 53.2632 61.5945 53.2383 61.4795C53.2226 61.4069 53.2085 61.3339 53.1943 61.2607C53.1788 61.1809 53.1641 61.1009 53.1504 61.0205C53.1358 60.9349 53.1218 60.849 53.1094 60.7627C53.0953 60.6655 53.0836 60.5678 53.0723 60.4697C53.0657 60.4125 53.0584 60.3553 53.0527 60.2979C53.0395 60.1638 53.0286 60.029 53.0205 59.8936C53.0182 59.8549 53.0156 59.8161 53.0137 59.7773C53.0053 59.6055 53 59.4327 53 59.2588C53 59.0828 53.0041 58.9073 53.0127 58.7334C53.0165 58.6573 53.0249 58.5816 53.0303 58.5059C53.0372 58.4082 53.0421 58.3107 53.0518 58.2139C53.0598 58.1328 53.0711 58.0522 53.0811 57.9717C53.0922 57.8812 53.1028 57.7909 53.1162 57.7012C53.129 57.6154 53.1452 57.5304 53.1602 57.4453C53.1745 57.3634 53.1878 57.2815 53.2041 57.2002C53.2219 57.1111 53.2426 57.0228 53.2627 56.9346C53.2807 56.8553 53.2976 56.7759 53.3174 56.6973C53.3357 56.6245 53.3571 56.5526 53.377 56.4805C53.4024 56.388 53.4272 56.2955 53.4551 56.2041C53.4766 56.1337 53.4995 56.0639 53.5225 55.9941C53.5497 55.9111 53.5772 55.8282 53.6064 55.7461C53.635 55.666 53.6659 55.587 53.6963 55.5078C53.7283 55.4245 53.7599 55.3411 53.7939 55.2588C53.8214 55.1925 53.8511 55.1272 53.8799 55.0615C53.9153 54.9807 53.9509 54.9001 53.9883 54.8203C54.0266 54.7386 54.0661 54.6577 54.1064 54.5771C54.1393 54.5115 54.1719 54.4457 54.2061 54.3809C54.2487 54.3 54.2932 54.2203 54.3379 54.1406C54.3755 54.0736 54.4131 54.0066 54.4521 53.9404C54.4948 53.8682 54.5387 53.7968 54.583 53.7256C54.6275 53.6541 54.6726 53.5831 54.7188 53.5127C54.7622 53.4464 54.8066 53.3807 54.8516 53.3154C54.8998 53.2454 54.9492 53.1763 54.999 53.1074C55.0482 53.0395 55.0977 52.972 55.1484 52.9053C55.1969 52.8416 55.246 52.7784 55.2959 52.7158C55.3458 52.6532 55.396 52.5908 55.4473 52.5293C55.5043 52.4608 55.5623 52.3932 55.6211 52.3262C55.6723 52.2677 55.7239 52.2097 55.7764 52.1523C55.8369 52.0863 55.8988 52.0216 55.9609 51.957C56.0111 51.905 56.0611 51.8528 56.1123 51.8018C56.1765 51.7377 56.2418 51.6748 56.3076 51.6123C56.3651 51.5578 56.4228 51.5035 56.4814 51.4502C56.5446 51.3928 56.6093 51.3372 56.6738 51.2812C56.7321 51.2308 56.7902 51.1801 56.8496 51.1309C56.9305 51.0637 57.0128 50.9984 57.0957 50.9336C57.1391 50.8996 57.1816 50.8644 57.2256 50.8311C57.3093 50.7676 57.3948 50.7066 57.4805 50.6455C57.5361 50.6058 57.591 50.565 57.6475 50.5264C57.719 50.4773 57.7925 50.4312 57.8652 50.3838C57.9321 50.3403 57.9985 50.296 58.0664 50.2539C58.1423 50.2069 58.2198 50.1624 58.2969 50.1172C58.3633 50.0782 58.4288 50.0376 58.4961 50C58.604 49.9397 58.714 49.8829 58.8242 49.8262C58.8598 49.8079 58.8948 49.7884 58.9307 49.7705C59.3839 49.5435 59.8555 49.3465 60.3428 49.1826C60.407 49.161 60.4723 49.1425 60.5371 49.1221C60.6328 49.0919 60.7284 49.0609 60.8252 49.0332C60.9183 49.0066 61.0124 48.9832 61.1064 48.959C61.1779 48.9406 61.2492 48.9213 61.3213 48.9043C61.4122 48.8829 61.504 48.8649 61.5957 48.8457C61.675 48.8291 61.7541 48.8108 61.834 48.7959C61.922 48.7795 62.0108 48.7662 62.0996 48.752C62.1808 48.7389 62.2619 48.7242 62.3438 48.7129C62.4525 48.6979 62.5621 48.6867 62.6719 48.6748C62.7194 48.6697 62.7668 48.6627 62.8145 48.6582L62.8164 48.6592H62.8174L62.8145 48.6582C62.8359 48.6562 62.8574 48.6543 62.8789 48.6523C62.926 48.6481 62.9732 48.6452 63.0205 48.6416C63.1739 48.6299 63.3283 48.6206 63.4834 48.6152C65.8856 44.7255 70.2464 42.125 75.2275 42.125L75.8271 42.1377Z" fill="url(#paint3_linear_10774_83641)" fill-opacity="0.56"/>
<path d="M75.8271 42.1377L75.8903 40.639L75.8746 40.6384L75.8589 40.638L75.8271 42.1377ZM76.5586 42.1895L76.4177 43.6828L76.4177 43.6828L76.5586 42.1895ZM77.2861 42.2773L77.5049 40.7934L77.5049 40.7934L77.2861 42.2773ZM78.0195 42.4053L77.7218 43.8754L77.7218 43.8754L78.0195 42.4053ZM78.1572 42.4316L78.4698 40.9646L78.4698 40.9646L78.1572 42.4316ZM79.0156 42.6465L78.61 44.0906L78.61 44.0906L79.0156 42.6465ZM79.2715 42.7178L79.7048 41.2817L79.7048 41.2817L79.2715 42.7178ZM80.6465 43.2168L80.0636 44.5989L80.0636 44.5989L80.6465 43.2168ZM81.1514 43.4424L81.7892 42.0847L81.7892 42.0847L81.1514 43.4424ZM81.6797 43.7041L80.9844 45.0332L80.9844 45.0332L81.6797 43.7041ZM86.2422 47.5557L85.0471 48.4622L85.0471 48.4622L86.2422 47.5557ZM86.5586 47.9912L87.7889 47.1331L87.7889 47.1331L86.5586 47.9912ZM86.7363 48.249L85.4863 49.0782L85.4863 49.0782L86.7363 48.249ZM87.1084 48.8457L88.4002 48.0833L88.4002 48.0833L87.1084 48.8457ZM87.3125 49.2002L85.9979 49.9226L85.9979 49.9226L87.3125 49.2002ZM87.8398 50.2754L89.2143 49.6747L89.2143 49.6747L87.8398 50.2754ZM88.2168 51.2344L86.7996 51.7257L86.7996 51.7258L88.2168 51.2344ZM88.5332 52.2861L89.9866 51.9151L89.9866 51.9151L88.5332 52.2861ZM88.54 52.3125L87.0859 52.6805L87.3702 53.8037L88.5287 53.8125L88.54 52.3125ZM97.4541 61.1104H98.9541V61.1103L97.4541 61.1104ZM95.6602 66.3867L96.8507 67.2992L96.8507 67.2992L95.6602 66.3867ZM89.1191 69.8975L89.1259 68.3974L89.1146 68.3975L89.1191 69.8975ZM63.877 69.9092L63.8539 71.409L63.8655 71.4092H63.877V69.9092ZM63.5586 69.9043L63.5164 71.4037L63.526 71.404L63.5356 71.4041L63.5586 69.9043ZM63.375 69.8965L63.3083 71.395L63.375 69.8965ZM63.291 69.8926L63.3689 68.3946L63.291 69.8926ZM62.7832 69.8545L62.6372 71.3474L62.7832 69.8545ZM62.749 69.8516L62.8996 68.3591L62.749 69.8516ZM62.252 69.79L62.0342 71.2742V71.2742L62.252 69.79ZM62.1777 69.7783L62.4055 68.2957L62.1777 69.7783ZM61.1895 69.5801L60.8272 71.0357V71.0357L61.1895 69.5801ZM61.1426 69.5684L61.5113 68.1144V68.1144L61.1426 69.5684ZM60.6582 69.4336L60.2233 70.8692V70.8692L60.6582 69.4336ZM60.627 69.4238L61.0662 67.9896V67.9896L60.627 69.4238ZM60.1748 69.2744L59.6737 70.6882V70.6882L60.1748 69.2744ZM60.0869 69.2432L60.6001 67.8337V67.8337L60.0869 69.2432ZM59.6719 69.083L59.1018 70.4705V70.4705L59.6719 69.083ZM59.5781 69.043L60.1611 67.6609V67.6609L59.5781 69.043ZM58.7217 68.6377L58.0212 69.9641V69.9641L58.7217 68.6377ZM58.6689 68.6094L59.3767 67.2868V67.2868L58.6689 68.6094ZM58.2656 68.3828L57.5025 69.6742H57.5025L58.2656 68.3828ZM58.2061 68.3477L58.9773 67.0611V67.0611L58.2061 68.3477ZM57.8105 68.0986L56.9849 69.351H56.9849L57.8105 68.0986ZM57.7598 68.0645L58.5924 66.8168H58.5924L57.7598 68.0645ZM56.9844 67.4961L56.0451 68.6656H56.0451L56.9844 67.4961ZM56.9414 67.4629L57.8865 66.2981V66.2981L56.9414 67.4629ZM56.6045 67.1768L55.6128 68.3022H55.6128L56.6045 67.1768ZM56.5176 67.0996L57.5212 65.9849V65.9849L56.5176 67.0996ZM56.1973 66.8008L55.1494 67.8741V67.8741L56.1973 66.8008ZM56.1572 66.7598L57.2107 65.692V65.692L56.1572 66.7598ZM55.5361 66.0938L54.3964 67.0689L55.5361 66.0938ZM55.4482 65.9893L56.6003 65.0286L56.5937 65.0208L56.5871 65.0131L55.4482 65.9893ZM55.4365 65.9756L54.2659 66.9134L54.2814 66.9329L54.2976 66.9518L55.4365 65.9756ZM55.1572 65.627L53.9647 66.5368L53.9755 66.5509L53.9866 66.5648L55.1572 65.627ZM54.8799 65.2441L56.1115 64.3879L56.1115 64.3879L54.8799 65.2441ZM54.7803 65.0947L53.5344 65.9301L53.5344 65.9301L54.7803 65.0947ZM54.6025 64.8242L55.8733 64.0272L55.8733 64.0272L54.6025 64.8242ZM54.5176 64.6836L53.2347 65.4609L53.2347 65.4609L54.5176 64.6836ZM54.3604 64.416L55.6655 63.6767L55.6655 63.6767L54.3604 64.416ZM54.2578 64.2314L52.9381 64.9445L52.9381 64.9445L54.2578 64.2314ZM54.1328 63.9932L55.4703 63.3141L55.4703 63.314L54.1328 63.9932ZM54.0332 63.791L52.6815 64.4413L52.6815 64.4413L54.0332 63.791ZM53.917 63.5391L55.2854 62.9248H55.2854L53.917 63.5391ZM53.8359 63.3574L52.4561 63.9456L53.8359 63.3574ZM53.6904 62.9971L52.2896 63.5335H52.2896L53.6904 62.9971ZM53.6553 62.9082L55.0609 62.3846L55.0609 62.3846L53.6553 62.9082ZM53.4941 62.4414L52.0653 62.8978L52.0653 62.8978L53.4941 62.4414ZM53.4609 62.3301L54.8948 61.8897L54.8948 61.8897L53.4609 62.3301ZM53.3525 61.9551L51.9031 62.3413L51.9031 62.3413L53.3525 61.9551ZM53.3193 61.8223L54.7737 61.4551L54.7737 61.4551L53.3193 61.8223ZM53.2383 61.4795L51.7723 61.7971L51.7723 61.7971L53.2383 61.4795ZM53.1943 61.2607L54.6668 60.9746L54.6668 60.9746L53.1943 61.2607ZM53.1504 61.0205L51.6716 61.272L51.6716 61.272L53.1504 61.0205ZM53.1094 60.7627L54.594 60.5483L54.594 60.5483L53.1094 60.7627ZM53.0723 60.4697L51.5822 60.642L51.5822 60.642L53.0723 60.4697ZM53.0527 60.2979L54.5454 60.1502L54.5454 60.1502L53.0527 60.2979ZM53.0205 59.8936L51.5232 59.9835L51.5232 59.9835L53.0205 59.8936ZM53.0137 59.7773L54.5119 59.7039L54.5119 59.7039L53.0137 59.7773ZM53 59.2588H51.5V59.2588L53 59.2588ZM53.0127 58.7334L54.5109 58.8077V58.8077L53.0127 58.7334ZM53.0303 58.5059L51.5341 58.3992V58.3992L53.0303 58.5059ZM53.0518 58.2139L54.5444 58.3623H54.5444L53.0518 58.2139ZM53.0811 57.9717L51.5923 57.7885V57.7885L53.0811 57.9717ZM53.1162 57.7012L54.5997 57.9231L54.5997 57.9231L53.1162 57.7012ZM53.1602 57.4453L51.6827 57.1864L51.6827 57.1864L53.1602 57.4453ZM53.2041 57.2002L54.675 57.4943L54.675 57.4943L53.2041 57.2002ZM53.2627 56.9346L51.8 56.602L51.8 56.602L53.2627 56.9346ZM53.3174 56.6973L54.7719 57.064L54.7719 57.064L53.3174 56.6973ZM53.377 56.4805L51.9307 56.0824L51.9307 56.0824L53.377 56.4805ZM53.4551 56.2041L54.8897 56.642L54.8897 56.642L53.4551 56.2041ZM53.5225 55.9941L52.0974 55.5259L52.0974 55.5259L53.5225 55.9941ZM53.6064 55.7461L55.0193 56.25L55.0193 56.25L53.6064 55.7461ZM53.6963 55.5078L52.2962 54.9696L52.2962 54.9696L53.6963 55.5078ZM53.7939 55.2588L55.1798 55.8327L55.1798 55.8327L53.7939 55.2588ZM53.8799 55.0615L52.5061 54.4592L52.5061 54.4592L53.8799 55.0615ZM53.9883 54.8203L55.3464 55.4571L55.3464 55.4571L53.9883 54.8203ZM54.1064 54.5771L52.7652 53.9056L52.7652 53.9056L54.1064 54.5771ZM54.2061 54.3809L55.533 55.0803L55.533 55.0803L54.2061 54.3809ZM54.3379 54.1406L53.0296 53.407L53.0296 53.407L54.3379 54.1406ZM54.4521 53.9404L55.7442 54.7024L55.7442 54.7024L54.4521 53.9404ZM54.583 53.7256L53.3094 52.9331L53.3094 52.9331L54.583 53.7256ZM54.7188 53.5127L55.9731 54.3352L55.9731 54.3352L54.7188 53.5127ZM54.8516 53.3154L53.6159 52.4651L53.6159 52.4651L54.8516 53.3154ZM54.999 53.1074L56.214 53.987L56.214 53.987L54.999 53.1074ZM55.1484 52.9053L53.9544 51.9973L53.9544 51.9973L55.1484 52.9053ZM55.2959 52.7158L56.4693 53.6503L56.4693 53.6503L55.2959 52.7158ZM55.4473 52.5293L54.2951 51.5688L54.2951 51.5688L55.4473 52.5293ZM55.6211 52.3262L56.7491 53.3149L56.7491 53.3149L55.6211 52.3262ZM55.7764 52.1523L54.67 51.1394L54.67 51.1394L55.7764 52.1523ZM55.9609 51.957L57.0417 52.9972L57.0417 52.9972L55.9609 51.957ZM56.1123 51.8018L55.0526 50.7402H55.0526L56.1123 51.8018ZM56.3076 51.6123L57.3404 52.7002V52.7002L56.3076 51.6123ZM56.4814 51.4502L55.4728 50.34H55.4728L56.4814 51.4502ZM56.6738 51.2812L57.6561 52.4149V52.4149L56.6738 51.2812ZM56.8496 51.1309L55.8917 49.9765H55.8917L56.8496 51.1309ZM57.0957 50.9336L56.1717 49.752V49.752L57.0957 50.9336ZM57.2256 50.8311L58.1316 52.0265H58.1316L57.2256 50.8311ZM57.4805 50.6455L56.6094 49.4243H56.6094L57.4805 50.6455ZM57.6475 50.5264L58.4954 51.7637V51.7637L57.6475 50.5264ZM57.8652 50.3838L57.0471 49.1266H57.0471L57.8652 50.3838ZM58.0664 50.2539L58.8568 51.5288L58.8568 51.5288L58.0664 50.2539ZM58.2969 50.1172L57.538 48.8233L57.538 48.8233L58.2969 50.1172ZM58.4961 50L59.2274 51.3096L59.2274 51.3096L58.4961 50ZM58.8242 49.8262L58.1378 48.4925L58.1378 48.4925L58.8242 49.8262ZM58.9307 49.7705L59.6024 51.1117L59.6024 51.1117L58.9307 49.7705ZM60.3428 49.1826L59.8647 47.7608L59.8647 47.7608L60.3428 49.1826ZM60.5371 49.1221L60.9887 50.5525H60.9887L60.5371 49.1221ZM60.8252 49.0332L60.4131 47.5909L60.4131 47.5909L60.8252 49.0332ZM61.1064 48.959L61.4801 50.4117L61.4801 50.4117L61.1064 48.959ZM61.3213 48.9043L60.977 47.4443L60.977 47.4443L61.3213 48.9043ZM61.5957 48.8457L61.9027 50.314L61.9027 50.314L61.5957 48.8457ZM61.834 48.7959L61.5595 47.3212L61.5595 47.3212L61.834 48.7959ZM62.0996 48.752L62.338 50.2329L62.338 50.2329L62.0996 48.752ZM62.3438 48.7129L62.1384 47.227L62.1384 47.227L62.3438 48.7129ZM62.6719 48.6748L62.8329 50.1661L62.8329 50.1661L62.6719 48.6748ZM62.8145 48.6582L62.6727 47.1649L62.6726 47.1649L62.8145 48.6582ZM62.8164 48.6592L62.1456 50.0008L62.4623 50.1592H62.8164V48.6592ZM62.8174 48.6592V50.1592L63.2917 47.2362L62.8174 48.6592ZM62.8789 48.6523L62.7458 47.1583L62.7458 47.1583L62.8789 48.6523ZM63.0205 48.6416L62.9064 47.1459V47.1459L63.0205 48.6416ZM63.4834 48.6152L63.5357 50.1143L64.3379 50.0863L64.7596 49.4034L63.4834 48.6152ZM75.2275 42.125L75.2593 40.6253L75.2434 40.625H75.2275V42.125ZM75.8271 42.1377L75.764 43.6364C75.9764 43.6453 76.1931 43.6616 76.4177 43.6828L76.5586 42.1895L76.6995 40.6961C76.4399 40.6716 76.1691 40.6508 75.8903 40.639L75.8271 42.1377ZM76.5586 42.1895L76.4177 43.6828C76.636 43.7034 76.8525 43.7296 77.0674 43.7613L77.2861 42.2773L77.5049 40.7934C77.2386 40.7541 76.9702 40.7216 76.6995 40.6961L76.5586 42.1895ZM77.2861 42.2773L77.0674 43.7613C77.2887 43.7939 77.5068 43.8319 77.7218 43.8754L78.0195 42.4053L78.3173 40.9351C78.0478 40.8805 77.7769 40.8335 77.5049 40.7934L77.2861 42.2773ZM78.0195 42.4053L77.7218 43.8754C77.7616 43.8835 77.801 43.8906 77.8179 43.8937C77.8408 43.8979 77.8449 43.8988 77.8446 43.8987L78.1572 42.4316L78.4698 40.9646C78.4239 40.9548 78.3821 40.9471 78.359 40.9429C78.3299 40.9375 78.3233 40.9363 78.3173 40.9351L78.0195 42.4053ZM78.1572 42.4316L77.8446 43.8987C78.0941 43.9519 78.3473 44.0168 78.61 44.0906L79.0156 42.6465L79.4212 41.2024C79.1184 41.1173 78.8002 41.035 78.4698 40.9646L78.1572 42.4316ZM79.0156 42.6465L78.61 44.0906C78.7506 44.1301 78.7657 44.132 78.8382 44.1538L79.2715 42.7178L79.7048 41.2817C79.6079 41.2525 79.4513 41.2108 79.4212 41.2024L79.0156 42.6465ZM79.2715 42.7178L78.8382 44.1538C79.2513 44.2785 79.6593 44.4284 80.0636 44.5989L80.6465 43.2168L81.2293 41.8347C80.7398 41.6282 80.2317 41.4407 79.7048 41.2817L79.2715 42.7178ZM80.6465 43.2168L80.0636 44.5989C80.2125 44.6617 80.3621 44.7289 80.5136 44.8L81.1514 43.4424L81.7892 42.0847C81.6075 41.9994 81.4209 41.9154 81.2293 41.8347L80.6465 43.2168ZM81.1514 43.4424L80.5136 44.8C80.6742 44.8755 80.8311 44.953 80.9844 45.0332L81.6797 43.7041L82.375 42.375C82.1805 42.2732 81.985 42.1768 81.7892 42.0847L81.1514 43.4424ZM81.6797 43.7041L80.9844 45.0332C82.5868 45.8715 83.9737 47.0472 85.0471 48.4622L86.2422 47.5557L87.4372 46.6491C86.0961 44.8811 84.3674 43.4173 82.375 42.375L81.6797 43.7041ZM86.2422 47.5557L85.0471 48.4622C85.1422 48.5876 85.2357 48.7166 85.3283 48.8493L86.5586 47.9912L87.7889 47.1331C87.6761 46.9713 87.5591 46.8097 87.4372 46.6491L86.2422 47.5557ZM86.5586 47.9912L85.3283 48.8493C85.3962 48.9468 85.4412 49.0102 85.4863 49.0782L86.7363 48.249L87.9863 47.4198C87.916 47.3138 87.8404 47.2069 87.7889 47.1331L86.5586 47.9912ZM86.7363 48.249L85.4863 49.0782C85.5984 49.2472 85.7077 49.4236 85.8166 49.6081L87.1084 48.8457L88.4002 48.0833C88.2706 47.8637 88.1333 47.6414 87.9863 47.4198L86.7363 48.249ZM87.1084 48.8457L85.8166 49.6081C85.8867 49.7268 85.9447 49.8258 85.9979 49.9226L87.3125 49.2002L88.6271 48.4778C88.5488 48.3354 88.4687 48.1993 88.4002 48.0833L87.1084 48.8457ZM87.3125 49.2002L85.9979 49.9226C86.1663 50.229 86.3216 50.5472 86.4654 50.8761L87.8398 50.2754L89.2143 49.6747C89.0373 49.2698 88.8425 48.8698 88.6271 48.4778L87.3125 49.2002ZM87.8398 50.2754L86.4654 50.8761C86.589 51.1589 86.7011 51.4416 86.7996 51.7257L88.2168 51.2344L89.634 50.743C89.5067 50.3757 89.3651 50.0197 89.2143 49.6747L87.8398 50.2754ZM88.2168 51.2344L86.7996 51.7258C86.9057 52.0319 86.9995 52.3425 87.0798 52.6572L88.5332 52.2861L89.9866 51.9151C89.8849 51.5168 89.7668 51.1259 89.634 50.743L88.2168 51.2344ZM88.5332 52.2861L87.0798 52.6571C87.0812 52.6625 87.0824 52.6672 87.0833 52.6707C87.0842 52.6741 87.0851 52.6775 87.0855 52.6791C87.0868 52.6839 87.0865 52.6829 87.0859 52.6805L88.54 52.3125L89.9942 51.9445C89.9914 51.9335 89.9888 51.9235 89.9877 51.9195C89.9862 51.9135 89.9863 51.9141 89.9866 51.9151L88.5332 52.2861ZM88.54 52.3125L88.5287 53.8125C92.6646 53.8437 95.9539 57.1284 95.9541 61.1104L97.4541 61.1104L98.9541 61.1103C98.9539 55.4208 94.2751 50.8558 88.5514 50.8125L88.54 52.3125ZM97.4541 61.1104H95.9541C95.9541 62.746 95.4041 64.255 94.4696 65.4743L95.6602 66.3867L96.8507 67.2992C98.1695 65.5785 98.9541 63.4333 98.9541 61.1104H97.4541ZM95.6602 66.3867L94.4696 65.4742C93.1218 67.2328 91.1844 68.4068 89.1259 68.3975L89.1191 69.8975L89.1124 71.3974C92.3501 71.4121 95.097 69.5872 96.8507 67.2992L95.6602 66.3867ZM89.1191 69.8975L89.1146 68.3975C85.1233 68.4094 69.7589 68.4092 63.877 68.4092V69.9092V71.4092C69.755 71.4092 85.1264 71.4094 89.1236 71.3975L89.1191 69.8975ZM63.877 69.9092L63.9 68.4094L63.5816 68.4045L63.5586 69.9043L63.5356 71.4041L63.8539 71.409L63.877 69.9092ZM63.5586 69.9043L63.6008 68.4049C63.5556 68.4036 63.5239 68.4016 63.4417 68.398L63.375 69.8965L63.3083 71.395C63.3483 71.3968 63.4389 71.4015 63.5164 71.4037L63.5586 69.9043ZM63.375 69.8965L63.4417 68.398C63.4104 68.3966 63.3898 68.3957 63.3689 68.3946L63.291 69.8926L63.2131 71.3906C63.2482 71.3924 63.2836 71.3939 63.3083 71.395L63.375 69.8965ZM63.291 69.8926L63.3689 68.3946C63.2218 68.387 63.0753 68.3759 62.9292 68.3616L62.7832 69.8545L62.6372 71.3474C62.8275 71.366 63.0195 71.3805 63.2131 71.3906L63.291 69.8926ZM62.7832 69.8545L62.9292 68.3616C62.9169 68.3604 62.9064 68.3595 62.8991 68.3589C62.8923 68.3583 62.8858 68.3578 62.8841 68.3577C62.8811 68.3575 62.8822 68.3575 62.8843 68.3577C62.8867 68.3579 62.8922 68.3584 62.8996 68.3591L62.749 69.8516L62.5984 71.344C62.6115 71.3453 62.6228 71.3463 62.6308 71.347C62.6386 71.3476 62.6454 71.3482 62.6481 71.3484C62.6521 71.3487 62.6513 71.3486 62.6502 71.3486C62.6486 71.3484 62.6438 71.348 62.6372 71.3474L62.7832 69.8545ZM62.749 69.8516L62.8996 68.3591C62.7554 68.3446 62.6121 68.3268 62.4697 68.3059L62.252 69.79L62.0342 71.2742C62.2209 71.3015 62.409 71.3249 62.5984 71.344L62.749 69.8516ZM62.252 69.79L62.4697 68.3059C62.4698 68.3059 62.4689 68.3058 62.4662 68.3054C62.4634 68.305 62.4599 68.3044 62.4544 68.3035C62.4457 68.3021 62.4254 68.2988 62.4055 68.2957L62.1777 69.7783L61.9499 71.2609C61.9548 71.2617 61.9593 71.2624 61.9753 71.265C61.9883 71.2671 62.01 71.2706 62.0342 71.2742L62.252 69.79ZM62.1777 69.7783L62.4055 68.2957C62.1156 68.2512 61.8309 68.194 61.5518 68.1245L61.1895 69.5801L60.8272 71.0357C61.1958 71.1274 61.5703 71.2026 61.9499 71.2609L62.1777 69.7783ZM61.1895 69.5801L61.5518 68.1245C61.5335 68.1199 61.5227 68.1173 61.5113 68.1144L61.1426 69.5684L60.7739 71.0223C60.7937 71.0274 60.8141 71.0324 60.8272 71.0357L61.1895 69.5801ZM61.1426 69.5684L61.5113 68.1144C61.3709 68.0788 61.2315 68.04 61.0931 67.998L60.6582 69.4336L60.2233 70.8692C60.4048 70.9241 60.5883 70.9753 60.7739 71.0223L61.1426 69.5684ZM60.6582 69.4336L61.0931 67.998C61.096 67.9989 61.0978 67.9995 61.098 67.9995C61.0981 67.9996 61.0976 67.9994 61.0951 67.9986C61.0933 67.9981 61.0889 67.9967 61.0845 67.9953C61.0798 67.9938 61.0735 67.9918 61.0662 67.9896L60.627 69.4238L60.1877 70.8581C60.1856 70.8574 60.1845 70.8571 60.185 70.8572C60.1858 70.8575 60.1866 70.8577 60.19 70.8588C60.1948 70.8603 60.2081 70.8646 60.2233 70.8692L60.6582 69.4336ZM60.627 69.4238L61.0662 67.9896C60.9355 67.9496 60.8055 67.9065 60.676 67.8606L60.1748 69.2744L59.6737 70.6882C59.8426 70.7481 60.014 70.8049 60.1877 70.8581L60.627 69.4238ZM60.1748 69.2744L60.676 67.8606C60.6359 67.8464 60.6214 67.8414 60.6001 67.8337L60.0869 69.2432L59.5737 70.6526C59.6108 70.6662 59.6551 70.6816 59.6737 70.6882L60.1748 69.2744ZM60.0869 69.2432L60.6001 67.8337C60.4759 67.7885 60.3568 67.7427 60.2419 67.6956L59.6719 69.083L59.1018 70.4705C59.2607 70.5358 59.4185 70.5961 59.5737 70.6526L60.0869 69.2432ZM59.6719 69.083L60.2419 67.6956C60.2029 67.6795 60.2504 67.6986 60.1611 67.6609L59.5781 69.043L58.9951 70.425C59.0027 70.4282 59.0094 70.4311 59.0295 70.4398C59.0461 70.447 59.0724 70.4584 59.1018 70.4705L59.6719 69.083ZM59.5781 69.043L60.1611 67.6609C59.9074 67.5539 59.6609 67.4374 59.4222 67.3113L58.7217 68.6377L58.0212 69.9641C58.3392 70.132 58.6643 70.2855 58.9951 70.425L59.5781 69.043ZM58.7217 68.6377L59.4222 67.3113C59.4052 67.3024 59.4159 67.3078 59.3767 67.2868L58.6689 68.6094L57.9612 69.9319C57.9669 69.9349 57.9716 69.9375 57.9828 69.9436C57.9923 69.9487 58.0061 69.9561 58.0212 69.9641L58.7217 68.6377ZM58.6689 68.6094L59.3767 67.2868C59.2572 67.2229 59.1413 67.1579 59.0287 67.0914L58.2656 68.3828L57.5025 69.6742C57.6551 69.7644 57.8083 69.8501 57.9612 69.9319L58.6689 68.6094ZM58.2656 68.3828L59.0287 67.0914C58.9935 67.0706 58.9932 67.0707 58.9773 67.0611L58.2061 68.3477L57.4348 69.6342C57.4584 69.6483 57.498 69.6715 57.5025 69.6742L58.2656 68.3828ZM58.2061 68.3477L58.9773 67.0611C58.8631 66.9926 58.7494 66.921 58.6362 66.8463L57.8105 68.0986L56.9849 69.351C57.1315 69.4476 57.2814 69.5422 57.4348 69.6342L58.2061 68.3477ZM57.8105 68.0986L58.6362 66.8463C58.6365 66.8465 58.635 66.8455 58.6269 66.84C58.6211 66.8361 58.6067 66.8263 58.5924 66.8168L57.7598 68.0645L56.9271 69.3121C56.9298 69.3139 56.9323 69.3156 56.9434 69.3231C56.9521 69.3291 56.9676 69.3395 56.9849 69.351L57.8105 68.0986ZM57.7598 68.0645L58.5924 66.8168C58.3618 66.6629 58.1387 66.4993 57.9237 66.3266L56.9844 67.4961L56.0451 68.6656C56.329 68.8936 56.6232 69.1093 56.9271 69.3121L57.7598 68.0645ZM56.9844 67.4961L57.9237 66.3266C57.9085 66.3144 57.8954 66.3042 57.8862 66.2972C57.8777 66.2907 57.8695 66.2845 57.8674 66.2829C57.8636 66.28 57.865 66.2811 57.8676 66.2831C57.8705 66.2854 57.8774 66.2907 57.8865 66.2981L56.9414 67.4629L55.9963 68.6277C56.0124 68.6408 56.0264 68.6517 56.0366 68.6595C56.0463 68.667 56.055 68.6735 56.0584 68.6761C56.0634 68.68 56.0625 68.6792 56.0612 68.6782C56.0592 68.6767 56.0532 68.6721 56.0451 68.6656L56.9844 67.4961ZM56.9414 67.4629L57.8865 66.2981C57.7923 66.2216 57.6965 66.1397 57.5962 66.0513L56.6045 67.1768L55.6128 68.3022C55.7335 68.4085 55.8615 68.5183 55.9963 68.6277L56.9414 67.4629ZM56.6045 67.1768L57.5962 66.0513C57.5663 66.025 57.5431 66.0046 57.5212 65.9849L56.5176 67.0996L55.5139 68.2144C55.5496 68.2465 55.5845 68.2772 55.6128 68.3022L56.6045 67.1768ZM56.5176 67.0996L57.5212 65.9849C57.4216 65.8952 57.3303 65.8106 57.2451 65.7275L56.1973 66.8008L55.1494 67.8741C55.2732 67.9949 55.3964 68.1085 55.5139 68.2144L56.5176 67.0996ZM56.1973 66.8008L57.2451 65.7275C57.2534 65.7356 57.2594 65.7417 57.2619 65.7443C57.2641 65.7465 57.2652 65.7476 57.2617 65.744C57.2597 65.7419 57.2524 65.7343 57.2448 65.7265C57.2366 65.718 57.2248 65.7059 57.2107 65.692L56.1572 66.7598L55.1037 67.8275C55.0964 67.8203 55.0913 67.8151 55.0898 67.8135C55.0888 67.8125 55.0881 67.8118 55.0927 67.8166C55.0959 67.8199 55.1036 67.828 55.1124 67.837C55.1215 67.8464 55.1343 67.8593 55.1494 67.8741L56.1973 66.8008ZM56.1572 66.7598L57.2107 65.692C57.0232 65.507 56.8447 65.3159 56.6759 65.1186L55.5361 66.0938L54.3964 67.0689C54.6223 67.3329 54.8586 67.5857 55.1037 67.8275L56.1572 66.7598ZM55.5361 66.0938L56.6759 65.1186C56.6535 65.0924 56.6304 65.0647 56.6003 65.0286L55.4482 65.9893L54.2962 66.9499C54.3244 66.9837 54.3596 67.0259 54.3964 67.0689L55.5361 66.0938ZM55.4482 65.9893L56.5871 65.0131L56.5754 64.9994L55.4365 65.9756L54.2976 66.9518L54.3094 66.9654L55.4482 65.9893ZM55.4365 65.9756L56.6072 65.0377L56.3279 64.6891L55.1572 65.627L53.9866 66.5648L54.2659 66.9134L55.4365 65.9756ZM55.1572 65.627L56.3498 64.7171C56.272 64.6152 56.1938 64.5063 56.1115 64.3879L54.8799 65.2441L53.6483 66.1004C53.7459 66.2408 53.8513 66.3882 53.9647 66.5368L55.1572 65.627ZM54.8799 65.2441L56.1115 64.3879C56.0824 64.346 56.0916 64.357 56.0261 64.2594L54.7803 65.0947L53.5344 65.9301C53.5356 65.9319 53.6091 66.044 53.6483 66.1004L54.8799 65.2441ZM54.7803 65.0947L56.0261 64.2594C55.9619 64.1635 55.9159 64.0951 55.8733 64.0272L54.6025 64.8242L53.3318 65.6213C53.4039 65.7362 53.4785 65.8467 53.5344 65.9301L54.7803 65.0947ZM54.6025 64.8242L55.8733 64.0272C55.8501 63.9903 55.851 63.9897 55.8005 63.9063L54.5176 64.6836L53.2347 65.4609C53.2409 65.4712 53.2968 65.5654 53.3318 65.6213L54.6025 64.8242ZM54.5176 64.6836L55.8005 63.9063C55.7525 63.8272 55.7076 63.7511 55.6655 63.6767L54.3604 64.416L53.0552 65.1553C53.1151 65.2611 53.1754 65.3631 53.2347 65.4609L54.5176 64.6836ZM54.3604 64.416L55.6655 63.6767C55.6329 63.6191 55.6041 63.5676 55.5775 63.5184L54.2578 64.2314L52.9381 64.9445C52.9785 65.0192 53.0184 65.0904 53.0552 65.1553L54.3604 64.416ZM54.2578 64.2314L55.5775 63.5184C55.5402 63.4493 55.5045 63.3814 55.4703 63.3141L54.1328 63.9932L52.7954 64.6723C52.8425 64.765 52.8902 64.8558 52.9381 64.9445L54.2578 64.2314ZM54.1328 63.9932L55.4703 63.314C55.4427 63.2598 55.4147 63.2026 55.3849 63.1407L54.0332 63.791L52.6815 64.4413C52.7169 64.5149 52.7549 64.5926 52.7954 64.6723L54.1328 63.9932ZM54.0332 63.791L55.3849 63.1407C55.3538 63.0761 55.3223 63.0068 55.2854 62.9248L53.917 63.5391L52.5485 64.1534C52.5876 64.2403 52.6324 64.3393 52.6815 64.4413L54.0332 63.791ZM53.917 63.5391L55.2854 62.9248C55.2481 62.8416 55.2345 62.813 55.2158 62.7692L53.8359 63.3574L52.4561 63.9456C52.4895 64.0239 52.5316 64.1156 52.5485 64.1534L53.917 63.5391ZM53.8359 63.3574L55.2158 62.7692C55.173 62.6688 55.1316 62.566 55.0912 62.4606L53.6904 62.9971L52.2896 63.5335C52.3421 63.6705 52.3974 63.808 52.4561 63.9456L53.8359 63.3574ZM53.6904 62.9971L55.0912 62.4606C55.0847 62.4436 55.0788 62.4286 55.0742 62.4171C55.0699 62.4065 55.0653 62.3953 55.0632 62.3901C55.0572 62.3752 55.0584 62.3778 55.0609 62.3846L53.6553 62.9082L52.2496 63.4318C52.2633 63.4685 52.2763 63.5007 52.2823 63.5153C52.2905 63.5356 52.2902 63.5349 52.2896 63.5335L53.6904 62.9971ZM53.6553 62.9082L55.0609 62.3846C55.0123 62.2542 54.9664 62.121 54.923 61.985L53.4941 62.4414L52.0653 62.8978C52.1222 63.0762 52.1835 63.2543 52.2496 63.4318L53.6553 62.9082ZM53.4941 62.4414L54.923 61.985C54.9236 61.9869 54.9229 61.9848 54.9177 61.967C54.9141 61.9544 54.9047 61.9218 54.8948 61.8897L53.4609 62.3301L52.027 62.7705C52.0285 62.7754 52.0299 62.78 52.037 62.8046C52.0427 62.824 52.0529 62.859 52.0653 62.8978L53.4941 62.4414ZM53.4609 62.3301L54.8948 61.8897C54.8601 61.7767 54.8292 61.6709 54.802 61.5688L53.3525 61.9551L51.9031 62.3413C51.9431 62.4913 51.9855 62.6352 52.027 62.7705L53.4609 62.3301ZM53.3525 61.9551L54.802 61.5688C54.7918 61.5308 54.7964 61.545 54.7737 61.4551L53.3193 61.8223L51.865 62.1894C51.8689 62.205 51.8719 62.2176 51.8789 62.2461C51.8849 62.2704 51.8933 62.3043 51.9031 62.3413L53.3525 61.9551ZM53.3193 61.8223L54.7737 61.4551C54.7477 61.352 54.7245 61.2552 54.7043 61.1618L53.2383 61.4795L51.7723 61.7971C51.8019 61.9338 51.8336 62.0653 51.865 62.1894L53.3193 61.8223ZM53.2383 61.4795L54.7043 61.1618C54.6927 61.1087 54.6822 61.0541 54.6668 60.9746L53.1943 61.2607L51.7219 61.5469C51.7348 61.6136 51.7524 61.7051 51.7723 61.7971L53.2383 61.4795ZM53.1943 61.2607L54.6668 60.9746C54.6531 60.9041 54.6405 60.8358 54.6292 60.769L53.1504 61.0205L51.6716 61.272C51.6876 61.3661 51.7046 61.4578 51.7219 61.5469L53.1943 61.2607ZM53.1504 61.0205L54.6292 60.769C54.6157 60.6897 54.6039 60.6174 54.594 60.5483L53.1094 60.7627L51.6248 60.9771C51.6397 61.0807 51.656 61.1801 51.6716 61.272L53.1504 61.0205ZM53.1094 60.7627L54.594 60.5483C54.5831 60.4731 54.5734 60.3928 54.5623 60.2974L53.0723 60.4697L51.5822 60.642C51.5938 60.7427 51.6076 60.8578 51.6248 60.9771L53.1094 60.7627ZM53.0723 60.4697L54.5623 60.2974C54.5533 60.219 54.5495 60.1914 54.5454 60.1502L53.0527 60.2979L51.56 60.4455C51.5673 60.5193 51.578 60.606 51.5822 60.642L53.0723 60.4697ZM53.0527 60.2979L54.5454 60.1502C54.534 60.0345 54.5247 59.9191 54.5178 59.8036L53.0205 59.8936L51.5232 59.9835C51.5325 60.139 51.5449 60.293 51.56 60.4455L53.0527 60.2979ZM53.0205 59.8936L54.5178 59.8036C54.5146 59.7502 54.5132 59.7319 54.5119 59.7039L53.0137 59.7773L51.5155 59.8508C51.5179 59.9004 51.5218 59.9596 51.5232 59.9835L53.0205 59.8936ZM53.0137 59.7773L54.5119 59.7039C54.5044 59.5505 54.5 59.4028 54.5 59.2587L53 59.2588L51.5 59.2588C51.5 59.4626 51.5061 59.6605 51.5155 59.8508L53.0137 59.7773ZM53 59.2588H54.5C54.5 59.1058 54.5035 58.9552 54.5109 58.8077L53.0127 58.7334L51.5145 58.6591C51.5046 58.8595 51.5 59.0597 51.5 59.2588H53ZM53.0127 58.7334L54.5109 58.8077C54.5145 58.7343 54.5141 58.7857 54.5265 58.6126L53.0303 58.5059L51.5341 58.3992C51.5324 58.4229 51.5305 58.4425 51.5264 58.4914C51.5228 58.5326 51.5178 58.5928 51.5145 58.6591L53.0127 58.7334ZM53.0303 58.5059L54.5265 58.6126C54.5365 58.4719 54.5374 58.4323 54.5444 58.3623L53.0518 58.2139L51.5591 58.0655C51.5468 58.1892 51.538 58.3446 51.5341 58.3992L53.0303 58.5059ZM53.0518 58.2139L54.5444 58.3623C54.5502 58.3037 54.5556 58.2704 54.5698 58.1548L53.0811 57.9717L51.5923 57.7885C51.5867 57.8341 51.5694 57.9619 51.5591 58.0655L53.0518 58.2139ZM53.0811 57.9717L54.5698 58.1548C54.5825 58.0522 54.59 57.9881 54.5997 57.9231L53.1162 57.7012L51.6327 57.4792C51.6156 57.5937 51.6019 57.7102 51.5923 57.7885L53.0811 57.9717ZM53.1162 57.7012L54.5997 57.9231C54.6089 57.8619 54.6176 57.8187 54.6376 57.7042L53.1602 57.4453L51.6827 57.1864C51.6729 57.2421 51.6492 57.3689 51.6327 57.4792L53.1162 57.7012ZM53.1602 57.4453L54.6376 57.7042C54.6562 57.5985 54.6634 57.5521 54.675 57.4943L53.2041 57.2002L51.7332 56.906C51.7123 57.0108 51.6929 57.1283 51.6827 57.1864L53.1602 57.4453ZM53.2041 57.2002L54.675 57.4943C54.6878 57.4302 54.7021 57.3695 54.7254 57.2671L53.2627 56.9346L51.8 56.602C51.7832 56.6762 51.756 56.792 51.7332 56.906L53.2041 57.2002ZM53.2627 56.9346L54.7254 57.2671C54.7499 57.1592 54.7577 57.12 54.7719 57.064L53.3174 56.6973L51.8629 56.3306C51.8374 56.4317 51.8115 56.5513 51.8 56.602L53.2627 56.9346ZM53.3174 56.6973L54.7719 57.064C54.7854 57.0102 54.792 56.9918 54.8232 56.8786L53.377 56.4805L51.9307 56.0824C51.9222 56.1135 51.886 56.2388 51.8629 56.3306L53.3174 56.6973ZM53.377 56.4805L54.8232 56.8786C54.8525 56.7719 54.8696 56.7078 54.8897 56.642L53.4551 56.2041L52.0204 55.7662C51.9847 55.8833 51.9523 56.0042 51.9307 56.0824L53.377 56.4805ZM53.4551 56.2041L54.8897 56.642C54.9057 56.5896 54.9235 56.5354 54.9475 56.4623L53.5225 55.9941L52.0974 55.5259C52.0756 55.5924 52.0474 55.6778 52.0204 55.7662L53.4551 56.2041ZM53.5225 55.9941L54.9475 56.4623C54.9749 56.379 54.997 56.3124 55.0193 56.25L53.6064 55.7461L52.1936 55.2422C52.1573 55.3441 52.1246 55.4432 52.0974 55.5259L53.5225 55.9941ZM53.6064 55.7461L55.0193 56.25C55.04 56.192 55.0619 56.1357 55.0964 56.0461L53.6963 55.5078L52.2962 54.9696C52.2698 55.0383 52.23 55.1401 52.1936 55.2422L53.6064 55.7461ZM53.6963 55.5078L55.0964 56.0461C55.1327 55.9515 55.1551 55.8923 55.1798 55.8327L53.7939 55.2588L52.4081 54.6849C52.3646 54.7899 52.3239 54.8974 52.2962 54.9696L53.6963 55.5078ZM53.7939 55.2588L55.1798 55.8327C55.1995 55.7852 55.2139 55.7545 55.2536 55.6638L53.8799 55.0615L52.5061 54.4592C52.4883 54.4998 52.4433 54.5998 52.4081 54.6849L53.7939 55.2588ZM53.8799 55.0615L55.2536 55.6638C55.289 55.5831 55.3179 55.518 55.3464 55.4571L53.9883 54.8203L52.6302 54.1835C52.5839 54.2822 52.5416 54.3783 52.5061 54.4592L53.8799 55.0615ZM53.9883 54.8203L55.3464 55.4571C55.378 55.3897 55.4117 55.3207 55.4477 55.2487L54.1064 54.5771L52.7652 53.9056C52.7205 53.9947 52.6752 54.0876 52.6302 54.1835L53.9883 54.8203ZM54.1064 54.5771L55.4477 55.2487C55.4851 55.174 55.5082 55.1274 55.533 55.0803L54.2061 54.3809L52.8791 53.6814C52.8355 53.7641 52.7935 53.849 52.7652 53.9056L54.1064 54.5771ZM54.2061 54.3809L55.533 55.0803C55.5654 55.0188 55.6011 54.9548 55.6462 54.8743L54.3379 54.1406L53.0296 53.407C52.9854 53.4857 52.932 53.5812 52.8791 53.6814L54.2061 54.3809ZM54.3379 54.1406L55.6462 54.8743C55.6845 54.806 55.7146 54.7526 55.7442 54.7024L54.4521 53.9404L53.1601 53.1784C53.1116 53.2606 53.0664 53.3412 53.0296 53.407L54.3379 54.1406ZM54.4521 53.9404L55.7442 54.7024C55.7777 54.6455 55.8143 54.586 55.8566 54.5181L54.583 53.7256L53.3094 52.9331C53.2631 53.0075 53.2118 53.0908 53.1601 53.1784L54.4521 53.9404ZM54.583 53.7256L55.8566 54.5181C55.8963 54.4543 55.9349 54.3936 55.9731 54.3352L54.7188 53.5127L53.4644 52.6902C53.4103 52.7726 53.3587 52.8539 53.3094 52.9331L54.583 53.7256ZM54.7188 53.5127L55.9731 54.3352C56.0089 54.2806 56.0468 54.2245 56.0873 54.1658L54.8516 53.3154L53.6159 52.4651C53.5664 52.5369 53.5155 52.6122 53.4644 52.6902L54.7188 53.5127ZM54.8516 53.3154L56.0873 54.1658C56.1257 54.1099 56.1672 54.0517 56.214 53.987L54.999 53.1074L53.784 52.2278C53.7312 52.3008 53.6738 52.3809 53.6159 52.4651L54.8516 53.3154ZM54.999 53.1074L56.214 53.987C56.26 53.9236 56.3018 53.8666 56.3425 53.8132L55.1484 52.9053L53.9544 51.9973C53.8936 52.0773 53.8364 52.1555 53.784 52.2278L54.999 53.1074ZM55.1484 52.9053L56.3425 53.8132C56.384 53.7586 56.4262 53.7043 56.4693 53.6503L55.2959 52.7158L54.1225 51.7814C54.0658 51.8526 54.0098 51.9245 53.9544 51.9973L55.1484 52.9053ZM55.2959 52.7158L56.4693 53.6503C56.5164 53.5911 56.5586 53.5387 56.5995 53.4897L55.4473 52.5293L54.2951 51.5688C54.2333 51.6429 54.1752 51.7152 54.1225 51.7814L55.2959 52.7158ZM55.4473 52.5293L56.5995 53.4897C56.6476 53.432 56.6974 53.3739 56.7491 53.3149L55.6211 52.3262L54.4931 51.3374C54.4272 51.4125 54.3611 51.4897 54.2951 51.5688L55.4473 52.5293ZM55.6211 52.3262L56.7491 53.3149C56.7963 53.261 56.8402 53.2117 56.8827 53.1653L55.7764 52.1523L54.67 51.1394C54.6076 51.2076 54.5483 51.2745 54.4931 51.3374L55.6211 52.3262ZM55.7764 52.1523L56.8827 53.1653C56.9294 53.1143 56.9799 53.0614 57.0417 52.9972L55.9609 51.957L54.8801 50.9169C54.8177 50.9817 54.7443 51.0583 54.67 51.1394L55.7764 52.1523ZM55.9609 51.957L57.0417 52.9972C57.0944 52.9425 57.1335 52.9018 57.172 52.8633L56.1123 51.8018L55.0526 50.7402C54.9887 50.8039 54.9277 50.8674 54.8801 50.9169L55.9609 51.957ZM56.1123 51.8018L57.172 52.8633C57.2239 52.8115 57.2793 52.7581 57.3404 52.7002L56.3076 51.6123L55.2749 50.5244C55.2043 50.5914 55.129 50.6638 55.0526 50.7402L56.1123 51.8018ZM56.3076 51.6123L57.3404 52.7002C57.395 52.6483 57.4435 52.6028 57.4901 52.5604L56.4814 51.4502L55.4728 50.34C55.4021 50.4042 55.3351 50.4672 55.2749 50.5244L56.3076 51.6123ZM56.4814 51.4502L57.4901 52.5604C57.5369 52.5179 57.5851 52.4764 57.6561 52.4149L56.6738 51.2812L55.6916 50.1476C55.6335 50.1979 55.5523 50.2677 55.4728 50.34L56.4814 51.4502ZM56.6738 51.2812L57.6561 52.4149C57.7194 52.3601 57.7633 52.3218 57.8075 52.2852L56.8496 51.1309L55.8917 49.9765C55.8171 50.0384 55.7448 50.1015 55.6916 50.1476L56.6738 51.2812ZM56.8496 51.1309L57.8075 52.2852C57.8723 52.2314 57.9417 52.1762 58.0197 52.1152L57.0957 50.9336L56.1717 49.752C56.0839 49.8206 55.9887 49.8961 55.8917 49.9765L56.8496 51.1309ZM57.0957 50.9336L58.0197 52.1152C58.1207 52.0362 58.0877 52.0598 58.1316 52.0265L57.2256 50.8311L56.3196 49.6356C56.2813 49.6646 56.2471 49.6919 56.2238 49.7104C56.1962 49.7325 56.185 49.7415 56.1717 49.752L57.0957 50.9336ZM57.2256 50.8311L58.1316 52.0265C58.1952 51.9784 58.2631 51.9298 58.3515 51.8667L57.4805 50.6455L56.6094 49.4243C56.5266 49.4834 56.4234 49.5569 56.3196 49.6356L57.2256 50.8311ZM57.4805 50.6455L58.3515 51.8667C58.4404 51.8033 58.4524 51.7932 58.4954 51.7637L57.6475 50.5264L56.7995 49.289C56.7297 49.3369 56.6318 49.4083 56.6094 49.4243L57.4805 50.6455ZM57.6475 50.5264L58.4954 51.7637C58.5475 51.728 58.5843 51.7055 58.6834 51.641L57.8652 50.3838L57.0471 49.1266C57.0007 49.1568 56.8905 49.2267 56.7995 49.289L57.6475 50.5264ZM57.8652 50.3838L58.6834 51.641C58.7688 51.5854 58.8076 51.5593 58.8568 51.5288L58.0664 50.2539L57.276 48.9791C57.1895 49.0327 57.0954 49.0951 57.0471 49.1266L57.8652 50.3838ZM58.0664 50.2539L58.8568 51.5288C58.9119 51.4946 58.9619 51.4661 59.0558 51.411L58.2969 50.1172L57.538 48.8233C57.4776 48.8587 57.3726 48.9192 57.276 48.9791L58.0664 50.2539ZM58.2969 50.1172L59.0558 51.411C59.1694 51.3444 59.1743 51.3393 59.2274 51.3096L58.4961 50L57.7647 48.6904C57.6832 48.7359 57.5571 48.8121 57.538 48.8233L58.2969 50.1172ZM58.4961 50L59.2274 51.3096C59.3102 51.2634 59.3988 51.2175 59.5107 51.1599L58.8242 49.8262L58.1378 48.4925C58.0293 48.5483 57.8979 48.616 57.7647 48.6904L58.4961 50ZM58.8242 49.8262L59.5107 51.1599C59.5391 51.1452 59.568 51.1298 59.5804 51.1232C59.5884 51.119 59.5934 51.1164 59.5974 51.1143C59.6012 51.1123 59.6026 51.1116 59.6024 51.1117L58.9307 49.7705L58.2589 48.4293C58.224 48.4468 58.1929 48.4633 58.1743 48.4732C58.1513 48.4854 58.1449 48.4888 58.1378 48.4925L58.8242 49.8262ZM58.9307 49.7705L59.6024 51.1117C59.9939 50.9156 60.4008 50.7456 60.8208 50.6044L60.3428 49.1826L59.8647 47.7608C59.3102 47.9473 58.7739 48.1714 58.2589 48.4293L58.9307 49.7705ZM60.3428 49.1826L60.8208 50.6044C60.8783 50.5851 60.8561 50.5943 60.9887 50.5525L60.5371 49.1221L60.0855 47.6917C60.0629 47.6988 60.0442 47.7043 60.0029 47.7169C59.9676 47.7277 59.9182 47.7428 59.8647 47.7608L60.3428 49.1826ZM60.5371 49.1221L60.9887 50.5525C61.0999 50.5174 61.1663 50.4958 61.2373 50.4755L60.8252 49.0332L60.4131 47.5909C60.2905 47.6259 60.1657 47.6663 60.0855 47.6917L60.5371 49.1221ZM60.8252 49.0332L61.2373 50.4755C61.3054 50.456 61.3704 50.4399 61.4801 50.4117L61.1064 48.959L60.7328 47.5063C60.6543 47.5265 60.5312 47.5572 60.4131 47.5909L60.8252 49.0332ZM61.1064 48.959L61.4801 50.4117C61.5762 50.387 61.613 50.3766 61.6656 50.3642L61.3213 48.9043L60.977 47.4443C60.8855 47.4659 60.7796 47.4942 60.7328 47.5063L61.1064 48.959ZM61.3213 48.9043L61.6656 50.3642C61.7316 50.3487 61.7861 50.3383 61.9027 50.314L61.5957 48.8457L61.2888 47.3774C61.2218 47.3914 61.0927 47.4171 60.977 47.4443L61.3213 48.9043ZM61.5957 48.8457L61.9027 50.314C62.0276 50.2878 62.0476 50.2819 62.1084 50.2706L61.834 48.7959L61.5595 47.3212C61.4606 47.3396 61.3224 47.3704 61.2887 47.3774L61.5957 48.8457ZM61.834 48.7959L62.1084 50.2706C62.1725 50.2586 62.2268 50.2508 62.338 50.2329L62.0996 48.752L61.8612 47.271C61.7949 47.2817 61.6715 47.3004 61.5595 47.3212L61.834 48.7959ZM62.0996 48.752L62.338 50.2329C62.4591 50.2134 62.4879 50.2072 62.5491 50.1988L62.3438 48.7129L62.1384 47.227C62.036 47.2412 61.9025 47.2644 61.8612 47.271L62.0996 48.752ZM62.3438 48.7129L62.5491 50.1988C62.6298 50.1876 62.7103 50.1794 62.8329 50.1661L62.6719 48.6748L62.5108 47.1835C62.4138 47.1939 62.2753 47.2081 62.1384 47.227L62.3438 48.7129ZM62.6719 48.6748L62.8329 50.1661C62.8716 50.162 62.911 50.1569 62.9276 50.1549C62.9383 50.1536 62.945 50.1528 62.9502 50.1522C62.9551 50.1516 62.9568 50.1514 62.9563 50.1515L62.8145 48.6582L62.6726 47.1649C62.6257 47.1694 62.5834 47.1746 62.5586 47.1777C62.5277 47.1815 62.5196 47.1825 62.5108 47.1835L62.6719 48.6748ZM62.8145 48.6582L62.1436 49.9998L62.1456 50.0008L62.8164 48.6592L63.4872 47.3175L63.4853 47.3166L62.8145 48.6582ZM62.8164 48.6592V50.1592H62.8174V48.6592V47.1592H62.8164V48.6592ZM62.8174 48.6592L63.2917 47.2362L63.2888 47.2352L62.8145 48.6582L62.3401 50.0812L62.343 50.0822L62.8174 48.6592ZM62.8145 48.6582L62.9563 50.1515C62.9725 50.1499 62.9891 50.1485 63.012 50.1464L62.8789 48.6523L62.7458 47.1583C62.7257 47.1601 62.6994 47.1624 62.6727 47.1649L62.8145 48.6582ZM62.8789 48.6523L63.012 50.1464C63.0488 50.1432 63.0571 50.1432 63.1346 50.1373L63.0205 48.6416L62.9064 47.1459C62.8894 47.1472 62.8032 47.1531 62.7458 47.1583L62.8789 48.6523ZM63.0205 48.6416L63.1346 50.1373C63.2719 50.1268 63.4053 50.1189 63.5357 50.1143L63.4834 48.6152L63.4311 47.1161C63.2513 47.1224 63.0759 47.133 62.9064 47.1459L63.0205 48.6416ZM63.4834 48.6152L64.7596 49.4034C66.8948 45.9461 70.7781 43.625 75.2275 43.625V42.125V40.625C69.7147 40.625 64.8765 43.5049 62.2072 47.8271L63.4834 48.6152ZM75.2275 42.125L75.1958 43.6247L75.7954 43.6374L75.8271 42.1377L75.8589 40.638L75.2593 40.6253L75.2275 42.125Z" fill="#8040BF" mask="url(#path-13-inside-1_10774_83641)"/>
<path d="M96.5 55.75H81.5C81.1022 55.75 80.7206 55.908 80.4393 56.1893C80.158 56.4706 80 56.8522 80 57.25V62.5C80 67.4425 82.3925 70.4378 84.3997 72.0803C86.5616 73.8484 88.7122 74.4484 88.8059 74.4738C88.9348 74.5088 89.0708 74.5088 89.1997 74.4738C89.2934 74.4484 91.4413 73.8484 93.6059 72.0803C95.6075 70.4378 98 67.4425 98 62.5V57.25C98 56.8522 97.842 56.4706 97.5607 56.1893C97.2794 55.908 96.8978 55.75 96.5 55.75Z" fill="white"/>
<path d="M96.5 55.75H81.5C81.1022 55.75 80.7206 55.908 80.4393 56.1893C80.158 56.4706 80 56.8522 80 57.25V62.5C80 67.4425 82.3925 70.4378 84.3997 72.0803C86.5616 73.8484 88.7122 74.4484 88.8059 74.4738C88.9348 74.5088 89.0708 74.5088 89.1997 74.4738C89.2934 74.4484 91.4413 73.8484 93.6059 72.0803C95.6075 70.4378 98 67.4425 98 62.5V57.25C98 56.8522 97.842 56.4706 97.5607 56.1893C97.2794 55.908 96.8978 55.75 96.5 55.75ZM93.2825 62.2806L88.0325 67.5306C87.9628 67.6004 87.8801 67.6557 87.7891 67.6934C87.698 67.7312 87.6004 67.7506 87.5019 67.7506C87.4033 67.7506 87.3057 67.7312 87.2147 67.6934C87.1236 67.6557 87.0409 67.6004 86.9713 67.5306L84.7213 65.2806C84.5805 65.1399 84.5015 64.949 84.5015 64.75C84.5015 64.551 84.5805 64.3601 84.7213 64.2194C84.862 64.0786 85.0529 63.9996 85.2519 63.9996C85.4509 63.9996 85.6418 64.0786 85.7825 64.2194L87.5 65.9397L92.2194 61.2194C92.2891 61.1497 92.3718 61.0944 92.4628 61.0567C92.5539 61.019 92.6515 60.9996 92.75 60.9996C92.8485 60.9996 92.9461 61.019 93.0372 61.0567C93.1282 61.0944 93.2109 61.1497 93.2806 61.2194C93.3503 61.2891 93.4056 61.3718 93.4433 61.4628C93.481 61.5539 93.5004 61.6515 93.5004 61.75C93.5004 61.8485 93.481 61.9461 93.4433 62.0372C93.4056 62.1282 93.3503 62.2109 93.2806 62.2806H93.2825Z" fill="#196742"/>
</g>
</g>
</g>
</g>
<defs>
<filter id="filter0_di_10774_83641" x="0" y="0" width="154" height="94" filterUnits="userSpaceOnUse" color-interpolation-filters="sRGB">
<feFlood flood-opacity="0" result="BackgroundImageFix"/>
<feColorMatrix in="SourceAlpha" type="matrix" values="0 0 0 0 0 0 0 0 0 0 0 0 0 0 0 0 0 0 127 0" result="hardAlpha"/>
<feOffset dy="1"/>
<feGaussianBlur stdDeviation="1"/>
<feComposite in2="hardAlpha" operator="out"/>
<feColorMatrix type="matrix" values="0 0 0 0 0 0 0 0 0 0 0 0 0 0 0 0 0 0 0.08 0"/>
<feBlend mode="normal" in2="BackgroundImageFix" result="effect1_dropShadow_10774_83641"/>
<feBlend mode="normal" in="SourceGraphic" in2="effect1_dropShadow_10774_83641" result="shape"/>
<feColorMatrix in="SourceAlpha" type="matrix" values="0 0 0 0 0 0 0 0 0 0 0 0 0 0 0 0 0 0 127 0" result="hardAlpha"/>
<feMorphology radius="2" operator="erode" in="SourceAlpha" result="effect2_innerShadow_10774_83641"/>
<feOffset/>
<feComposite in2="hardAlpha" operator="arithmetic" k2="-1" k3="1"/>
<feColorMatrix type="matrix" values="0 0 0 0 1 0 0 0 0 1 0 0 0 0 1 0 0 0 0.12 0"/>
<feBlend mode="normal" in2="shape" result="effect2_innerShadow_10774_83641"/>
</filter>
<linearGradient id="paint0_linear_10774_83641" x1="75" y1="0" x2="75" y2="90" gradientUnits="userSpaceOnUse">
<stop stop-color="#F6F0FF"/>
<stop offset="1" stop-color="white"/>
</linearGradient>
<linearGradient id="paint1_linear_10774_83641" x1="76.3243" y1="14.3929" x2="76.6193" y2="101.001" gradientUnits="userSpaceOnUse">
<stop stop-color="white"/>
<stop offset="1" stop-color="white" stop-opacity="0.02"/>
</linearGradient>
<linearGradient id="paint2_linear_10774_83641" x1="16" y1="1" x2="35.5" y2="55" gradientUnits="userSpaceOnUse">
<stop stop-color="#8040BF"/>
<stop offset="1" stop-color="white" stop-opacity="0.02"/>
</linearGradient>
<linearGradient id="paint3_linear_10774_83641" x1="75.2271" y1="42.125" x2="75.2271" y2="69.9092" gradientUnits="userSpaceOnUse">
<stop stop-color="#7339AC"/>
<stop offset="1" stop-color="#8040BF" stop-opacity="0.16"/>
</linearGradient>
<clipPath id="clip0_10774_83641">
<path d="M2 11C2 5.47715 6.47715 1 12 1H142C147.523 1 152 5.47715 152 11V81C152 86.5228 147.523 91 142 91H12C6.47715 91 2 86.5228 2 81V11Z" fill="white"/>
</clipPath>
<clipPath id="clip1_10774_83641">
<rect width="150" height="90" fill="white" transform="translate(2 1)"/>
</clipPath>
</defs>
</svg>
