<svg width="94" height="64" viewBox="0 0 94 64" fill="none" xmlns="http://www.w3.org/2000/svg">
<g filter="url(#filter0_di_10774_83727)">
<g clip-path="url(#clip0_10774_83727)">
<g clip-path="url(#clip1_10774_83727)">
<rect width="90" height="60" transform="translate(2 1)" fill="url(#paint0_linear_10774_83727)"/>
<mask id="mask0_10774_83727" style="mask-type:alpha" maskUnits="userSpaceOnUse" x="2" y="1" width="90" height="60">
<path d="M2 1H92V61H2V1Z" fill="url(#paint1_linear_10774_83727)"/>
</mask>
<g mask="url(#mask0_10774_83727)">
<path d="M12 1.5H82C87.2467 1.5 91.5 5.7533 91.5 11V51C91.5 56.2467 87.2467 60.5 82 60.5H12C6.7533 60.5 2.5 56.2467 2.5 51V11C2.5 5.7533 6.7533 1.5 12 1.5Z" stroke="url(#paint2_linear_10774_83727)"/>
<path d="M21 16C21 13.7909 22.7909 12 25 12H69C71.2091 12 73 13.7909 73 16V55C73 57.2091 71.2091 59 69 59H25C22.7909 59 21 57.2091 21 55V16Z" fill="#141217"/>
<path d="M25 12.5H69C70.933 12.5 72.5 14.067 72.5 16V55C72.5 56.933 70.933 58.5 69 58.5H25C23.067 58.5 21.5 56.933 21.5 55V16C21.5 14.067 23.067 12.5 25 12.5Z" stroke="#8040BF" stroke-opacity="0.4"/>
<rect x="31.4004" y="18" width="2" height="6.06667" rx="0.25" transform="rotate(90 31.4004 18)" fill="#8040BF"/>
<rect x="31.4004" y="23" width="3" height="6.06667" rx="0.25" transform="rotate(90 31.4004 23)" fill="#3A424A"/>
<rect x="31.4004" y="29" width="2" height="6.06667" rx="0.25" transform="rotate(90 31.4004 29)" fill="#3A424A"/>
<rect x="31.4004" y="34" width="3" height="6.06667" rx="0.25" transform="rotate(90 31.4004 34)" fill="#3A424A"/>
<rect x="31.4004" y="40" width="2" height="6.06667" rx="0.25" transform="rotate(90 31.4004 40)" fill="#3A424A"/>
<rect x="57.4004" y="18" width="2" height="22.5333" rx="0.25" transform="rotate(90 57.4004 18)" fill="#8040BF"/>
<rect x="57.4004" y="23" width="3" height="22.5333" rx="0.25" transform="rotate(90 57.4004 23)" fill="#3A424A"/>
<rect x="57.4004" y="29" width="2" height="22.5333" rx="0.25" transform="rotate(90 57.4004 29)" fill="#3A424A"/>
<rect x="57.4004" y="34" width="3" height="22.5333" rx="0.25" transform="rotate(90 57.4004 34)" fill="#3A424A"/>
<rect x="57.4004" y="40" width="2" height="22.5333" rx="0.25" transform="rotate(90 57.4004 40)" fill="#3A424A"/>
<rect x="70.4004" y="18" width="2" height="9.53333" rx="0.25" transform="rotate(90 70.4004 18)" fill="#8040BF"/>
<rect x="70.4004" y="23" width="3" height="9.53333" rx="0.25" transform="rotate(90 70.4004 23)" fill="#3A424A"/>
<rect x="70.4004" y="29" width="2" height="9.53333" rx="0.25" transform="rotate(90 70.4004 29)" fill="#3A424A"/>
<rect x="70.4004" y="34" width="3" height="9.53333" rx="0.25" transform="rotate(90 70.4004 34)" fill="#3A424A"/>
<rect x="70.4004" y="40" width="2" height="9.53333" rx="0.25" transform="rotate(90 70.4004 40)" fill="#3A424A"/>
<path d="M17 22C17 19.7909 18.7909 18 21 18H73C75.2091 18 77 19.7909 77 22V61C77 63.2091 75.2091 65 73 65H21C18.7909 65 17 63.2091 17 61V22Z" fill="#141217"/>
<path d="M21 18.5H73C74.933 18.5 76.5 20.067 76.5 22V61C76.5 62.933 74.933 64.5 73 64.5H21C19.067 64.5 17.5 62.933 17.5 61V22C17.5 20.067 19.067 18.5 21 18.5Z" stroke="#8040BF" stroke-opacity="0.4"/>
<rect x="28.8037" y="24" width="3" height="6.88525" rx="0.5" transform="rotate(90 28.8037 24)" fill="#8040BF"/>
<rect x="28.8037" y="29" width="3" height="6.88525" rx="0.5" transform="rotate(90 28.8037 29)" fill="#3A424A"/>
<rect x="28.8037" y="35" width="3" height="6.88525" rx="0.5" transform="rotate(90 28.8037 35)" fill="#3A424A"/>
<rect x="28.8037" y="40" width="3" height="6.88525" rx="0.5" transform="rotate(90 28.8037 40)" fill="#3A424A"/>
<rect x="28.8037" y="46" width="3" height="6.88525" rx="0.5" transform="rotate(90 28.8037 46)" fill="#3A424A"/>
<rect x="59.2949" y="24" width="3" height="26.5574" rx="0.5" transform="rotate(90 59.2949 24)" fill="#8040BF"/>
<rect x="59.2949" y="29" width="3" height="26.5574" rx="0.5" transform="rotate(90 59.2949 29)" fill="#3A424A"/>
<rect x="59.2949" y="35" width="3" height="26.5574" rx="0.5" transform="rotate(90 59.2949 35)" fill="#3A424A"/>
<rect x="59.2949" y="40" width="3" height="26.5574" rx="0.5" transform="rotate(90 59.2949 40)" fill="#3A424A"/>
<rect x="59.2949" y="46" width="3" height="26.5574" rx="0.5" transform="rotate(90 59.2949 46)" fill="#3A424A"/>
<rect x="74.0488" y="24" width="3" height="10.8197" rx="0.5" transform="rotate(90 74.0488 24)" fill="#8040BF"/>
<rect x="74.0488" y="29" width="3" height="10.8197" rx="0.5" transform="rotate(90 74.0488 29)" fill="#3A424A"/>
<rect x="74.0488" y="35" width="3" height="10.8197" rx="0.5" transform="rotate(90 74.0488 35)" fill="#3A424A"/>
<rect x="74.0488" y="40" width="3" height="10.8197" rx="0.5" transform="rotate(90 74.0488 40)" fill="#3A424A"/>
<rect x="74.0488" y="46" width="3" height="10.8197" rx="0.5" transform="rotate(90 74.0488 46)" fill="#3A424A"/>
<g clip-path="url(#clip2_10774_83727)">
<path d="M12 28C12 25.7909 13.7909 24 16 24H78C80.2091 24 82 25.7909 82 28V67C82 69.2091 80.2091 71 78 71H16C13.7909 71 12 69.2091 12 67V28Z" fill="#141217"/>
<mask id="path-40-inside-1_10774_83727" fill="white">
<path d="M46.25 34C46.6811 34 47.1051 34.0312 47.5195 34.0898C47.653 34.1087 47.7855 34.1306 47.917 34.1553C48.0728 34.1845 48.2271 34.2177 48.3799 34.2549C48.4859 34.2807 48.5909 34.3093 48.6953 34.3389C48.7787 34.3625 48.8619 34.3862 48.9443 34.4121C49.2342 34.5034 49.5171 34.6095 49.793 34.7285C49.8242 34.742 49.8557 34.7547 49.8867 34.7686C50.0765 34.8531 50.2621 34.9449 50.4443 35.042C50.5894 35.1193 50.7321 35.2003 50.8721 35.2852C51.1623 35.4611 51.4416 35.6525 51.708 35.8594C52.0454 36.1213 52.3616 36.408 52.6562 36.7148C53.1501 37.2292 53.5799 37.8026 53.9336 38.4238C53.9735 38.4939 54.0128 38.5644 54.0508 38.6357C54.144 38.8108 54.2315 38.9891 54.3125 39.1709C54.3747 39.3105 54.4326 39.4523 54.4873 39.5957C54.5182 39.6767 54.5496 39.7577 54.5781 39.8398C54.6237 39.9712 54.665 40.1042 54.7041 40.2383C54.7308 40.3299 54.7576 40.4218 54.7812 40.5146L54.7852 40.5312C57.9457 40.5552 60.5 43.0715 60.5 46.1719C60.5 47.4408 60.0719 48.6123 59.3496 49.5547L59.1582 49.793C58.1678 50.9676 56.7481 51.8119 55.1562 51.8047C52.5952 51.8124 42.7432 51.8125 38.9736 51.8125L38.6152 51.8037C38.6038 51.8031 38.5925 51.8014 38.5811 51.8008C38.5517 51.7992 38.5224 51.7959 38.4932 51.7939C38.3996 51.7877 38.3064 51.7813 38.2139 51.7715C38.1533 51.7651 38.0933 51.756 38.0332 51.748C37.9728 51.7401 37.9125 51.7321 37.8525 51.7227C37.7934 51.7133 37.7345 51.7032 37.6758 51.6924C37.6031 51.679 37.5309 51.664 37.459 51.6484C37.4155 51.639 37.3722 51.6294 37.3291 51.6191C37.2402 51.5981 37.152 51.5751 37.0645 51.5508C37.0361 51.5429 37.0077 51.5356 36.9795 51.5273C36.8825 51.4991 36.7865 51.4688 36.6914 51.4365C36.668 51.4286 36.6444 51.4213 36.6211 51.4131C36.549 51.3878 36.4782 51.3596 36.4072 51.332C36.2758 51.281 36.1459 51.2274 36.0186 51.1689C35.9942 51.1578 35.9695 51.1472 35.9453 51.1357C35.9111 51.1195 35.8777 51.1017 35.8438 51.085C35.7633 51.0453 35.6831 51.0055 35.6045 50.9629C35.5841 50.9519 35.5642 50.9399 35.5439 50.9287C35.4572 50.8806 35.3715 50.8309 35.2871 50.7793C35.2603 50.7629 35.2336 50.7462 35.207 50.7295C35.1365 50.6851 35.0668 50.6396 34.998 50.5928C34.9596 50.5666 34.9217 50.5396 34.8838 50.5127C34.8275 50.4727 34.7718 50.4322 34.7168 50.3906C34.6734 50.3579 34.6304 50.3248 34.5879 50.291C34.5261 50.242 34.4653 50.1917 34.4053 50.1406C34.381 50.12 34.356 50.1001 34.332 50.0791C34.2588 50.0151 34.1876 49.9488 34.1172 49.8818C34.0985 49.8641 34.079 49.8471 34.0605 49.8291C33.8904 49.6636 33.7292 49.4894 33.5771 49.3076L33.5625 49.291L33.3838 49.0674C33.3187 48.9821 33.2563 48.8949 33.1953 48.8066C33.1813 48.7864 33.1681 48.7655 33.1543 48.7451C33.1142 48.6857 33.0744 48.6261 33.0361 48.5654C33.0026 48.5123 32.9705 48.4584 32.9385 48.4043C32.9196 48.3724 32.9002 48.3408 32.8818 48.3086C32.8533 48.2586 32.8261 48.208 32.7988 48.1572C32.7759 48.1145 32.7535 48.0716 32.7314 48.0283C32.7083 47.9829 32.6852 47.9375 32.6631 47.8916C32.6394 47.8424 32.6162 47.793 32.5938 47.7432C32.5725 47.6962 32.5514 47.6491 32.5312 47.6016C32.4527 47.4164 32.3823 47.2271 32.3203 47.0342C32.3033 46.9812 32.2882 46.9276 32.2725 46.874C32.2582 46.8253 32.2437 46.7767 32.2305 46.7275C32.2173 46.6786 32.2054 46.6294 32.1934 46.5801C32.1794 46.523 32.1658 46.4658 32.1533 46.4082C32.1426 46.3589 32.1326 46.3094 32.123 46.2598C32.1123 46.204 32.1021 46.148 32.0928 46.0918C32.0864 46.0535 32.08 46.0151 32.0742 45.9766C32.0635 45.9047 32.0543 45.8324 32.0459 45.7598C32.0412 45.7195 32.0362 45.6792 32.0322 45.6387C32.0113 45.4233 32 45.2051 32 44.9844C32 44.8149 32.0081 44.6469 32.0205 44.4805C32.033 44.3124 32.0505 44.1459 32.0752 43.9814C32.0821 43.9353 32.0908 43.8896 32.0986 43.8438C32.1088 43.7847 32.1182 43.7256 32.1299 43.667C32.1415 43.609 32.1559 43.5516 32.1689 43.4941C32.1802 43.4449 32.1908 43.3956 32.2031 43.3467C32.2152 43.2985 32.229 43.2509 32.2422 43.2031C32.2584 43.1444 32.2733 43.0854 32.291 43.0273C32.3068 42.9755 32.3248 42.9244 32.3418 42.873C32.3564 42.829 32.3703 42.7848 32.3857 42.7412C32.4085 42.6771 32.4334 42.614 32.458 42.5508C32.4733 42.5117 32.4879 42.4724 32.5039 42.4336C32.525 42.3824 32.5471 42.3318 32.5693 42.2812C32.5907 42.2328 32.6123 42.1846 32.6348 42.1367C32.6563 42.0908 32.6786 42.0453 32.7012 42C32.7269 41.9483 32.7523 41.8966 32.7793 41.8457C32.8065 41.7944 32.8348 41.7439 32.8633 41.6934C32.8826 41.659 32.902 41.6248 32.9219 41.5908C32.9527 41.5382 32.9844 41.4863 33.0166 41.4346C33.0474 41.3851 33.0783 41.3357 33.1104 41.2871C33.1313 41.2554 33.1524 41.2238 33.1738 41.1924C33.2148 41.1324 33.257 41.0733 33.2998 41.0146C33.3204 40.9865 33.3413 40.9585 33.3623 40.9307C33.3975 40.884 33.4333 40.8378 33.4697 40.792C33.5057 40.7467 33.5419 40.7016 33.5791 40.6572C33.6121 40.6178 33.6468 40.5797 33.6807 40.541C33.7176 40.4989 33.754 40.4563 33.792 40.415C33.8199 40.3847 33.8485 40.355 33.877 40.3252C33.9168 40.2834 33.9571 40.242 33.998 40.2012C34.0396 40.1597 34.0814 40.1185 34.124 40.0781C34.1593 40.0447 34.1945 40.0112 34.2305 39.9785C34.2747 39.9383 34.32 39.8994 34.3652 39.8604C34.3967 39.8332 34.428 39.8059 34.46 39.7793C34.5128 39.7353 34.5669 39.6928 34.6211 39.6504C34.6536 39.6249 34.6858 39.5991 34.7188 39.5742C34.7602 39.5429 34.8025 39.5128 34.8447 39.4824C34.8907 39.4493 34.9366 39.4158 34.9834 39.3838C35.02 39.3587 35.0576 39.3349 35.0947 39.3105C35.1492 39.2748 35.2033 39.2384 35.2588 39.2041C35.2837 39.1887 35.3098 39.1752 35.335 39.1602C35.3997 39.1213 35.4642 39.0818 35.5303 39.0449C35.6763 38.9636 35.8262 38.8885 35.9785 38.8174C36.0762 38.7718 36.1752 38.7287 36.2754 38.6875C36.3716 38.6479 36.469 38.6106 36.5674 38.5752C36.688 38.5318 36.81 38.4911 36.9336 38.4541C36.9606 38.446 36.9875 38.4375 37.0146 38.4297C37.0586 38.4171 37.1031 38.4063 37.1475 38.3945C37.2143 38.3768 37.281 38.3576 37.3486 38.3418C37.3823 38.3339 37.4164 38.3277 37.4502 38.3203C37.5131 38.3066 37.5762 38.2933 37.6396 38.2812L37.6924 38.2715C37.7432 38.2622 37.7945 38.2552 37.8457 38.2471C37.8916 38.2398 37.9373 38.231 37.9834 38.2246C38.2254 38.1909 38.4714 38.1689 38.7207 38.1602C40.2608 35.6666 43.0568 34.0001 46.25 34Z"/>
</mask>
<path d="M46.25 34C46.6811 34 47.1051 34.0312 47.5195 34.0898C47.653 34.1087 47.7855 34.1306 47.917 34.1553C48.0728 34.1845 48.2271 34.2177 48.3799 34.2549C48.4859 34.2807 48.5909 34.3093 48.6953 34.3389C48.7787 34.3625 48.8619 34.3862 48.9443 34.4121C49.2342 34.5034 49.5171 34.6095 49.793 34.7285C49.8242 34.742 49.8557 34.7547 49.8867 34.7686C50.0765 34.8531 50.2621 34.9449 50.4443 35.042C50.5894 35.1193 50.7321 35.2003 50.8721 35.2852C51.1623 35.4611 51.4416 35.6525 51.708 35.8594C52.0454 36.1213 52.3616 36.408 52.6562 36.7148C53.1501 37.2292 53.5799 37.8026 53.9336 38.4238C53.9735 38.4939 54.0128 38.5644 54.0508 38.6357C54.144 38.8108 54.2315 38.9891 54.3125 39.1709C54.3747 39.3105 54.4326 39.4523 54.4873 39.5957C54.5182 39.6767 54.5496 39.7577 54.5781 39.8398C54.6237 39.9712 54.665 40.1042 54.7041 40.2383C54.7308 40.3299 54.7576 40.4218 54.7812 40.5146L54.7852 40.5312C57.9457 40.5552 60.5 43.0715 60.5 46.1719C60.5 47.4408 60.0719 48.6123 59.3496 49.5547L59.1582 49.793C58.1678 50.9676 56.7481 51.8119 55.1562 51.8047C52.5952 51.8124 42.7432 51.8125 38.9736 51.8125L38.6152 51.8037C38.6038 51.8031 38.5925 51.8014 38.5811 51.8008C38.5517 51.7992 38.5224 51.7959 38.4932 51.7939C38.3996 51.7877 38.3064 51.7813 38.2139 51.7715C38.1533 51.7651 38.0933 51.756 38.0332 51.748C37.9728 51.7401 37.9125 51.7321 37.8525 51.7227C37.7934 51.7133 37.7345 51.7032 37.6758 51.6924C37.6031 51.679 37.5309 51.664 37.459 51.6484C37.4155 51.639 37.3722 51.6294 37.3291 51.6191C37.2402 51.5981 37.152 51.5751 37.0645 51.5508C37.0361 51.5429 37.0077 51.5356 36.9795 51.5273C36.8825 51.4991 36.7865 51.4688 36.6914 51.4365C36.668 51.4286 36.6444 51.4213 36.6211 51.4131C36.549 51.3878 36.4782 51.3596 36.4072 51.332C36.2758 51.281 36.1459 51.2274 36.0186 51.1689C35.9942 51.1578 35.9695 51.1472 35.9453 51.1357C35.9111 51.1195 35.8777 51.1017 35.8438 51.085C35.7633 51.0453 35.6831 51.0055 35.6045 50.9629C35.5841 50.9519 35.5642 50.9399 35.5439 50.9287C35.4572 50.8806 35.3715 50.8309 35.2871 50.7793C35.2603 50.7629 35.2336 50.7462 35.207 50.7295C35.1365 50.6851 35.0668 50.6396 34.998 50.5928C34.9596 50.5666 34.9217 50.5396 34.8838 50.5127C34.8275 50.4727 34.7718 50.4322 34.7168 50.3906C34.6734 50.3579 34.6304 50.3248 34.5879 50.291C34.5261 50.242 34.4653 50.1917 34.4053 50.1406C34.381 50.12 34.356 50.1001 34.332 50.0791C34.2588 50.0151 34.1876 49.9488 34.1172 49.8818C34.0985 49.8641 34.079 49.8471 34.0605 49.8291C33.8904 49.6636 33.7292 49.4894 33.5771 49.3076L33.5625 49.291L33.3838 49.0674C33.3187 48.9821 33.2563 48.8949 33.1953 48.8066C33.1813 48.7864 33.1681 48.7655 33.1543 48.7451C33.1142 48.6857 33.0744 48.6261 33.0361 48.5654C33.0026 48.5123 32.9705 48.4584 32.9385 48.4043C32.9196 48.3724 32.9002 48.3408 32.8818 48.3086C32.8533 48.2586 32.8261 48.208 32.7988 48.1572C32.7759 48.1145 32.7535 48.0716 32.7314 48.0283C32.7083 47.9829 32.6852 47.9375 32.6631 47.8916C32.6394 47.8424 32.6162 47.793 32.5938 47.7432C32.5725 47.6962 32.5514 47.6491 32.5312 47.6016C32.4527 47.4164 32.3823 47.2271 32.3203 47.0342C32.3033 46.9812 32.2882 46.9276 32.2725 46.874C32.2582 46.8253 32.2437 46.7767 32.2305 46.7275C32.2173 46.6786 32.2054 46.6294 32.1934 46.5801C32.1794 46.523 32.1658 46.4658 32.1533 46.4082C32.1426 46.3589 32.1326 46.3094 32.123 46.2598C32.1123 46.204 32.1021 46.148 32.0928 46.0918C32.0864 46.0535 32.08 46.0151 32.0742 45.9766C32.0635 45.9047 32.0543 45.8324 32.0459 45.7598C32.0412 45.7195 32.0362 45.6792 32.0322 45.6387C32.0113 45.4233 32 45.2051 32 44.9844C32 44.8149 32.0081 44.6469 32.0205 44.4805C32.033 44.3124 32.0505 44.1459 32.0752 43.9814C32.0821 43.9353 32.0908 43.8896 32.0986 43.8438C32.1088 43.7847 32.1182 43.7256 32.1299 43.667C32.1415 43.609 32.1559 43.5516 32.1689 43.4941C32.1802 43.4449 32.1908 43.3956 32.2031 43.3467C32.2152 43.2985 32.229 43.2509 32.2422 43.2031C32.2584 43.1444 32.2733 43.0854 32.291 43.0273C32.3068 42.9755 32.3248 42.9244 32.3418 42.873C32.3564 42.829 32.3703 42.7848 32.3857 42.7412C32.4085 42.6771 32.4334 42.614 32.458 42.5508C32.4733 42.5117 32.4879 42.4724 32.5039 42.4336C32.525 42.3824 32.5471 42.3318 32.5693 42.2812C32.5907 42.2328 32.6123 42.1846 32.6348 42.1367C32.6563 42.0908 32.6786 42.0453 32.7012 42C32.7269 41.9483 32.7523 41.8966 32.7793 41.8457C32.8065 41.7944 32.8348 41.7439 32.8633 41.6934C32.8826 41.659 32.902 41.6248 32.9219 41.5908C32.9527 41.5382 32.9844 41.4863 33.0166 41.4346C33.0474 41.3851 33.0783 41.3357 33.1104 41.2871C33.1313 41.2554 33.1524 41.2238 33.1738 41.1924C33.2148 41.1324 33.257 41.0733 33.2998 41.0146C33.3204 40.9865 33.3413 40.9585 33.3623 40.9307C33.3975 40.884 33.4333 40.8378 33.4697 40.792C33.5057 40.7467 33.5419 40.7016 33.5791 40.6572C33.6121 40.6178 33.6468 40.5797 33.6807 40.541C33.7176 40.4989 33.754 40.4563 33.792 40.415C33.8199 40.3847 33.8485 40.355 33.877 40.3252C33.9168 40.2834 33.9571 40.242 33.998 40.2012C34.0396 40.1597 34.0814 40.1185 34.124 40.0781C34.1593 40.0447 34.1945 40.0112 34.2305 39.9785C34.2747 39.9383 34.32 39.8994 34.3652 39.8604C34.3967 39.8332 34.428 39.8059 34.46 39.7793C34.5128 39.7353 34.5669 39.6928 34.6211 39.6504C34.6536 39.6249 34.6858 39.5991 34.7188 39.5742C34.7602 39.5429 34.8025 39.5128 34.8447 39.4824C34.8907 39.4493 34.9366 39.4158 34.9834 39.3838C35.02 39.3587 35.0576 39.3349 35.0947 39.3105C35.1492 39.2748 35.2033 39.2384 35.2588 39.2041C35.2837 39.1887 35.3098 39.1752 35.335 39.1602C35.3997 39.1213 35.4642 39.0818 35.5303 39.0449C35.6763 38.9636 35.8262 38.8885 35.9785 38.8174C36.0762 38.7718 36.1752 38.7287 36.2754 38.6875C36.3716 38.6479 36.469 38.6106 36.5674 38.5752C36.688 38.5318 36.81 38.4911 36.9336 38.4541C36.9606 38.446 36.9875 38.4375 37.0146 38.4297C37.0586 38.4171 37.1031 38.4063 37.1475 38.3945C37.2143 38.3768 37.281 38.3576 37.3486 38.3418C37.3823 38.3339 37.4164 38.3277 37.4502 38.3203C37.5131 38.3066 37.5762 38.2933 37.6396 38.2812L37.6924 38.2715C37.7432 38.2622 37.7945 38.2552 37.8457 38.2471C37.8916 38.2398 37.9373 38.231 37.9834 38.2246C38.2254 38.1909 38.4714 38.1689 38.7207 38.1602C40.2608 35.6666 43.0568 34.0001 46.25 34Z" fill="url(#paint3_linear_10774_83727)" fill-opacity="0.56"/>
<path d="M46.25 34V32.75H46.25L46.25 34ZM47.5195 34.0898L47.3443 35.3275L47.3443 35.3275L47.5195 34.0898ZM47.917 34.1553L48.1478 32.9268L48.1478 32.9268L47.917 34.1553ZM48.3799 34.2549L48.084 35.4694L48.084 35.4694L48.3799 34.2549ZM48.6953 34.3389L49.0356 33.1361L49.0356 33.1361L48.6953 34.3389ZM48.9443 34.4121L48.5689 35.6044L48.5689 35.6044L48.9443 34.4121ZM49.793 34.7285L50.2883 33.5809L50.2883 33.5808L49.793 34.7285ZM49.8867 34.7686L49.3782 35.9104L49.3782 35.9104L49.8867 34.7686ZM50.4443 35.042L51.0318 33.9387L51.0318 33.9387L50.4443 35.042ZM50.8721 35.2852L50.224 36.354L50.224 36.354L50.8721 35.2852ZM51.708 35.8594L52.4745 34.872L52.4745 34.872L51.708 35.8594ZM52.6562 36.7148L53.5579 35.8491V35.8491L52.6562 36.7148ZM53.9336 38.4238L52.8473 39.0423L52.8473 39.0423L53.9336 38.4238ZM54.0508 38.6357L55.1542 38.0483L55.1542 38.0483L54.0508 38.6357ZM54.3125 39.1709L53.1707 39.6795L53.1707 39.6795L54.3125 39.1709ZM54.4873 39.5957L55.6551 39.1499L55.6551 39.1499L54.4873 39.5957ZM54.5781 39.8398L53.3971 40.2493L53.3971 40.2493L54.5781 39.8398ZM54.7041 40.2383L55.904 39.888L55.904 39.8879L54.7041 40.2383ZM54.7812 40.5146L55.998 40.2283L55.9953 40.2169L55.9924 40.2055L54.7812 40.5146ZM54.7852 40.5312L53.5684 40.8175L53.7934 41.7738L54.7757 41.7812L54.7852 40.5312ZM60.5 46.1719L61.75 46.1719V46.1719H60.5ZM59.3496 49.5547L60.3241 50.3375L60.3331 50.3264L60.3417 50.3151L59.3496 49.5547ZM59.1582 49.793L60.1138 50.5987L60.1234 50.5874L60.1327 50.5758L59.1582 49.793ZM55.1562 51.8047L55.1619 50.5547L55.1525 50.5547L55.1562 51.8047ZM38.9736 51.8125L38.943 53.0621L38.9583 53.0625H38.9736V51.8125ZM38.6152 51.8037L38.5533 53.0522L38.569 53.053L38.5846 53.0533L38.6152 51.8037ZM38.5811 51.8008L38.6489 50.5526L38.5811 51.8008ZM38.4932 51.7939L38.41 53.0412L38.4932 51.7939ZM38.2139 51.7715L38.3458 50.5285V50.5285L38.2139 51.7715ZM38.0332 51.748L37.8696 52.9873L38.0332 51.748ZM37.8525 51.7227L38.048 50.488V50.488L37.8525 51.7227ZM37.6758 51.6924L37.4491 52.9217V52.9217L37.6758 51.6924ZM37.459 51.6484L37.724 50.4269V50.4269L37.459 51.6484ZM37.3291 51.6191L37.0411 52.8355V52.8355L37.3291 51.6191ZM37.0645 51.5508L37.3995 50.3465V50.3465L37.0645 51.5508ZM36.9795 51.5273L36.6294 52.7273V52.7273L36.9795 51.5273ZM36.6914 51.4365L37.0928 50.2527V50.2527L36.6914 51.4365ZM36.6211 51.4131L36.2072 52.5926V52.5926L36.6211 51.4131ZM36.4072 51.332L36.8593 50.1667H36.8593L36.4072 51.332ZM36.0186 51.1689L35.4972 52.305V52.305L36.0186 51.1689ZM35.9453 51.1357L36.4797 50.0057V50.0057L35.9453 51.1357ZM35.8438 51.085L35.2912 52.2062H35.2912L35.8438 51.085ZM35.6045 50.9629L36.1997 49.8637V49.8637L35.6045 50.9629ZM35.5439 50.9287L34.9379 52.022V52.022L35.5439 50.9287ZM35.2871 50.7793L35.939 49.7127V49.7127L35.2871 50.7793ZM35.207 50.7295L34.5408 51.7872V51.7872L35.207 50.7295ZM34.998 50.5928L35.7016 49.5595V49.5595L34.998 50.5928ZM34.8838 50.5127L34.1598 51.5317V51.5317L34.8838 50.5127ZM34.7168 50.3906L35.4706 49.3935V49.3935L34.7168 50.3906ZM34.5879 50.291L33.811 51.2703V51.2703L34.5879 50.291ZM34.4053 50.1406L35.2149 49.1883V49.1883L34.4053 50.1406ZM34.332 50.0791L33.5094 51.0202V51.0202L34.332 50.0791ZM34.1172 49.8818L34.9786 48.976V48.976L34.1172 49.8818ZM34.0605 49.8291L33.1891 50.7253V50.7253L34.0605 49.8291ZM33.5771 49.3076L34.5359 48.5056L34.5253 48.4929L34.5144 48.4806L33.5771 49.3076ZM33.5625 49.291L32.586 50.0714L32.605 50.0952L32.6252 50.118L33.5625 49.291ZM33.3838 49.0674L32.3901 49.8257L32.3986 49.8368L32.4073 49.8477L33.3838 49.0674ZM33.1953 48.8066L34.2235 48.0958L34.2235 48.0958L33.1953 48.8066ZM33.1543 48.7451L32.1184 49.4447L32.1184 49.4448L33.1543 48.7451ZM33.0361 48.5654L34.0936 47.8988L34.0936 47.8988L33.0361 48.5654ZM32.9385 48.4043L31.863 49.0413L31.863 49.0413L32.9385 48.4043ZM32.8818 48.3086L33.9676 47.6893L33.9676 47.6893L32.8818 48.3086ZM32.7988 48.1572L31.6976 48.7486L31.6976 48.7486L32.7988 48.1572ZM32.7314 48.0283L33.8452 47.4608L33.8452 47.4608L32.7314 48.0283ZM32.6631 47.8916L31.5368 48.4338L31.5368 48.4338L32.6631 47.8916ZM32.5938 47.7432L33.7329 47.2286L33.7329 47.2286L32.5938 47.7432ZM32.5312 47.6016L33.682 47.1134L32.5312 47.6016ZM32.3203 47.0342L31.1301 47.4163L31.1301 47.4163L32.3203 47.0342ZM32.2725 46.874L33.4718 46.5219L33.4718 46.5219L32.2725 46.874ZM32.2305 46.7275L31.0234 47.0521L31.0234 47.0522L32.2305 46.7275ZM32.1934 46.5801L33.4076 46.2831L33.4076 46.2831L32.1934 46.5801ZM32.1533 46.4082L30.9317 46.6729L30.9317 46.6729L32.1533 46.4082ZM32.123 46.2598L33.3504 46.0229L33.3504 46.0229L32.123 46.2598ZM32.0928 46.0918L30.8598 46.2972L30.8598 46.2972L32.0928 46.0918ZM32.0742 45.9766L33.3106 45.7927L33.3106 45.7927L32.0742 45.9766ZM32.0459 45.7598L30.8041 45.9032L30.8041 45.9032L32.0459 45.7598ZM32.0322 45.6387L33.2764 45.5179L33.2764 45.5178L32.0322 45.6387ZM32 44.9844H30.75V44.9844L32 44.9844ZM32.0205 44.4805L30.774 44.3876V44.3876L32.0205 44.4805ZM32.0752 43.9814L33.3113 44.1673H33.3113L32.0752 43.9814ZM32.0986 43.8438L30.8667 43.6321L30.8667 43.6321L32.0986 43.8438ZM32.1299 43.667L33.3557 43.9117L33.3557 43.9117L32.1299 43.667ZM32.1689 43.4941L30.9501 43.217L30.9501 43.217L32.1689 43.4941ZM32.2031 43.3467L33.4154 43.6515L33.4154 43.6515L32.2031 43.3467ZM32.2422 43.2031L31.037 42.8713L31.037 42.8713L32.2422 43.2031ZM32.291 43.0273L33.4866 43.392L33.4866 43.392L32.291 43.0273ZM32.3418 42.873L31.1554 42.4794L31.1554 42.4794L32.3418 42.873ZM32.3857 42.7412L33.5637 43.1595L33.5637 43.1595L32.3857 42.7412ZM32.458 42.5508L31.2934 42.0968L31.2934 42.0968L32.458 42.5508ZM32.5039 42.4336L33.6598 42.9094L33.6598 42.9094L32.5039 42.4336ZM32.5693 42.2812L31.4255 41.7771L31.4255 41.7771L32.5693 42.2812ZM32.6348 42.1367L33.7663 42.6678L33.7663 42.6678L32.6348 42.1367ZM32.7012 42L31.5819 41.4435L31.5819 41.4435L32.7012 42ZM32.7793 41.8457L33.884 42.4307L33.884 42.4307L32.7793 41.8457ZM32.8633 41.6934L31.774 41.0802L31.774 41.0802L32.8633 41.6934ZM32.9219 41.5908L34.0003 42.2229L34.0003 42.2229L32.9219 41.5908ZM33.0166 41.4346L31.9556 40.7737L31.9556 40.7737L33.0166 41.4346ZM33.1104 41.2871L34.1541 41.975L34.1541 41.975L33.1104 41.2871ZM33.1738 41.1924L32.1417 40.4872L32.1417 40.4872L33.1738 41.1924ZM33.2998 41.0146L34.3089 41.7523L34.3089 41.7523L33.2998 41.0146ZM33.3623 40.9307L32.3646 40.1777L32.3646 40.1777L33.3623 40.9307ZM33.4697 40.792L34.4479 41.5702L34.4479 41.5702L33.4697 40.792ZM33.5791 40.6572L32.6208 39.8546L32.6208 39.8546L33.5791 40.6572ZM33.6807 40.541L34.6207 41.3649L34.6207 41.3649L33.6807 40.541ZM33.792 40.415L32.8722 39.5686L32.8722 39.5686L33.792 40.415ZM33.877 40.3252L34.7815 41.188L34.7815 41.188L33.877 40.3252ZM33.998 40.2012L33.1154 39.3161L33.1154 39.3161L33.998 40.2012ZM34.124 40.0781L34.984 40.9853L34.984 40.9853L34.124 40.0781ZM34.2305 39.9785L33.3897 39.0535L33.3897 39.0535L34.2305 39.9785ZM34.3652 39.8604L35.1819 40.8067L35.1819 40.8067L34.3652 39.8604ZM34.46 39.7793L33.6603 38.8185L33.6603 38.8185L34.46 39.7793ZM34.6211 39.6504L33.8502 38.6664H33.8502L34.6211 39.6504ZM34.7188 39.5742L35.472 40.5717V40.5717L34.7188 39.5742ZM34.8447 39.4824L34.1139 38.4684V38.4684L34.8447 39.4824ZM34.9834 39.3838L35.6894 40.4153H35.6894L34.9834 39.3838ZM35.0947 39.3105L34.4085 38.2657H34.4085L35.0947 39.3105ZM35.2588 39.2041L35.9155 40.2677L35.9155 40.2677L35.2588 39.2041ZM35.335 39.1602L34.6916 38.0884L34.6916 38.0884L35.335 39.1602ZM35.5303 39.0449L36.1386 40.1369L36.1386 40.1369L35.5303 39.0449ZM35.9785 38.8174L35.4501 37.6846L35.4501 37.6846L35.9785 38.8174ZM36.2754 38.6875L36.7509 39.8435L36.7509 39.8435L36.2754 38.6875ZM36.5674 38.5752L36.1439 37.3991L36.1439 37.3991L36.5674 38.5752ZM36.9336 38.4541L37.2919 39.6517L37.2919 39.6517L36.9336 38.4541ZM37.0146 38.4297L36.6708 37.2279L36.6708 37.2279L37.0146 38.4297ZM37.1475 38.3945L37.4677 39.6028L37.4677 39.6028L37.1475 38.3945ZM37.3486 38.3418L37.0642 37.1246L37.0642 37.1246L37.3486 38.3418ZM37.4502 38.3203L37.7167 39.5416L37.7167 39.5416L37.4502 38.3203ZM37.6396 38.2812L37.412 37.0521L37.4067 37.0532L37.6396 38.2812ZM37.6924 38.2715L37.4687 37.0417L37.4648 37.0424L37.6924 38.2715ZM37.8457 38.2471L38.0424 39.4815L38.0424 39.4815L37.8457 38.2471ZM37.9834 38.2246L37.811 36.9865L37.811 36.9865L37.9834 38.2246ZM38.7207 38.1602L38.7643 39.4094L39.4328 39.386L39.7842 38.817L38.7207 38.1602ZM46.25 34V35.25C46.6208 35.25 46.9862 35.2768 47.3443 35.3275L47.5195 34.0898L47.6948 32.8522C47.2239 32.7855 46.7414 32.75 46.25 32.75V34ZM47.5195 34.0898L47.3443 35.3275C47.4592 35.3438 47.5731 35.3625 47.6862 35.3838L47.917 34.1553L48.1478 32.9268C47.9979 32.8986 47.8469 32.8737 47.6948 32.8522L47.5195 34.0898ZM47.917 34.1553L47.6862 35.3838C47.821 35.4091 47.9536 35.4376 48.084 35.4694L48.3799 34.2549L48.6757 33.0404C48.5006 32.9977 48.3246 32.96 48.1478 32.9268L47.917 34.1553ZM48.3799 34.2549L48.084 35.4694C48.1689 35.4901 48.2575 35.5141 48.355 35.5417L48.6953 34.3389L49.0356 33.1361C48.9242 33.1046 48.8028 33.0714 48.6757 33.0404L48.3799 34.2549ZM48.6953 34.3389L48.355 35.5417C48.4394 35.5655 48.5062 35.5847 48.5689 35.6044L48.9443 34.4121L49.3197 33.2198C49.2177 33.1877 49.1181 33.1594 49.0356 33.1361L48.6953 34.3389ZM48.9443 34.4121L48.5689 35.6044C48.8163 35.6823 49.0593 35.7733 49.2976 35.8762L49.793 34.7285L50.2883 33.5808C49.975 33.4456 49.652 33.3244 49.3197 33.2198L48.9443 34.4121ZM49.793 34.7285L49.2976 35.8762C49.3739 35.9091 49.3461 35.8962 49.3782 35.9104L49.8867 34.7686L50.3953 33.6267C50.3676 33.6144 50.3422 33.6036 50.3254 33.5965C50.3052 33.588 50.2974 33.5848 50.2883 33.5809L49.793 34.7285ZM49.8867 34.7686L49.3782 35.9104C49.5372 35.9813 49.6963 36.0598 49.8568 36.1453L50.4443 35.042L51.0318 33.9387C50.8279 33.8301 50.6157 33.7249 50.3953 33.6267L49.8867 34.7686ZM50.4443 35.042L49.8568 36.1453C49.9819 36.2119 50.1043 36.2815 50.224 36.354L50.8721 35.2852L51.5201 34.2163C51.3598 34.1191 51.197 34.0266 51.0318 33.9387L50.4443 35.042ZM50.8721 35.2852L50.224 36.354C50.4745 36.5059 50.7142 36.6703 50.9415 36.8468L51.708 35.8594L52.4745 34.872C52.169 34.6348 51.85 34.4163 51.5201 34.2163L50.8721 35.2852ZM51.708 35.8594L50.9415 36.8468C51.2288 37.0698 51.5 37.3154 51.7546 37.5806L52.6562 36.7148L53.5579 35.8491C53.2233 35.5006 52.8621 35.1729 52.4745 34.872L51.708 35.8594ZM52.6562 36.7148L51.7546 37.5806C52.1779 38.0215 52.5454 38.5121 52.8473 39.0423L53.9336 38.4238L55.0199 37.8053C54.6144 37.0932 54.1223 36.4369 53.5579 35.8491L52.6562 36.7148ZM53.9336 38.4238L52.8473 39.0423C52.8837 39.1063 52.9168 39.1658 52.9474 39.2232L54.0508 38.6357L55.1542 38.0483C55.1088 37.9631 55.0633 37.8816 55.0199 37.8053L53.9336 38.4238ZM54.0508 38.6357L52.9474 39.2232C53.0277 39.374 53.1023 39.5261 53.1707 39.6795L54.3125 39.1709L55.4543 38.6623C55.3607 38.4521 55.2602 38.2475 55.1542 38.0483L54.0508 38.6357ZM54.3125 39.1709L53.1707 39.6795C53.2222 39.7952 53.2715 39.9157 53.3195 40.0415L54.4873 39.5957L55.6551 39.1499C55.5936 38.9889 55.5272 38.8258 55.4543 38.6623L54.3125 39.1709ZM54.4873 39.5957L53.3195 40.0415C53.3541 40.1321 53.3766 40.1902 53.3971 40.2493L54.5781 39.8398L55.7591 39.4304C55.7227 39.3252 55.6824 39.2213 55.6551 39.1499L54.4873 39.5957ZM54.5781 39.8398L53.3971 40.2493C53.4338 40.3553 53.4688 40.4675 53.5042 40.5886L54.7041 40.2383L55.904 39.8879C55.8611 39.7409 55.8135 39.587 55.7591 39.4303L54.5781 39.8398ZM54.7041 40.2383L53.5042 40.5886C53.5315 40.682 53.5524 40.7546 53.5701 40.8238L54.7812 40.5146L55.9924 40.2055C55.9627 40.0891 55.9302 39.9778 55.904 39.888L54.7041 40.2383ZM54.7812 40.5146L53.5645 40.8009L53.5684 40.8175L54.7852 40.5312L56.0019 40.245L55.998 40.2283L54.7812 40.5146ZM54.7852 40.5312L54.7757 41.7812C57.2747 41.8001 59.25 43.783 59.25 46.1719H60.5H61.75C61.75 42.3601 58.6168 39.3102 54.7946 39.2813L54.7852 40.5312ZM60.5 46.1719L59.25 46.1719C59.25 47.1542 58.9197 48.0607 58.3575 48.7943L59.3496 49.5547L60.3417 50.3151C61.224 49.1639 61.75 47.7273 61.75 46.1719L60.5 46.1719ZM59.3496 49.5547L58.3751 48.7719L58.1837 49.0102L59.1582 49.793L60.1327 50.5758L60.3241 50.3375L59.3496 49.5547ZM59.1582 49.793L58.2026 48.9872C57.3859 49.9557 56.2931 50.5598 55.1619 50.5547L55.1562 51.8047L55.1506 53.0547C57.2031 53.064 58.9497 51.9794 60.1138 50.5987L59.1582 49.793ZM55.1562 51.8047L55.1525 50.5547C52.5939 50.5624 42.7448 50.5625 38.9736 50.5625V51.8125V53.0625C42.7417 53.0625 52.5965 53.0624 55.16 53.0547L55.1562 51.8047ZM38.9736 51.8125L39.0043 50.5629L38.6459 50.5541L38.6152 51.8037L38.5846 53.0533L38.943 53.0621L38.9736 51.8125ZM38.6152 51.8037L38.6771 50.5552C38.6953 50.5561 38.7095 50.5573 38.7172 50.558C38.7211 50.5583 38.724 50.5586 38.7254 50.5588C38.7265 50.5589 38.7272 50.5589 38.7258 50.5588C38.725 50.5587 38.7217 50.5584 38.7183 50.558C38.7147 50.5577 38.7093 50.5572 38.7031 50.5566C38.6907 50.5555 38.6718 50.5539 38.6489 50.5526L38.5811 51.8008L38.5132 53.0489C38.496 53.048 38.4828 53.0469 38.4761 53.0463C38.4705 53.0457 38.4657 53.0452 38.4705 53.0457C38.4727 53.046 38.4836 53.0471 38.4962 53.0482C38.5096 53.0494 38.5294 53.051 38.5533 53.0522L38.6152 51.8037ZM38.5811 51.8008L38.6489 50.5526C38.656 50.553 38.6589 50.5534 38.6447 50.5521C38.64 50.5517 38.6287 50.5507 38.6186 50.5499C38.6074 50.549 38.5928 50.5478 38.5763 50.5467L38.4932 51.7939L38.41 53.0412C38.4093 53.0411 38.4087 53.0411 38.4294 53.0429C38.4445 53.0442 38.4767 53.047 38.5132 53.0489L38.5811 51.8008ZM38.4932 51.7939L38.5763 50.5467C38.4811 50.5404 38.4108 50.5354 38.3458 50.5285L38.2139 51.7715L38.082 53.0145C38.202 53.0272 38.3181 53.035 38.41 53.0412L38.4932 51.7939ZM38.2139 51.7715L38.3458 50.5285C38.3058 50.5242 38.2885 50.5209 38.1969 50.5088L38.0332 51.748L37.8696 52.9873C37.8981 52.9911 38.0008 53.0059 38.082 53.0145L38.2139 51.7715ZM38.0332 51.748L38.1969 50.5088C38.1329 50.5004 38.0891 50.4945 38.048 50.488L37.8525 51.7227L37.6571 52.9573C37.7358 52.9697 37.8126 52.9798 37.8696 52.9873L38.0332 51.748ZM37.8525 51.7227L38.048 50.488C37.9992 50.4803 37.9507 50.472 37.9024 50.4631L37.6758 51.6924L37.4491 52.9217C37.5183 52.9344 37.5875 52.9463 37.6571 52.9573L37.8525 51.7227ZM37.6758 51.6924L37.9024 50.4631C37.847 50.4529 37.7886 50.4409 37.724 50.4269L37.459 51.6484L37.194 52.87C37.2732 52.8872 37.3591 52.9051 37.4491 52.9217L37.6758 51.6924ZM37.459 51.6484L37.724 50.4269C37.685 50.4184 37.6499 50.4105 37.6171 50.4028L37.3291 51.6191L37.0411 52.8355C37.0945 52.8482 37.1461 52.8596 37.194 52.87L37.459 51.6484ZM37.3291 51.6191L37.6171 50.4028C37.546 50.3859 37.4736 50.3671 37.3995 50.3465L37.0645 51.5508L36.7294 52.755C36.8304 52.7832 36.9344 52.8102 37.0411 52.8355L37.3291 51.6191ZM37.0645 51.5508L37.3995 50.3465C37.3352 50.3286 37.353 50.3342 37.3296 50.3274L36.9795 51.5273L36.6294 52.7273C36.6553 52.7349 36.6788 52.7413 36.6946 52.7456C36.7138 52.7508 36.7204 52.7525 36.7294 52.755L37.0645 51.5508ZM36.9795 51.5273L37.3296 50.3274C37.2499 50.3041 37.171 50.2792 37.0928 50.2527L36.6914 51.4365L36.29 52.6203C36.4021 52.6583 36.5152 52.694 36.6294 52.7273L36.9795 51.5273ZM36.6914 51.4365L37.0928 50.2527C37.082 50.2491 37.0722 50.2458 37.0644 50.2433C37.0577 50.241 37.0489 50.2382 37.0453 50.237C37.0345 50.2334 37.0334 50.233 37.035 50.2336L36.6211 51.4131L36.2072 52.5926C36.2321 52.6013 36.2545 52.6086 36.2671 52.6128C36.2833 52.6181 36.2862 52.619 36.29 52.6203L36.6914 51.4365ZM36.6211 51.4131L37.035 50.2336C36.9879 50.2171 36.9452 50.2 36.8593 50.1667L36.4072 51.332L35.9551 52.4974C36.0112 52.5192 36.1101 52.5585 36.2072 52.5926L36.6211 51.4131ZM36.4072 51.332L36.8593 50.1667C36.7442 50.122 36.6385 50.0781 36.5399 50.0329L36.0186 51.1689L35.4972 52.305C35.6534 52.3767 35.8074 52.4401 35.9551 52.4974L36.4072 51.332ZM36.0186 51.1689L36.5399 50.0329C36.5205 50.0239 36.4998 50.0148 36.4921 50.0113C36.481 50.0063 36.479 50.0054 36.4797 50.0057L35.9453 51.1357L35.411 52.2658C35.4359 52.2775 35.4583 52.2876 35.4717 52.2936C35.4884 52.3011 35.4923 52.3028 35.4972 52.305L36.0186 51.1689ZM35.9453 51.1357L36.4797 50.0057C36.4798 50.0058 36.4764 50.0042 36.4612 49.9964C36.4505 49.991 36.4226 49.9767 36.3963 49.9637L35.8438 51.085L35.2912 52.2062C35.2988 52.21 35.3046 52.213 35.3277 52.2247C35.3462 52.2341 35.3766 52.2495 35.411 52.2658L35.9453 51.1357ZM35.8438 51.085L36.3963 49.9637C36.3159 49.9241 36.255 49.8936 36.1997 49.8637L35.6045 50.9629L35.0093 52.0621C35.1112 52.1173 35.2107 52.1665 35.2912 52.2062L35.8438 51.085ZM35.6045 50.9629L36.1997 49.8637C36.2039 49.8659 36.2052 49.8668 36.1956 49.8613C36.1923 49.8594 36.1847 49.855 36.178 49.8512C36.1706 49.847 36.1609 49.8415 36.15 49.8355L35.5439 50.9287L34.9379 52.022C34.9371 52.0215 34.9375 52.0217 34.9402 52.0233C34.9436 52.0252 34.946 52.0266 34.9528 52.0305C34.9633 52.0365 34.9847 52.0488 35.0093 52.0621L35.6045 50.9629ZM35.5439 50.9287L36.15 49.8355C36.0776 49.7953 36.0073 49.7545 35.939 49.7127L35.2871 50.7793L34.6352 51.8458C34.7358 51.9073 34.8368 51.9659 34.9379 52.022L35.5439 50.9287ZM35.2871 50.7793L35.939 49.7127C35.9189 49.7005 35.8975 49.6871 35.8732 49.6718L35.207 50.7295L34.5408 51.7872C34.5697 51.8054 34.6016 51.8253 34.6352 51.8458L35.2871 50.7793ZM35.207 50.7295L35.8732 49.6718C35.814 49.6345 35.7568 49.5972 35.7016 49.5595L34.998 50.5928L34.2945 51.626C34.3768 51.682 34.459 51.7357 34.5408 51.7872L35.207 50.7295ZM34.998 50.5928L35.7016 49.5595C35.6753 49.5417 35.648 49.5223 35.6078 49.4937L34.8838 50.5127L34.1598 51.5317C34.1954 51.557 34.2438 51.5915 34.2945 51.626L34.998 50.5928ZM34.8838 50.5127L35.6078 49.4937C35.5587 49.4588 35.5133 49.4258 35.4706 49.3935L34.7168 50.3906L33.963 51.3877C34.0302 51.4386 34.0963 51.4866 34.1598 51.5317L34.8838 50.5127ZM34.7168 50.3906L35.4706 49.3935C35.4326 49.3648 35.3977 49.3378 35.3648 49.3118L34.5879 50.291L33.811 51.2703C33.8632 51.3117 33.9143 51.3509 33.963 51.3877L34.7168 50.3906ZM34.5879 50.291L35.3648 49.3118C35.3164 49.2734 35.2668 49.2324 35.2149 49.1883L34.4053 50.1406L33.5956 51.093C33.6638 51.151 33.7357 51.2105 33.811 51.2703L34.5879 50.291ZM34.4053 50.1406L35.2149 49.1883C35.204 49.179 35.1941 49.1707 35.1861 49.1641C35.1794 49.1585 35.1701 49.1508 35.1664 49.1477C35.1552 49.1384 35.1536 49.137 35.1547 49.138L34.332 50.0791L33.5094 51.0202C33.5345 51.0422 33.5574 51.0612 33.5707 51.0722C33.5876 51.0862 33.5911 51.0891 33.5956 51.093L34.4053 50.1406ZM34.332 50.0791L35.1547 49.138C35.1003 49.0905 35.0435 49.0377 34.9786 48.976L34.1172 49.8818L33.2558 50.7877C33.3318 50.8599 33.4172 50.9397 33.5094 51.0202L34.332 50.0791ZM34.1172 49.8818L34.9786 48.976C34.9676 48.9656 34.9578 48.9565 34.9504 48.9497C34.9437 48.9435 34.9362 48.9366 34.9332 48.9339C34.9239 48.9253 34.9266 48.9277 34.9319 48.9329L34.0605 49.8291L33.1891 50.7253C33.213 50.7485 33.2347 50.7683 33.2444 50.7772C33.258 50.7897 33.257 50.7888 33.2558 50.7877L34.1172 49.8818ZM34.0605 49.8291L34.9319 48.9329C34.7934 48.7982 34.6614 48.6555 34.5359 48.5056L33.5771 49.3076L32.6184 50.1097C32.7971 50.3233 32.9873 50.5291 33.1891 50.7253L34.0605 49.8291ZM33.5771 49.3076L34.5144 48.4806L34.4998 48.464L33.5625 49.291L32.6252 50.118L32.6399 50.1346L33.5771 49.3076ZM33.5625 49.291L34.539 48.5107L34.3603 48.287L33.3838 49.0674L32.4073 49.8477L32.586 50.0714L33.5625 49.291ZM33.3838 49.0674L34.3775 48.3091C34.3277 48.2439 34.2772 48.1734 34.2235 48.0958L33.1953 48.8066L32.1671 49.5174C32.2355 49.6164 32.3097 49.7204 32.3901 49.8257L33.3838 49.0674ZM33.1953 48.8066L34.2235 48.0958C34.2252 48.0982 34.225 48.0981 34.2187 48.0885C34.2166 48.0853 34.2116 48.0776 34.2075 48.0714C34.2028 48.0644 34.1969 48.0554 34.1902 48.0455L33.1543 48.7451L32.1184 49.4448C32.1201 49.4471 32.1213 49.449 32.1307 49.4634C32.138 49.4744 32.1514 49.4948 32.1671 49.5174L33.1953 48.8066ZM33.1543 48.7451L34.1902 48.0455C34.1518 47.9887 34.1209 47.9423 34.0936 47.8988L33.0361 48.5654L31.9787 49.232C32.0278 49.3099 32.0766 49.3828 32.1184 49.4447L33.1543 48.7451ZM33.0361 48.5654L34.0936 47.8988C34.0702 47.8618 34.0459 47.8211 34.014 47.7673L32.9385 48.4043L31.863 49.0413C31.8951 49.0956 31.9351 49.1628 31.9787 49.232L33.0361 48.5654ZM32.9385 48.4043L34.014 47.7673C33.9814 47.7123 33.9799 47.7107 33.9676 47.6893L32.8818 48.3086L31.796 48.9279C31.8205 48.9709 31.8578 49.0325 31.863 49.0413L32.9385 48.4043ZM32.8818 48.3086L33.9676 47.6893C33.9482 47.6552 33.9281 47.618 33.9001 47.5658L32.7988 48.1572L31.6976 48.7486C31.724 48.7979 31.7585 48.8621 31.796 48.9279L32.8818 48.3086ZM32.7988 48.1572L33.9001 47.5658C33.8818 47.5319 33.8636 47.4969 33.8452 47.4608L32.7314 48.0283L31.6177 48.5959C31.6434 48.6462 31.6699 48.6972 31.6976 48.7486L32.7988 48.1572ZM32.7314 48.0283L33.8452 47.4608C33.8211 47.4136 33.8044 47.3806 33.7894 47.3494L32.6631 47.8916L31.5368 48.4338C31.566 48.4945 31.5955 48.5523 31.6177 48.5959L32.7314 48.0283ZM32.6631 47.8916L33.7894 47.3494C33.7695 47.3081 33.7507 47.268 33.7329 47.2286L32.5938 47.7432L31.4546 48.2577C31.4818 48.318 31.5093 48.3767 31.5368 48.4338L32.6631 47.8916ZM32.5938 47.7432L33.7329 47.2286C33.7121 47.1824 33.6961 47.1466 33.682 47.1134L32.5312 47.6016L31.3805 48.0897C31.4067 48.1516 31.433 48.2099 31.4546 48.2577L32.5938 47.7432ZM32.5312 47.6016L33.682 47.1134C33.6181 46.9628 33.5608 46.8089 33.5105 46.6521L32.3203 47.0342L31.1301 47.4163C31.2037 47.6454 31.2873 47.87 31.3805 48.0897L32.5312 47.6016ZM32.3203 47.0342L33.5105 46.6521C33.4998 46.6189 33.4926 46.5927 33.4718 46.5219L32.2725 46.874L31.0731 47.2262C31.0837 47.2625 31.1068 47.3434 31.1301 47.4163L32.3203 47.0342ZM32.2725 46.874L33.4718 46.5219C33.4555 46.4662 33.4461 46.4347 33.4376 46.4029L32.2305 46.7275L31.0234 47.0522C31.0412 47.1186 31.0608 47.1844 31.0731 47.2262L32.2725 46.874ZM32.2305 46.7275L33.4376 46.4029C33.429 46.3711 33.4211 46.3383 33.4076 46.2831L32.1934 46.5801L30.9791 46.8771C30.9898 46.9205 31.0056 46.9862 31.0234 47.0521L32.2305 46.7275ZM32.1934 46.5801L33.4076 46.2831C33.3947 46.2306 33.3841 46.1855 33.375 46.1435L32.1533 46.4082L30.9317 46.6729C30.9475 46.7461 30.9641 46.8154 30.9792 46.8771L32.1934 46.5801ZM32.1533 46.4082L33.375 46.1435C33.3667 46.1054 33.3586 46.0654 33.3504 46.0229L32.123 46.2598L30.8957 46.4967C30.9067 46.5535 30.9186 46.6125 30.9317 46.6729L32.1533 46.4082ZM32.123 46.2598L33.3504 46.0229C33.3414 45.9764 33.3332 45.931 33.3258 45.8864L32.0928 46.0918L30.8598 46.2972C30.8711 46.3651 30.8831 46.4316 30.8957 46.4967L32.123 46.2598ZM32.0928 46.0918L33.3258 45.8864C33.3188 45.8448 33.3144 45.8182 33.3106 45.7927L32.0742 45.9766L30.8378 46.1604C30.8455 46.212 30.8539 46.2621 30.8598 46.2972L32.0928 46.0918ZM32.0742 45.9766L33.3106 45.7927C33.3024 45.7375 33.2949 45.6791 33.2876 45.6164L32.0459 45.7598L30.8041 45.9032C30.8137 45.9856 30.8246 46.0719 30.8378 46.1604L32.0742 45.9766ZM32.0459 45.7598L33.2876 45.6164C33.281 45.5585 33.2788 45.5433 33.2764 45.5179L32.0322 45.6387L30.7881 45.7595C30.7935 45.815 30.8015 45.8804 30.8041 45.9032L32.0459 45.7598ZM32.0322 45.6387L33.2764 45.5178C33.2591 45.3402 33.25 45.1624 33.25 44.9844L32 44.9844L30.75 44.9844C30.75 45.2478 30.7635 45.5064 30.7881 45.7595L32.0322 45.6387ZM32 44.9844H33.25C33.25 44.8542 33.2562 44.7184 33.2671 44.5733L32.0205 44.4805L30.774 44.3876C30.76 44.5753 30.75 44.7756 30.75 44.9844H32ZM32.0205 44.4805L33.2671 44.5733C33.2778 44.4297 33.2921 44.2949 33.3113 44.1673L32.0752 43.9814L30.8391 43.7956C30.8088 43.9969 30.7883 44.1951 30.774 44.3876L32.0205 44.4805ZM32.0752 43.9814L33.3113 44.1673C33.3158 44.1377 33.318 44.1288 33.3306 44.0554L32.0986 43.8438L30.8667 43.6321C30.8635 43.6503 30.8485 43.733 30.8391 43.7956L32.0752 43.9814ZM32.0986 43.8438L33.3306 44.0554C33.3442 43.9761 33.3484 43.9483 33.3557 43.9117L32.1299 43.667L30.9041 43.4223C30.888 43.5029 30.8734 43.5932 30.8667 43.6321L32.0986 43.8438ZM32.1299 43.667L33.3557 43.9117C33.3632 43.874 33.3661 43.8668 33.3878 43.7713L32.1689 43.4941L30.9501 43.217C30.9456 43.2364 30.9197 43.3439 30.9041 43.4223L32.1299 43.667ZM32.1689 43.4941L33.3878 43.7713C33.4028 43.7054 33.4077 43.682 33.4154 43.6515L32.2031 43.3467L30.9909 43.0419C30.974 43.1091 30.9575 43.1843 30.9501 43.217L32.1689 43.4941ZM32.2031 43.3467L33.4154 43.6515C33.423 43.6213 33.4282 43.6043 33.4473 43.5349L32.2422 43.2031L31.037 42.8713C31.0298 42.8974 31.0075 42.9758 30.9909 43.0419L32.2031 43.3467ZM32.2422 43.2031L33.4473 43.5349C33.4728 43.4426 33.4754 43.4289 33.4866 43.392L32.291 43.0273L31.0954 42.6627C31.0712 42.7419 31.044 42.8462 31.037 42.8713L32.2422 43.2031ZM32.291 43.0273L33.4866 43.392C33.4967 43.3592 33.5021 43.3454 33.5282 43.2667L32.3418 42.873L31.1554 42.4794C31.1475 42.5033 31.117 42.5918 31.0954 42.6627L32.291 43.0273ZM32.3418 42.873L33.5282 43.2667C33.5518 43.1955 33.5537 43.1875 33.5637 43.1595L32.3857 42.7412L31.2078 42.3229C31.1868 42.3822 31.161 42.4625 31.1554 42.4794L32.3418 42.873ZM32.3857 42.7412L33.5637 43.1595C33.5786 43.1176 33.5952 43.0752 33.6227 43.0047L32.458 42.5508L31.2934 42.0968C31.2716 42.1527 31.2384 42.2367 31.2078 42.3229L32.3857 42.7412ZM32.458 42.5508L33.6227 43.0047C33.6465 42.9437 33.6497 42.9341 33.6598 42.9094L32.5039 42.4336L31.348 41.9578C31.3262 42.0107 31.3 42.0797 31.2934 42.0968L32.458 42.5508ZM32.5039 42.4336L33.6598 42.9094C33.6747 42.8732 33.6916 42.8342 33.7131 42.7854L32.5693 42.2812L31.4255 41.7771C31.4025 41.8294 31.3752 41.8917 31.348 41.9578L32.5039 42.4336ZM32.5693 42.2812L33.7131 42.7854C33.7327 42.7412 33.7498 42.703 33.7663 42.6678L32.6348 42.1367L31.5032 41.6057C31.4748 41.6662 31.4487 41.7245 31.4255 41.7771L32.5693 42.2812ZM32.6348 42.1367L33.7663 42.6678C33.782 42.6344 33.7995 42.5987 33.8205 42.5565L32.7012 42L31.5819 41.4435C31.5578 41.492 31.5306 41.5472 31.5032 41.6057L32.6348 42.1367ZM32.7012 42L33.8205 42.5565C33.8495 42.4981 33.8664 42.4639 33.884 42.4307L32.7793 41.8457L31.6746 41.2607C31.6383 41.3293 31.6042 41.3985 31.5819 41.4435L32.7012 42ZM32.7793 41.8457L33.884 42.4307C33.9025 42.3956 33.9234 42.3584 33.9525 42.3066L32.8633 41.6934L31.774 41.0802C31.7463 41.1294 31.7104 41.1932 31.6746 41.2607L32.7793 41.8457ZM32.8633 41.6934L33.9525 42.3066C33.9717 42.2726 33.9864 42.2466 34.0003 42.2229L32.9219 41.5908L31.8435 40.9587C31.8176 41.0029 31.7935 41.0455 31.774 41.0802L32.8633 41.6934ZM32.9219 41.5908L34.0003 42.2229C34.0238 42.1828 34.0494 42.1408 34.0776 42.0954L33.0166 41.4346L31.9556 40.7737C31.9195 40.8317 31.8816 40.8937 31.8435 40.9587L32.9219 41.5908ZM33.0166 41.4346L34.0776 42.0954C34.1085 42.0459 34.1318 42.0088 34.1541 41.975L33.1104 41.2871L32.0666 40.5993C32.0248 40.6627 31.9863 40.7243 31.9556 40.7737L33.0166 41.4346ZM33.1104 41.2871L34.1541 41.975C34.1722 41.9475 34.1893 41.9219 34.2059 41.8976L33.1738 41.1924L32.1417 40.4872C32.1155 40.5256 32.0904 40.5632 32.0666 40.5993L33.1104 41.2871ZM33.1738 41.1924L34.2059 41.8976C34.2377 41.851 34.2719 41.803 34.3089 41.7523L33.2998 41.0146L32.2907 40.277C32.242 40.3436 32.1919 40.4138 32.1417 40.4872L33.1738 41.1924ZM33.2998 41.0146L34.3089 41.7523C34.3246 41.7309 34.3414 41.7084 34.36 41.6837L33.3623 40.9307L32.3646 40.1777C32.3412 40.2087 32.3162 40.242 32.2907 40.277L33.2998 41.0146ZM33.3623 40.9307L34.36 41.6837C34.3892 41.6451 34.4184 41.6073 34.4479 41.5702L33.4697 40.792L32.4915 40.0138C32.4482 40.0682 32.4059 40.1229 32.3646 40.1777L33.3623 40.9307ZM33.4697 40.792L34.4479 41.5702C34.4826 41.5266 34.5108 41.4916 34.5374 41.4599L33.5791 40.6572L32.6208 39.8546C32.5731 39.9116 32.5289 39.9669 32.4915 40.0138L33.4697 40.792ZM33.5791 40.6572L34.5374 41.4599C34.559 41.434 34.5662 41.4271 34.6207 41.3649L33.6807 40.541L32.7406 39.7171C32.7273 39.7323 32.6652 39.8016 32.6208 39.8546L33.5791 40.6572ZM33.6807 40.541L34.6207 41.3649C34.6708 41.3078 34.6875 41.2879 34.7118 41.2615L33.792 40.415L32.8722 39.5686C32.8205 39.6247 32.7644 39.6899 32.7406 39.7171L33.6807 40.541ZM33.792 40.415L34.7118 41.2615C34.7298 41.2419 34.7471 41.224 34.7815 41.188L33.877 40.3252L32.9724 39.4624C32.9499 39.4861 32.91 39.5276 32.8722 39.5686L33.792 40.415ZM33.877 40.3252L34.7815 41.188C34.8157 41.1521 34.8486 41.1183 34.8807 41.0863L33.998 40.2012L33.1154 39.3161C33.0657 39.3656 33.018 39.4147 32.9724 39.4624L33.877 40.3252ZM33.998 40.2012L34.8807 41.0863C34.9194 41.0477 34.9526 41.015 34.984 40.9853L34.124 40.0781L33.2641 39.1709C33.2102 39.222 33.1598 39.2718 33.1154 39.3161L33.998 40.2012ZM34.124 40.0781L34.984 40.9853C35.0224 40.9489 35.047 40.9255 35.0712 40.9035L34.2305 39.9785L33.3897 39.0535C33.342 39.0969 33.2962 39.1405 33.2641 39.1709L34.124 40.0781ZM34.2305 39.9785L35.0712 40.9035C35.1009 40.8765 35.1326 40.8493 35.1819 40.8067L34.3652 39.8604L33.5486 38.914C33.5074 38.9496 33.4484 39.0002 33.3897 39.0535L34.2305 39.9785ZM34.3652 39.8604L35.1819 40.8067C35.2202 40.7736 35.2388 40.7573 35.2596 40.7401L34.46 39.7793L33.6603 38.8185C33.6172 38.8544 33.5731 38.8928 33.5486 38.914L34.3652 39.8604ZM34.46 39.7793L35.2596 40.7401C35.2962 40.7096 35.3364 40.6779 35.392 40.6344L34.6211 39.6504L33.8502 38.6664C33.7974 38.7077 33.7294 38.761 33.6603 38.8185L34.46 39.7793ZM34.6211 39.6504L35.392 40.6344C35.4395 40.5971 35.4508 40.5878 35.472 40.5717L34.7188 39.5742L33.9655 38.5767C33.9208 38.6104 33.8676 38.6528 33.8502 38.6664L34.6211 39.6504ZM34.7188 39.5742L35.472 40.5717C35.499 40.5514 35.5241 40.5336 35.5756 40.4965L34.8447 39.4824L34.1139 38.4684C34.081 38.4921 34.0214 38.5344 33.9655 38.5767L34.7188 39.5742ZM34.8447 39.4824L35.5756 40.4965C35.6297 40.4575 35.6587 40.4364 35.6894 40.4153L34.9834 39.3838L34.2774 38.3522C34.2145 38.3953 34.1517 38.4411 34.1139 38.4684L34.8447 39.4824ZM34.9834 39.3838L35.6894 40.4153C35.7138 40.3986 35.7196 40.3956 35.7809 40.3554L35.0947 39.3105L34.4085 38.2657C34.3956 38.2742 34.3262 38.3188 34.2774 38.3522L34.9834 39.3838ZM35.0947 39.3105L35.7809 40.3554C35.8511 40.3093 35.8797 40.2898 35.9155 40.2677L35.2588 39.2041L34.602 38.1405C34.5268 38.187 34.4473 38.2403 34.4085 38.2657L35.0947 39.3105ZM35.2588 39.2041L35.9155 40.2677C35.9083 40.2721 35.9035 40.2749 35.9025 40.2755C35.9019 40.2758 35.9028 40.2753 35.9086 40.272C35.9126 40.2698 35.9236 40.2637 35.934 40.2577C35.9454 40.2513 35.9608 40.2424 35.9783 40.2319L35.335 39.1602L34.6916 38.0884C34.6966 38.0855 34.6993 38.0839 34.6979 38.0847C34.6956 38.086 34.6937 38.0871 34.685 38.092C34.6727 38.0989 34.6392 38.1176 34.602 38.1405L35.2588 39.2041ZM35.335 39.1602L35.9783 40.2319C36.0573 40.1845 36.0956 40.1609 36.1386 40.1369L35.5303 39.0449L34.922 37.9529C34.8328 38.0026 34.7421 38.0581 34.6916 38.0884L35.335 39.1602ZM35.5303 39.0449L36.1386 40.1369C36.2531 40.0731 36.3755 40.0115 36.507 39.9502L35.9785 38.8174L35.4501 37.6846C35.2768 37.7654 35.0995 37.854 34.922 37.9529L35.5303 39.0449ZM35.9785 38.8174L36.507 39.9502C36.5851 39.9137 36.6664 39.8783 36.7509 39.8435L36.2754 38.6875L35.7999 37.5315C35.6841 37.5791 35.5673 37.6299 35.4501 37.6846L35.9785 38.8174ZM36.2754 38.6875L36.7509 39.8435C36.8283 39.8117 36.9082 39.781 36.9909 39.7513L36.5674 38.5752L36.1439 37.3991C36.0298 37.4402 35.915 37.4841 35.7999 37.5315L36.2754 38.6875ZM36.5674 38.5752L36.9909 39.7513C37.0929 39.7145 37.193 39.6812 37.2919 39.6517L36.9336 38.4541L36.5753 37.2565C36.4269 37.3009 36.2831 37.349 36.1439 37.3991L36.5674 38.5752ZM36.9336 38.4541L37.2919 39.6517C37.3516 39.6338 37.3364 39.6378 37.3585 39.6315L37.0146 38.4297L36.6708 37.2279C36.6461 37.235 36.624 37.2417 36.6088 37.2463C36.5905 37.2519 36.5842 37.2539 36.5753 37.2565L36.9336 38.4541ZM37.0146 38.4297L37.3585 39.6315C37.3892 39.6227 37.3879 39.624 37.4677 39.6028L37.1475 38.3945L36.8272 37.1863C36.8183 37.1886 36.7281 37.2115 36.6708 37.2279L37.0146 38.4297ZM37.1475 38.3945L37.4677 39.6028C37.5696 39.5758 37.5888 39.5693 37.6331 39.559L37.3486 38.3418L37.0642 37.1246C36.9731 37.1459 36.8591 37.1778 36.8272 37.1863L37.1475 38.3945ZM37.3486 38.3418L37.6331 39.559C37.6317 39.5593 37.6341 39.5587 37.6496 39.5556C37.6603 39.5534 37.6893 39.5476 37.7167 39.5416L37.4502 38.3203L37.1837 37.0991C37.1773 37.1004 37.1723 37.1014 37.1491 37.1062C37.1307 37.1099 37.0992 37.1164 37.0642 37.1246L37.3486 38.3418ZM37.4502 38.3203L37.7167 39.5416C37.7744 39.529 37.825 39.5184 37.8726 39.5093L37.6396 38.2812L37.4067 37.0532C37.3273 37.0682 37.2518 37.0842 37.1837 37.0991L37.4502 38.3203ZM37.6396 38.2812L37.8673 39.5104L37.92 39.5006L37.6924 38.2715L37.4648 37.0424L37.412 37.0521L37.6396 38.2812ZM37.6924 38.2715L37.916 39.5013C37.9512 39.4949 37.9524 39.4958 38.0424 39.4815L37.8457 38.2471L37.649 37.0126C37.6366 37.0146 37.5352 37.0296 37.4687 37.0417L37.6924 38.2715ZM37.8457 38.2471L38.0424 39.4815C38.1482 39.4647 38.1166 39.4681 38.1558 39.4627L37.9834 38.2246L37.811 36.9865C37.7686 36.9925 37.7304 36.9989 37.7048 37.0032C37.6738 37.0085 37.6633 37.0104 37.649 37.0126L37.8457 38.2471ZM37.9834 38.2246L38.1558 39.4627C38.357 39.4347 38.5599 39.4165 38.7643 39.4094L38.7207 38.1602L38.6771 36.9109C38.3828 36.9212 38.0938 36.9472 37.811 36.9865L37.9834 38.2246ZM38.7207 38.1602L39.7842 38.817C41.1016 36.684 43.4996 35.2501 46.25 35.25L46.25 34L46.25 32.75C42.6139 32.7501 39.4199 34.6492 37.6572 37.5033L38.7207 38.1602Z" fill="#8040BF" mask="url(#path-40-inside-1_10774_83727)"/>
<path d="M59.7539 42.6562H49.7539C49.4887 42.6562 49.2343 42.7682 49.0468 42.9674C48.8593 43.1667 48.7539 43.437 48.7539 43.7187V47.4375C48.7539 50.9384 50.3489 53.0601 51.687 54.2236C53.1283 55.476 54.562 55.901 54.6245 55.9189C54.7105 55.9437 54.8011 55.9437 54.887 55.9189C54.9495 55.901 56.3814 55.476 57.8245 54.2236C59.1589 53.0601 60.7539 50.9384 60.7539 47.4375V43.7187C60.7539 43.437 60.6485 43.1667 60.461 42.9674C60.2735 42.7682 60.0191 42.6562 59.7539 42.6562Z" fill="#141217"/>
<path d="M59.7539 42.6562H49.7539C49.4887 42.6562 49.2343 42.7682 49.0468 42.9674C48.8593 43.1667 48.7539 43.437 48.7539 43.7188V47.4375C48.7539 50.9384 50.3489 53.0601 51.687 54.2236C53.1283 55.476 54.562 55.901 54.6245 55.9189C54.7105 55.9437 54.8011 55.9437 54.887 55.9189C54.9495 55.901 56.3814 55.476 57.8245 54.2236C59.1589 53.0601 60.7539 50.9384 60.7539 47.4375V43.7188C60.7539 43.437 60.6485 43.1667 60.461 42.9674C60.2735 42.7682 60.0191 42.6562 59.7539 42.6562ZM57.6089 47.2821L54.1089 51.0009C54.0625 51.0503 54.0073 51.0894 53.9466 51.1162C53.8859 51.1429 53.8209 51.1567 53.7552 51.1567C53.6894 51.1567 53.6244 51.1429 53.5637 51.1162C53.503 51.0894 53.4478 51.0503 53.4014 51.0009L51.9014 49.4071C51.8076 49.3074 51.7549 49.1722 51.7549 49.0312C51.7549 48.8903 51.8076 48.7551 51.9014 48.6554C51.9952 48.5557 52.1225 48.4997 52.2552 48.4997C52.3878 48.4997 52.5151 48.5557 52.6089 48.6554L53.7539 49.8739L56.9002 46.5304C56.9466 46.481 57.0018 46.4419 57.0625 46.4152C57.1232 46.3885 57.1882 46.3747 57.2539 46.3747C57.3196 46.3747 57.3847 46.3885 57.4454 46.4152C57.5061 46.4419 57.5612 46.481 57.6077 46.5304C57.6541 46.5797 57.691 46.6383 57.7161 46.7028C57.7412 46.7673 57.7542 46.8364 57.7542 46.9062C57.7542 46.9761 57.7412 47.0452 57.7161 47.1097C57.691 47.1742 57.6541 47.2328 57.6077 47.2821H57.6089Z" fill="#4AA578"/>
</g>
<path d="M16 24.5H78C79.933 24.5 81.5 26.067 81.5 28V67C81.5 68.933 79.933 70.5 78 70.5H16C14.067 70.5 12.5 68.933 12.5 67V28C12.5 26.067 14.067 24.5 16 24.5Z" stroke="#8040BF" stroke-opacity="0.4"/>
</g>
</g>
</g>
</g>
<defs>
<filter id="filter0_di_10774_83727" x="0" y="0" width="94" height="64" filterUnits="userSpaceOnUse" color-interpolation-filters="sRGB">
<feFlood flood-opacity="0" result="BackgroundImageFix"/>
<feColorMatrix in="SourceAlpha" type="matrix" values="0 0 0 0 0 0 0 0 0 0 0 0 0 0 0 0 0 0 127 0" result="hardAlpha"/>
<feOffset dy="1"/>
<feGaussianBlur stdDeviation="1"/>
<feComposite in2="hardAlpha" operator="out"/>
<feColorMatrix type="matrix" values="0 0 0 0 0 0 0 0 0 0 0 0 0 0 0 0 0 0 0.4 0"/>
<feBlend mode="normal" in2="BackgroundImageFix" result="effect1_dropShadow_10774_83727"/>
<feBlend mode="normal" in="SourceGraphic" in2="effect1_dropShadow_10774_83727" result="shape"/>
<feColorMatrix in="SourceAlpha" type="matrix" values="0 0 0 0 0 0 0 0 0 0 0 0 0 0 0 0 0 0 127 0" result="hardAlpha"/>
<feMorphology radius="2" operator="erode" in="SourceAlpha" result="effect2_innerShadow_10774_83727"/>
<feOffset/>
<feComposite in2="hardAlpha" operator="arithmetic" k2="-1" k3="1"/>
<feColorMatrix type="matrix" values="0 0 0 0 1 0 0 0 0 1 0 0 0 0 1 0 0 0 0.12 0"/>
<feBlend mode="normal" in2="shape" result="effect2_innerShadow_10774_83727"/>
</filter>
<linearGradient id="paint0_linear_10774_83727" x1="45" y1="0" x2="45" y2="60" gradientUnits="userSpaceOnUse">
<stop stop-color="#8040BF" stop-opacity="0.24"/>
<stop offset="1" stop-color="#141217"/>
</linearGradient>
<linearGradient id="paint1_linear_10774_83727" x1="46.5946" y1="9.03571" x2="46.7716" y2="61.0008" gradientUnits="userSpaceOnUse">
<stop stop-color="white"/>
<stop offset="1" stop-color="white" stop-opacity="0.02"/>
</linearGradient>
<linearGradient id="paint2_linear_10774_83727" x1="10.4" y1="1" x2="22.1" y2="33.4" gradientUnits="userSpaceOnUse">
<stop stop-color="#C494F4"/>
<stop offset="1" stop-color="white" stop-opacity="0.02"/>
</linearGradient>
<linearGradient id="paint3_linear_10774_83727" x1="46.25" y1="34" x2="46.25" y2="51.8125" gradientUnits="userSpaceOnUse">
<stop stop-color="#7339AC"/>
<stop offset="1" stop-color="#8040BF" stop-opacity="0.16"/>
</linearGradient>
<clipPath id="clip0_10774_83727">
<path d="M2 11C2 5.47715 6.47715 1 12 1H82C87.5228 1 92 5.47715 92 11V51C92 56.5228 87.5228 61 82 61H12C6.47715 61 2 56.5228 2 51V11Z" fill="white"/>
</clipPath>
<clipPath id="clip1_10774_83727">
<rect width="90" height="60" fill="white" transform="translate(2 1)"/>
</clipPath>
<clipPath id="clip2_10774_83727">
<path d="M12 28C12 25.7909 13.7909 24 16 24H78C80.2091 24 82 25.7909 82 28V67C82 69.2091 80.2091 71 78 71H16C13.7909 71 12 69.2091 12 67V28Z" fill="white"/>
</clipPath>
</defs>
</svg>
