<svg width="64" height="64" viewBox="0 0 64 64" fill="none" xmlns="http://www.w3.org/2000/svg">
<rect x="0.5" y="0.5" width="63" height="63" fill="#141217"/>
<rect x="0.5" y="0.5" width="63" height="63" stroke="#8DE94C"/>
<path d="M36.7019 11L31.4037 13.9841V18.8154L27.1149 16.3986H27.1124L22 19.2778V35.1208L27.11 38H27.1124L32.5987 34.9086V30.2895L36.7019 32.599L42 29.6149V13.9841L36.7019 11ZM23.1975 19.9523L27.11 17.75H27.1124L31.4013 20.1645V28.2659L23.1975 23.6467V19.9523ZM31.4013 34.2341L27.11 36.6486L23.1975 34.4462V24.9958L31.4013 29.6149V34.2341V34.2341ZM40.8025 28.938L36.7019 31.2476L32.6012 28.9404V20.839L40.805 25.4582V28.938H40.8025ZM40.8025 24.1091L32.5987 19.4899V14.6586L36.7019 12.349L40.8025 14.6586V24.1091Z" fill="white"/>
<rect x="11.5" y="42.5" width="40.8856" height="13.52" fill="#243C13"/>
<rect x="11.5" y="42.5" width="40.8856" height="13.52" stroke="#8DE94C"/>
<path d="M18.848 51.06H15.884L15.104 53.52H14L16.736 45H18.008L20.744 53.52H19.64L18.848 51.06ZM17.36 45.984C17.136 46.968 16.744 48.34 16.184 50.1H18.548C18.012 48.428 17.624 47.056 17.384 45.984H17.36Z" fill="#8DE94C"/>
<path d="M22.0054 45H24.5014C25.2614 45 25.9134 45.18 26.4574 45.54C27.0094 45.9 27.4254 46.404 27.7054 47.052C27.9854 47.692 28.1254 48.424 28.1254 49.248C28.1254 50.064 27.9734 50.796 27.6694 51.444C27.3734 52.092 26.9494 52.6 26.3974 52.968C25.8534 53.336 25.2134 53.52 24.4774 53.52H22.0054V45ZM24.4654 52.584C24.9854 52.584 25.4334 52.432 25.8094 52.128C26.1854 51.824 26.4734 51.42 26.6734 50.916C26.8734 50.404 26.9734 49.848 26.9734 49.248C26.9734 48.632 26.8774 48.072 26.6854 47.568C26.5014 47.064 26.2214 46.668 25.8454 46.38C25.4774 46.084 25.0254 45.936 24.4894 45.936H23.1214V52.584H24.4654Z" fill="#8DE94C"/>
<path d="M32.7708 51.48H31.7388L30.9948 48.144C30.9308 47.888 30.8588 47.532 30.7788 47.076C30.6988 46.62 30.6428 46.244 30.6108 45.948H30.5388C30.5548 46.668 30.5628 47.428 30.5628 48.228V53.52H29.5068V45H31.1268L32.0868 49.452L32.2188 50.208H32.2908L32.4228 49.452L33.3828 45H35.0028V53.52H33.9468V48.228C33.9468 47.428 33.9548 46.668 33.9708 45.948H33.8988C33.8668 46.244 33.8108 46.62 33.7308 47.076C33.6508 47.532 33.5788 47.888 33.5148 48.144L32.7708 51.48Z" fill="#8DE94C"/>
<path d="M40.2482 45.9V52.62H42.3842V53.52H37.0082V52.62H39.1322V45.9H37.0082V45H42.3842V45.9H40.2482Z" fill="#8DE94C"/>
<path d="M48.3616 50.796C48.5616 51.268 48.6976 51.64 48.7696 51.912H48.7936C48.7776 51.72 48.7696 51.416 48.7696 51V45H49.8856V53.52H48.5776L45.9016 47.388C45.8136 47.196 45.7336 46.996 45.6616 46.788C45.5896 46.58 45.5416 46.444 45.5176 46.38H45.4816C45.4976 46.532 45.5056 46.776 45.5056 47.112V53.52H44.3896V45H45.8536L48.3616 50.796Z" fill="#8DE94C"/>
</svg>
