<svg width="500" height="500" viewBox="0 0 500 500" fill="none" xmlns="http://www.w3.org/2000/svg">
<g clip-path="url(#clip0_751_3386)">
<rect width="199" height="38" transform="translate(284 167)" fill="#256A7F"/>
<path d="M300.605 192.255C299.355 192.255 298.41 191.805 297.77 190.905C297.13 189.995 296.81 188.715 296.81 187.065V186.285C296.81 184.645 297.145 183.37 297.815 182.46C298.495 181.55 299.465 181.095 300.725 181.095C302.955 181.095 304.205 182.345 304.475 184.845L303.08 185.07C303.02 184.18 302.79 183.495 302.39 183.015C301.99 182.535 301.43 182.295 300.71 182.295C299.87 182.295 299.25 182.615 298.85 183.255C298.45 183.885 298.25 184.87 298.25 186.21V186.975C298.25 188.325 298.455 189.345 298.865 190.035C299.285 190.715 299.9 191.055 300.71 191.055C301.44 191.055 302 190.815 302.39 190.335C302.79 189.855 303.02 189.165 303.08 188.265L304.46 188.55C304.34 189.67 303.96 190.57 303.32 191.25C302.68 191.92 301.775 192.255 300.605 192.255ZM307.317 181.35V188.445C307.317 189.255 307.512 189.895 307.902 190.365C308.292 190.825 308.857 191.055 309.597 191.055C310.347 191.055 310.897 190.825 311.247 190.365C311.607 189.905 311.787 189.265 311.787 188.445V181.35H313.182V188.445C313.182 189.605 312.882 190.53 312.282 191.22C311.692 191.91 310.797 192.255 309.597 192.255C308.397 192.255 307.482 191.91 306.852 191.22C306.232 190.52 305.922 189.595 305.922 188.445V181.35H307.317ZM318.574 192.255C317.374 192.255 316.449 191.945 315.799 191.325C315.159 190.705 314.769 189.91 314.629 188.94L315.979 188.67C316.109 189.38 316.384 189.96 316.804 190.41C317.224 190.86 317.809 191.085 318.559 191.085C319.159 191.085 319.669 190.955 320.089 190.695C320.519 190.435 320.734 190 320.734 189.39C320.734 188.76 320.579 188.315 320.269 188.055C319.969 187.785 319.549 187.575 319.009 187.425L317.584 187.05C316.774 186.83 316.134 186.48 315.664 186C315.194 185.51 314.959 184.875 314.959 184.095C314.959 183.565 315.099 183.07 315.379 182.61C315.659 182.15 316.054 181.785 316.564 181.515C317.084 181.235 317.679 181.095 318.349 181.095C319.399 181.095 320.259 181.335 320.929 181.815C321.599 182.295 321.984 183.05 322.084 184.08L320.749 184.47C320.689 183.69 320.439 183.13 319.999 182.79C319.569 182.44 319.034 182.265 318.394 182.265C317.684 182.265 317.169 182.435 316.849 182.775C316.539 183.105 316.384 183.505 316.384 183.975C316.384 184.425 316.534 184.805 316.834 185.115C317.144 185.415 317.539 185.635 318.019 185.775L319.384 186.135C320.244 186.365 320.919 186.7 321.409 187.14C321.909 187.58 322.159 188.265 322.159 189.195C322.159 189.725 322.029 190.225 321.769 190.695C321.519 191.155 321.124 191.53 320.584 191.82C320.044 192.11 319.374 192.255 318.574 192.255ZM331.39 181.35V182.55H328.045V192H326.635V182.55H323.29V181.35H331.39ZM336.257 192.255C334.977 192.255 334.007 191.81 333.347 190.92C332.697 190.02 332.372 188.765 332.372 187.155V186.195C332.372 184.585 332.697 183.335 333.347 182.445C334.007 181.545 334.977 181.095 336.257 181.095C337.537 181.095 338.502 181.545 339.152 182.445C339.812 183.335 340.142 184.585 340.142 186.195V187.155C340.142 188.765 339.812 190.02 339.152 190.92C338.502 191.81 337.537 192.255 336.257 192.255ZM336.257 191.055C337.087 191.055 337.697 190.74 338.087 190.11C338.487 189.48 338.687 188.495 338.687 187.155V186.195C338.687 184.855 338.487 183.87 338.087 183.24C337.697 182.61 337.087 182.295 336.257 182.295C335.427 182.295 334.812 182.61 334.412 183.24C334.022 183.87 333.827 184.855 333.827 186.195V187.155C333.827 188.495 334.022 189.48 334.412 190.11C334.812 190.74 335.427 191.055 336.257 191.055ZM345.804 189.45H344.514L343.584 185.28C343.504 184.96 343.414 184.515 343.314 183.945C343.214 183.375 343.144 182.905 343.104 182.535H343.014C343.034 183.435 343.044 184.385 343.044 185.385V192H341.724V181.35H343.749L344.949 186.915L345.114 187.86H345.204L345.369 186.915L346.569 181.35H348.594V192H347.274V185.385C347.274 184.385 347.284 183.435 347.304 182.535H347.214C347.174 182.905 347.104 183.375 347.004 183.945C346.904 184.515 346.814 184.96 346.734 185.28L345.804 189.45ZM357.211 182.55H352.381V185.955H356.956V187.125H352.381V190.8H357.316V192H350.986V181.35H357.211V182.55ZM362.932 187.545H360.982V192H359.587V181.35H363.007C364.157 181.35 365.042 181.62 365.662 182.16C366.292 182.7 366.607 183.465 366.607 184.455C366.607 185.175 366.407 185.785 366.007 186.285C365.607 186.785 365.052 187.13 364.342 187.32L366.937 192H365.392L362.932 187.545ZM360.982 186.435H362.947C363.657 186.435 364.197 186.27 364.567 185.94C364.947 185.6 365.137 185.115 365.137 184.485C365.137 183.845 364.947 183.36 364.567 183.03C364.197 182.69 363.657 182.52 362.947 182.52H360.982V186.435ZM384.261 190.785V192H377.511V190.785H380.421V183.72C379.991 184.24 379.236 184.5 378.156 184.5H377.646V183.285H378.081C378.801 183.285 379.366 183.13 379.776 182.82C380.186 182.51 380.471 182.095 380.631 181.575H381.696V190.785H384.261Z" fill="white"/>
<path d="M305.89 228.952C305.89 229.297 305.925 229.577 305.992 229.784C306.065 229.988 306.16 230.212 306.289 230.456C306.331 230.52 306.353 230.594 306.354 230.671C306.354 230.764 306.298 230.858 306.179 230.951L305.591 231.343C305.52 231.394 305.436 231.423 305.35 231.427C305.255 231.427 305.162 231.381 305.07 231.297C304.944 231.162 304.831 231.015 304.734 230.858C304.629 230.679 304.533 230.495 304.445 230.307C303.719 231.166 302.807 231.597 301.708 231.597C300.926 231.597 300.301 231.371 299.846 230.923C299.389 230.475 299.156 229.876 299.156 229.129C299.156 228.335 299.436 227.691 300.003 227.204C300.572 226.718 301.326 226.476 302.285 226.476C302.6 226.476 302.928 226.504 303.272 226.55C303.617 226.597 303.972 226.672 304.343 226.756V226.074C304.343 225.363 304.195 224.868 303.906 224.579C303.608 224.289 303.104 224.149 302.387 224.149C302.061 224.149 301.727 224.187 301.382 224.271C301.04 224.353 300.703 224.458 300.376 224.588C300.27 224.636 300.162 224.677 300.051 224.71C300.002 224.726 299.952 224.736 299.902 224.738C299.771 224.738 299.706 224.644 299.706 224.448V223.989C299.706 223.841 299.723 223.727 299.771 223.664C299.841 223.578 299.931 223.51 300.033 223.466C300.357 223.298 300.749 223.158 301.206 223.046C301.661 222.924 302.145 222.869 302.658 222.869C303.766 222.869 304.576 223.121 305.098 223.625C305.61 224.129 305.871 224.896 305.871 225.925V228.952H305.889H305.89ZM302.109 230.372C302.415 230.372 302.732 230.316 303.068 230.204C303.402 230.092 303.701 229.885 303.951 229.605C304.101 229.433 304.21 229.229 304.268 229.008C304.324 228.783 304.363 228.513 304.363 228.195V227.803C304.08 227.734 303.794 227.681 303.505 227.645C303.215 227.608 302.923 227.588 302.63 227.587C302.005 227.587 301.549 227.71 301.242 227.962C300.934 228.214 300.787 228.569 300.787 229.036C300.787 229.474 300.898 229.801 301.13 230.027C301.354 230.26 301.68 230.372 302.109 230.372ZM309.586 231.381C309.418 231.381 309.306 231.353 309.233 231.287C309.158 231.231 309.093 231.101 309.037 230.923L306.849 223.701C306.806 223.58 306.777 223.454 306.763 223.326C306.763 223.177 306.839 223.093 306.988 223.093H307.901C308.076 223.093 308.199 223.121 308.263 223.186C308.339 223.242 308.395 223.373 308.451 223.55L310.015 229.736L311.468 223.55C311.513 223.365 311.569 223.242 311.643 223.186C311.755 223.117 311.886 223.085 312.017 223.093H312.761C312.939 223.093 313.058 223.121 313.134 223.186C313.209 223.242 313.274 223.373 313.31 223.55L314.782 229.812L316.392 223.55C316.422 223.415 316.486 223.289 316.579 223.186C316.688 223.117 316.815 223.085 316.943 223.093H317.81C317.958 223.093 318.042 223.169 318.042 223.326C318.042 223.373 318.032 223.421 318.025 223.477C318.01 223.556 317.987 223.634 317.958 223.709L315.713 230.932C315.657 231.119 315.592 231.241 315.519 231.297C315.413 231.365 315.289 231.397 315.164 231.39H314.364C314.187 231.39 314.066 231.362 313.991 231.297C313.916 231.231 313.851 231.11 313.814 230.923L312.371 224.898L310.936 230.916C310.89 231.103 310.834 231.224 310.761 231.289C310.685 231.355 310.554 231.383 310.388 231.383H309.586V231.381ZM321.553 231.633C321.069 231.634 320.588 231.578 320.118 231.465C319.652 231.353 319.29 231.231 319.047 231.091C318.898 231.007 318.797 230.914 318.758 230.828C318.722 230.746 318.704 230.657 318.704 230.568V230.092C318.704 229.896 318.777 229.801 318.917 229.801C318.974 229.801 319.031 229.811 319.085 229.829C319.141 229.848 319.225 229.885 319.318 229.924C319.633 230.064 319.98 230.176 320.342 230.251C320.715 230.324 321.077 230.363 321.45 230.363C322.038 230.363 322.493 230.26 322.809 230.055C322.961 229.963 323.086 229.832 323.172 229.676C323.257 229.52 323.299 229.344 323.294 229.166C323.297 229.046 323.276 228.926 323.233 228.814C323.19 228.702 323.125 228.6 323.042 228.513C322.876 228.335 322.559 228.175 322.102 228.027L320.751 227.607C320.072 227.391 319.568 227.073 319.262 226.653C318.962 226.265 318.799 225.789 318.797 225.298C318.797 224.906 318.881 224.56 319.047 224.261C319.215 223.963 319.439 223.701 319.719 223.494C319.999 223.281 320.314 223.121 320.687 223.009C321.059 222.897 321.45 222.85 321.859 222.85C322.066 222.85 322.279 222.859 322.484 222.887C322.697 222.915 322.893 222.953 323.089 222.992C323.275 223.037 323.453 223.083 323.62 223.141C323.788 223.197 323.917 223.253 324.012 223.309C324.121 223.364 324.217 223.443 324.292 223.541C324.351 223.632 324.38 223.74 324.374 223.849V224.289C324.374 224.485 324.3 224.588 324.16 224.588C324.036 224.574 323.916 224.536 323.807 224.476C323.244 224.226 322.634 224.102 322.018 224.112C321.488 224.112 321.068 224.196 320.779 224.374C320.491 224.549 320.342 224.822 320.342 225.206C320.342 225.466 320.435 225.69 320.622 225.869C320.807 226.046 321.152 226.222 321.646 226.382L322.969 226.802C323.639 227.017 324.124 227.316 324.412 227.699C324.701 228.083 324.839 228.522 324.839 229.008C324.839 229.411 324.757 229.773 324.598 230.092C324.433 230.411 324.201 230.692 323.919 230.914C323.63 231.147 323.285 231.317 322.885 231.437C322.465 231.569 322.027 231.633 321.553 231.633Z" fill="white"/>
<path fill-rule="evenodd" clip-rule="evenodd" d="M323.314 234.483C320.251 236.753 315.799 237.958 311.972 237.958C306.608 237.958 301.775 235.969 298.124 232.661C297.835 232.399 298.096 232.043 298.439 232.25C302.389 234.548 307.259 235.941 312.299 235.941C315.696 235.941 319.43 235.23 322.867 233.772C323.38 233.54 323.818 234.108 323.314 234.483Z" fill="#FF9900"/>
<path fill-rule="evenodd" clip-rule="evenodd" d="M324.587 233.025C324.196 232.523 321.998 232.784 321.003 232.905C320.705 232.943 320.658 232.681 320.927 232.485C322.677 231.251 325.556 231.606 325.89 232.017C326.226 232.437 325.798 235.325 324.158 236.707C323.908 236.923 323.666 236.812 323.776 236.532C324.149 235.605 324.979 233.522 324.587 233.027V233.025Z" fill="#FF9900"/>
<path d="M366.003 229.811C366.003 228.66 365.908 227.82 365.702 226.949H352.289V232.144H360.162C360.003 233.435 359.146 235.38 357.241 236.686L357.215 236.86L361.456 240.08L361.749 240.109C364.448 237.666 366.003 234.073 366.003 229.811Z" fill="#4285F4"/>
<path d="M352.285 243.5C356.142 243.5 359.38 242.255 361.746 240.109L357.238 236.686C356.031 237.511 354.412 238.086 352.285 238.086C348.508 238.086 345.301 235.644 344.158 232.269L343.991 232.282L339.581 235.627L339.523 235.784C341.873 240.357 346.698 243.5 352.285 243.5Z" fill="#34A853"/>
<path d="M344.159 232.269C343.857 231.398 343.683 230.464 343.683 229.5C343.683 228.536 343.857 227.602 344.143 226.731L344.135 226.546L339.67 223.147L339.524 223.216C338.556 225.113 338 227.245 338 229.5C338 231.756 338.556 233.887 339.524 235.784L344.159 232.269Z" fill="#FBBC05"/>
<path d="M352.285 220.913C354.968 220.913 356.777 222.049 357.809 222.998L361.841 219.14C359.365 216.884 356.142 215.5 352.285 215.5C346.698 215.5 341.873 218.642 339.523 223.215L344.142 226.731C345.301 223.356 348.508 220.913 352.285 220.913Z" fill="#EB4335"/>
<path d="M391.076 237.221L396.935 236.185L396.989 236.173L393.975 232.587C392.965 231.391 391.96 230.191 390.96 228.985C390.96 228.968 394.073 220.395 394.091 220.365C395.813 223.314 397.525 226.269 399.225 229.231L404.388 238.182L404.428 238.25L385.269 238.248L391.076 237.221ZM379.578 236.129C379.578 236.124 380.997 233.658 382.733 230.65L385.89 225.178L389.569 222.091C391.592 220.395 393.253 219 393.258 219C393.245 219.052 393.225 219.102 393.2 219.149L389.203 227.717L385.283 236.131L382.431 236.134C380.861 236.136 379.578 236.134 379.578 236.129Z" fill="#0089D6"/>
</g>
<rect x="284.5" y="167.5" width="198" height="86" stroke="#256A7F"/>
<g clip-path="url(#clip1_751_3386)">
<rect width="199" height="38" transform="translate(284 281)" fill="#256A7F"/>
<path d="M300.605 306.255C299.355 306.255 298.41 305.805 297.77 304.905C297.13 303.995 296.81 302.715 296.81 301.065V300.285C296.81 298.645 297.145 297.37 297.815 296.46C298.495 295.55 299.465 295.095 300.725 295.095C302.955 295.095 304.205 296.345 304.475 298.845L303.08 299.07C303.02 298.18 302.79 297.495 302.39 297.015C301.99 296.535 301.43 296.295 300.71 296.295C299.87 296.295 299.25 296.615 298.85 297.255C298.45 297.885 298.25 298.87 298.25 300.21V300.975C298.25 302.325 298.455 303.345 298.865 304.035C299.285 304.715 299.9 305.055 300.71 305.055C301.44 305.055 302 304.815 302.39 304.335C302.79 303.855 303.02 303.165 303.08 302.265L304.46 302.55C304.34 303.67 303.96 304.57 303.32 305.25C302.68 305.92 301.775 306.255 300.605 306.255ZM307.317 295.35V302.445C307.317 303.255 307.512 303.895 307.902 304.365C308.292 304.825 308.857 305.055 309.597 305.055C310.347 305.055 310.897 304.825 311.247 304.365C311.607 303.905 311.787 303.265 311.787 302.445V295.35H313.182V302.445C313.182 303.605 312.882 304.53 312.282 305.22C311.692 305.91 310.797 306.255 309.597 306.255C308.397 306.255 307.482 305.91 306.852 305.22C306.232 304.52 305.922 303.595 305.922 302.445V295.35H307.317ZM318.574 306.255C317.374 306.255 316.449 305.945 315.799 305.325C315.159 304.705 314.769 303.91 314.629 302.94L315.979 302.67C316.109 303.38 316.384 303.96 316.804 304.41C317.224 304.86 317.809 305.085 318.559 305.085C319.159 305.085 319.669 304.955 320.089 304.695C320.519 304.435 320.734 304 320.734 303.39C320.734 302.76 320.579 302.315 320.269 302.055C319.969 301.785 319.549 301.575 319.009 301.425L317.584 301.05C316.774 300.83 316.134 300.48 315.664 300C315.194 299.51 314.959 298.875 314.959 298.095C314.959 297.565 315.099 297.07 315.379 296.61C315.659 296.15 316.054 295.785 316.564 295.515C317.084 295.235 317.679 295.095 318.349 295.095C319.399 295.095 320.259 295.335 320.929 295.815C321.599 296.295 321.984 297.05 322.084 298.08L320.749 298.47C320.689 297.69 320.439 297.13 319.999 296.79C319.569 296.44 319.034 296.265 318.394 296.265C317.684 296.265 317.169 296.435 316.849 296.775C316.539 297.105 316.384 297.505 316.384 297.975C316.384 298.425 316.534 298.805 316.834 299.115C317.144 299.415 317.539 299.635 318.019 299.775L319.384 300.135C320.244 300.365 320.919 300.7 321.409 301.14C321.909 301.58 322.159 302.265 322.159 303.195C322.159 303.725 322.029 304.225 321.769 304.695C321.519 305.155 321.124 305.53 320.584 305.82C320.044 306.11 319.374 306.255 318.574 306.255ZM331.39 295.35V296.55H328.045V306H326.635V296.55H323.29V295.35H331.39ZM336.257 306.255C334.977 306.255 334.007 305.81 333.347 304.92C332.697 304.02 332.372 302.765 332.372 301.155V300.195C332.372 298.585 332.697 297.335 333.347 296.445C334.007 295.545 334.977 295.095 336.257 295.095C337.537 295.095 338.502 295.545 339.152 296.445C339.812 297.335 340.142 298.585 340.142 300.195V301.155C340.142 302.765 339.812 304.02 339.152 304.92C338.502 305.81 337.537 306.255 336.257 306.255ZM336.257 305.055C337.087 305.055 337.697 304.74 338.087 304.11C338.487 303.48 338.687 302.495 338.687 301.155V300.195C338.687 298.855 338.487 297.87 338.087 297.24C337.697 296.61 337.087 296.295 336.257 296.295C335.427 296.295 334.812 296.61 334.412 297.24C334.022 297.87 333.827 298.855 333.827 300.195V301.155C333.827 302.495 334.022 303.48 334.412 304.11C334.812 304.74 335.427 305.055 336.257 305.055ZM345.804 303.45H344.514L343.584 299.28C343.504 298.96 343.414 298.515 343.314 297.945C343.214 297.375 343.144 296.905 343.104 296.535H343.014C343.034 297.435 343.044 298.385 343.044 299.385V306H341.724V295.35H343.749L344.949 300.915L345.114 301.86H345.204L345.369 300.915L346.569 295.35H348.594V306H347.274V299.385C347.274 298.385 347.284 297.435 347.304 296.535H347.214C347.174 296.905 347.104 297.375 347.004 297.945C346.904 298.515 346.814 298.96 346.734 299.28L345.804 303.45ZM357.211 296.55H352.381V299.955H356.956V301.125H352.381V304.8H357.316V306H350.986V295.35H357.211V296.55ZM362.932 301.545H360.982V306H359.587V295.35H363.007C364.157 295.35 365.042 295.62 365.662 296.16C366.292 296.7 366.607 297.465 366.607 298.455C366.607 299.175 366.407 299.785 366.007 300.285C365.607 300.785 365.052 301.13 364.342 301.32L366.937 306H365.392L362.932 301.545ZM360.982 300.435H362.947C363.657 300.435 364.197 300.27 364.567 299.94C364.947 299.6 365.137 299.115 365.137 298.485C365.137 297.845 364.947 297.36 364.567 297.03C364.197 296.69 363.657 296.52 362.947 296.52H360.982V300.435ZM377.271 304.89C378.481 304 379.661 303.005 380.811 301.905C381.471 301.265 381.931 300.695 382.191 300.195C382.451 299.695 382.581 299.135 382.581 298.515C382.581 297.875 382.411 297.385 382.071 297.045C381.741 296.695 381.276 296.52 380.676 296.52C380.076 296.52 379.601 296.69 379.251 297.03C378.901 297.37 378.726 297.825 378.726 298.395C378.726 298.635 378.766 298.955 378.846 299.355L377.496 299.22C377.426 298.94 377.391 298.66 377.391 298.38C377.391 297.45 377.691 296.715 378.291 296.175C378.891 295.625 379.711 295.35 380.751 295.35C381.771 295.35 382.566 295.625 383.136 296.175C383.706 296.715 383.991 297.49 383.991 298.5C383.991 299.23 383.801 299.93 383.421 300.6C383.051 301.27 382.461 301.98 381.651 302.73C380.851 303.47 379.996 304.155 379.086 304.785H384.111V306H377.271V304.89Z" fill="white"/>
<path d="M305.89 342.952C305.89 343.297 305.925 343.577 305.992 343.784C306.065 343.988 306.16 344.212 306.289 344.456C306.331 344.52 306.353 344.594 306.354 344.671C306.354 344.764 306.298 344.858 306.179 344.951L305.591 345.343C305.52 345.394 305.436 345.423 305.35 345.427C305.255 345.427 305.162 345.381 305.07 345.297C304.944 345.162 304.831 345.015 304.734 344.858C304.629 344.679 304.533 344.495 304.445 344.307C303.719 345.166 302.807 345.597 301.708 345.597C300.926 345.597 300.301 345.371 299.846 344.923C299.389 344.475 299.156 343.876 299.156 343.129C299.156 342.335 299.436 341.691 300.003 341.204C300.572 340.718 301.326 340.476 302.285 340.476C302.6 340.476 302.928 340.504 303.272 340.55C303.617 340.597 303.972 340.672 304.343 340.756V340.074C304.343 339.363 304.195 338.868 303.906 338.579C303.608 338.289 303.104 338.149 302.387 338.149C302.061 338.149 301.727 338.187 301.382 338.271C301.04 338.353 300.703 338.458 300.376 338.588C300.27 338.636 300.162 338.677 300.051 338.71C300.002 338.726 299.952 338.736 299.902 338.738C299.771 338.738 299.706 338.644 299.706 338.448V337.989C299.706 337.841 299.723 337.727 299.771 337.664C299.841 337.578 299.931 337.51 300.033 337.466C300.357 337.298 300.749 337.158 301.206 337.046C301.661 336.924 302.145 336.869 302.658 336.869C303.766 336.869 304.576 337.121 305.098 337.625C305.61 338.129 305.871 338.896 305.871 339.925V342.952H305.889H305.89ZM302.109 344.372C302.415 344.372 302.732 344.316 303.068 344.204C303.402 344.092 303.701 343.885 303.951 343.605C304.101 343.433 304.21 343.229 304.268 343.008C304.324 342.783 304.363 342.513 304.363 342.195V341.803C304.08 341.734 303.794 341.681 303.505 341.645C303.215 341.608 302.923 341.588 302.63 341.587C302.005 341.587 301.549 341.71 301.242 341.962C300.934 342.214 300.787 342.569 300.787 343.036C300.787 343.474 300.898 343.801 301.13 344.027C301.354 344.26 301.68 344.372 302.109 344.372ZM309.586 345.381C309.418 345.381 309.306 345.353 309.233 345.287C309.158 345.231 309.093 345.101 309.037 344.923L306.849 337.701C306.806 337.58 306.777 337.454 306.763 337.326C306.763 337.177 306.839 337.093 306.988 337.093H307.901C308.076 337.093 308.199 337.121 308.263 337.186C308.339 337.242 308.395 337.373 308.451 337.55L310.015 343.736L311.468 337.55C311.513 337.365 311.569 337.242 311.643 337.186C311.755 337.117 311.886 337.085 312.017 337.093H312.761C312.939 337.093 313.058 337.121 313.134 337.186C313.209 337.242 313.274 337.373 313.31 337.55L314.782 343.812L316.392 337.55C316.422 337.415 316.486 337.289 316.579 337.186C316.688 337.117 316.815 337.085 316.943 337.093H317.81C317.958 337.093 318.042 337.169 318.042 337.326C318.042 337.373 318.032 337.421 318.025 337.477C318.01 337.556 317.987 337.634 317.958 337.709L315.713 344.932C315.657 345.119 315.592 345.241 315.519 345.297C315.413 345.365 315.289 345.397 315.164 345.39H314.364C314.187 345.39 314.066 345.362 313.991 345.297C313.916 345.231 313.851 345.11 313.814 344.923L312.371 338.898L310.936 344.916C310.89 345.103 310.834 345.224 310.761 345.289C310.685 345.355 310.554 345.383 310.388 345.383H309.586V345.381ZM321.553 345.633C321.069 345.634 320.588 345.578 320.118 345.465C319.652 345.353 319.29 345.231 319.047 345.091C318.898 345.007 318.797 344.914 318.758 344.828C318.722 344.746 318.704 344.657 318.704 344.568V344.092C318.704 343.896 318.777 343.801 318.917 343.801C318.974 343.801 319.031 343.811 319.085 343.829C319.141 343.848 319.225 343.885 319.318 343.924C319.633 344.064 319.98 344.176 320.342 344.251C320.715 344.324 321.077 344.363 321.45 344.363C322.038 344.363 322.493 344.26 322.809 344.055C322.961 343.963 323.086 343.832 323.172 343.676C323.257 343.52 323.299 343.344 323.294 343.166C323.297 343.046 323.276 342.926 323.233 342.814C323.19 342.702 323.125 342.6 323.042 342.513C322.876 342.335 322.559 342.175 322.102 342.027L320.751 341.607C320.072 341.391 319.568 341.073 319.262 340.653C318.962 340.265 318.799 339.789 318.797 339.298C318.797 338.906 318.881 338.56 319.047 338.261C319.215 337.963 319.439 337.701 319.719 337.494C319.999 337.281 320.314 337.121 320.687 337.009C321.059 336.897 321.45 336.85 321.859 336.85C322.066 336.85 322.279 336.859 322.484 336.887C322.697 336.915 322.893 336.953 323.089 336.992C323.275 337.037 323.453 337.083 323.62 337.141C323.788 337.197 323.917 337.253 324.012 337.309C324.121 337.364 324.217 337.443 324.292 337.541C324.351 337.632 324.38 337.74 324.374 337.849V338.289C324.374 338.485 324.3 338.588 324.16 338.588C324.036 338.574 323.916 338.536 323.807 338.476C323.244 338.226 322.634 338.102 322.018 338.112C321.488 338.112 321.068 338.196 320.779 338.374C320.491 338.549 320.342 338.822 320.342 339.206C320.342 339.466 320.435 339.69 320.622 339.869C320.807 340.046 321.152 340.222 321.646 340.382L322.969 340.802C323.639 341.017 324.124 341.316 324.412 341.699C324.701 342.083 324.839 342.522 324.839 343.008C324.839 343.411 324.757 343.773 324.598 344.092C324.433 344.411 324.201 344.692 323.919 344.914C323.63 345.147 323.285 345.317 322.885 345.437C322.465 345.569 322.027 345.633 321.553 345.633Z" fill="white"/>
<path fill-rule="evenodd" clip-rule="evenodd" d="M323.314 348.483C320.251 350.753 315.799 351.958 311.972 351.958C306.608 351.958 301.775 349.969 298.124 346.661C297.835 346.399 298.096 346.043 298.439 346.25C302.389 348.548 307.259 349.941 312.299 349.941C315.696 349.941 319.43 349.23 322.867 347.772C323.38 347.54 323.818 348.108 323.314 348.483Z" fill="#FF9900"/>
<path fill-rule="evenodd" clip-rule="evenodd" d="M324.587 347.025C324.196 346.523 321.998 346.784 321.003 346.905C320.705 346.943 320.658 346.681 320.927 346.485C322.677 345.251 325.556 345.606 325.89 346.017C326.226 346.437 325.798 349.325 324.158 350.707C323.908 350.923 323.666 350.812 323.776 350.532C324.149 349.605 324.979 347.522 324.587 347.027V347.025Z" fill="#FF9900"/>
<path d="M366.003 343.811C366.003 342.66 365.908 341.82 365.702 340.949H352.289V346.144H360.162C360.003 347.435 359.146 349.38 357.241 350.686L357.215 350.86L361.456 354.08L361.749 354.109C364.448 351.666 366.003 348.073 366.003 343.811Z" fill="#4285F4"/>
<path d="M352.285 357.5C356.142 357.5 359.38 356.255 361.746 354.109L357.238 350.686C356.031 351.511 354.412 352.086 352.285 352.086C348.508 352.086 345.301 349.644 344.158 346.269L343.991 346.282L339.581 349.627L339.523 349.784C341.873 354.357 346.698 357.5 352.285 357.5Z" fill="#34A853"/>
<path d="M344.159 346.269C343.857 345.398 343.683 344.464 343.683 343.5C343.683 342.536 343.857 341.602 344.143 340.731L344.135 340.546L339.67 337.147L339.524 337.216C338.556 339.113 338 341.245 338 343.5C338 345.756 338.556 347.887 339.524 349.784L344.159 346.269Z" fill="#FBBC05"/>
<path d="M352.285 334.913C354.968 334.913 356.777 336.049 357.809 336.998L361.841 333.14C359.365 330.884 356.142 329.5 352.285 329.5C346.698 329.5 341.873 332.642 339.523 337.215L344.142 340.731C345.301 337.356 348.508 334.913 352.285 334.913Z" fill="#EB4335"/>
<path d="M391.076 351.221L396.935 350.185L396.989 350.173L393.975 346.587C392.965 345.391 391.96 344.191 390.96 342.985C390.96 342.968 394.073 334.395 394.091 334.365C395.813 337.314 397.525 340.269 399.225 343.231L404.388 352.182L404.428 352.25L385.269 352.248L391.076 351.221ZM379.578 350.129C379.578 350.124 380.997 347.658 382.733 344.65L385.89 339.178L389.569 336.091C391.592 334.395 393.253 333 393.258 333C393.245 333.052 393.225 333.102 393.2 333.149L389.203 341.717L385.283 350.131L382.431 350.134C380.861 350.136 379.578 350.134 379.578 350.129Z" fill="#0089D6"/>
</g>
<rect x="284.5" y="281.5" width="198" height="86" stroke="#256A7F"/>
<g clip-path="url(#clip2_751_3386)">
<rect width="199" height="38" transform="translate(284 391)" fill="#256A7F"/>
<path d="M300.605 416.255C299.355 416.255 298.41 415.805 297.77 414.905C297.13 413.995 296.81 412.715 296.81 411.065V410.285C296.81 408.645 297.145 407.37 297.815 406.46C298.495 405.55 299.465 405.095 300.725 405.095C302.955 405.095 304.205 406.345 304.475 408.845L303.08 409.07C303.02 408.18 302.79 407.495 302.39 407.015C301.99 406.535 301.43 406.295 300.71 406.295C299.87 406.295 299.25 406.615 298.85 407.255C298.45 407.885 298.25 408.87 298.25 410.21V410.975C298.25 412.325 298.455 413.345 298.865 414.035C299.285 414.715 299.9 415.055 300.71 415.055C301.44 415.055 302 414.815 302.39 414.335C302.79 413.855 303.02 413.165 303.08 412.265L304.46 412.55C304.34 413.67 303.96 414.57 303.32 415.25C302.68 415.92 301.775 416.255 300.605 416.255ZM307.317 405.35V412.445C307.317 413.255 307.512 413.895 307.902 414.365C308.292 414.825 308.857 415.055 309.597 415.055C310.347 415.055 310.897 414.825 311.247 414.365C311.607 413.905 311.787 413.265 311.787 412.445V405.35H313.182V412.445C313.182 413.605 312.882 414.53 312.282 415.22C311.692 415.91 310.797 416.255 309.597 416.255C308.397 416.255 307.482 415.91 306.852 415.22C306.232 414.52 305.922 413.595 305.922 412.445V405.35H307.317ZM318.574 416.255C317.374 416.255 316.449 415.945 315.799 415.325C315.159 414.705 314.769 413.91 314.629 412.94L315.979 412.67C316.109 413.38 316.384 413.96 316.804 414.41C317.224 414.86 317.809 415.085 318.559 415.085C319.159 415.085 319.669 414.955 320.089 414.695C320.519 414.435 320.734 414 320.734 413.39C320.734 412.76 320.579 412.315 320.269 412.055C319.969 411.785 319.549 411.575 319.009 411.425L317.584 411.05C316.774 410.83 316.134 410.48 315.664 410C315.194 409.51 314.959 408.875 314.959 408.095C314.959 407.565 315.099 407.07 315.379 406.61C315.659 406.15 316.054 405.785 316.564 405.515C317.084 405.235 317.679 405.095 318.349 405.095C319.399 405.095 320.259 405.335 320.929 405.815C321.599 406.295 321.984 407.05 322.084 408.08L320.749 408.47C320.689 407.69 320.439 407.13 319.999 406.79C319.569 406.44 319.034 406.265 318.394 406.265C317.684 406.265 317.169 406.435 316.849 406.775C316.539 407.105 316.384 407.505 316.384 407.975C316.384 408.425 316.534 408.805 316.834 409.115C317.144 409.415 317.539 409.635 318.019 409.775L319.384 410.135C320.244 410.365 320.919 410.7 321.409 411.14C321.909 411.58 322.159 412.265 322.159 413.195C322.159 413.725 322.029 414.225 321.769 414.695C321.519 415.155 321.124 415.53 320.584 415.82C320.044 416.11 319.374 416.255 318.574 416.255ZM331.39 405.35V406.55H328.045V416H326.635V406.55H323.29V405.35H331.39ZM336.257 416.255C334.977 416.255 334.007 415.81 333.347 414.92C332.697 414.02 332.372 412.765 332.372 411.155V410.195C332.372 408.585 332.697 407.335 333.347 406.445C334.007 405.545 334.977 405.095 336.257 405.095C337.537 405.095 338.502 405.545 339.152 406.445C339.812 407.335 340.142 408.585 340.142 410.195V411.155C340.142 412.765 339.812 414.02 339.152 414.92C338.502 415.81 337.537 416.255 336.257 416.255ZM336.257 415.055C337.087 415.055 337.697 414.74 338.087 414.11C338.487 413.48 338.687 412.495 338.687 411.155V410.195C338.687 408.855 338.487 407.87 338.087 407.24C337.697 406.61 337.087 406.295 336.257 406.295C335.427 406.295 334.812 406.61 334.412 407.24C334.022 407.87 333.827 408.855 333.827 410.195V411.155C333.827 412.495 334.022 413.48 334.412 414.11C334.812 414.74 335.427 415.055 336.257 415.055ZM345.804 413.45H344.514L343.584 409.28C343.504 408.96 343.414 408.515 343.314 407.945C343.214 407.375 343.144 406.905 343.104 406.535H343.014C343.034 407.435 343.044 408.385 343.044 409.385V416H341.724V405.35H343.749L344.949 410.915L345.114 411.86H345.204L345.369 410.915L346.569 405.35H348.594V416H347.274V409.385C347.274 408.385 347.284 407.435 347.304 406.535H347.214C347.174 406.905 347.104 407.375 347.004 407.945C346.904 408.515 346.814 408.96 346.734 409.28L345.804 413.45ZM357.211 406.55H352.381V409.955H356.956V411.125H352.381V414.8H357.316V416H350.986V405.35H357.211V406.55ZM362.932 411.545H360.982V416H359.587V405.35H363.007C364.157 405.35 365.042 405.62 365.662 406.16C366.292 406.7 366.607 407.465 366.607 408.455C366.607 409.175 366.407 409.785 366.007 410.285C365.607 410.785 365.052 411.13 364.342 411.32L366.937 416H365.392L362.932 411.545ZM360.982 410.435H362.947C363.657 410.435 364.197 410.27 364.567 409.94C364.947 409.6 365.137 409.115 365.137 408.485C365.137 407.845 364.947 407.36 364.567 407.03C364.197 406.69 363.657 406.52 362.947 406.52H360.982V410.435ZM380.766 416.225C380.036 416.225 379.401 416.09 378.861 415.82C378.321 415.55 377.901 415.175 377.601 414.695C377.301 414.205 377.141 413.65 377.121 413.03L378.441 412.865C378.471 413.545 378.691 414.09 379.101 414.5C379.511 414.9 380.081 415.1 380.811 415.1C381.521 415.1 382.071 414.92 382.461 414.56C382.851 414.2 383.046 413.695 383.046 413.045C383.046 412.475 382.846 412.015 382.446 411.665C382.056 411.315 381.496 411.14 380.766 411.14H380.121V410.03H380.721C381.371 410.03 381.861 409.86 382.191 409.52C382.521 409.18 382.686 408.74 382.686 408.2C382.686 407.66 382.521 407.24 382.191 406.94C381.861 406.63 381.386 406.475 380.766 406.475C380.076 406.475 379.536 406.69 379.146 407.12C378.766 407.54 378.576 408.13 378.576 408.89L377.316 408.62C377.316 407.62 377.636 406.825 378.276 406.235C378.916 405.645 379.771 405.35 380.841 405.35C381.841 405.35 382.621 405.61 383.181 406.13C383.751 406.64 384.036 407.33 384.036 408.2C384.036 408.72 383.871 409.19 383.541 409.61C383.211 410.02 382.776 410.295 382.236 410.435C382.916 410.555 383.446 410.845 383.826 411.305C384.206 411.765 384.396 412.345 384.396 413.045C384.396 413.675 384.246 414.23 383.946 414.71C383.656 415.19 383.236 415.565 382.686 415.835C382.136 416.095 381.496 416.225 380.766 416.225Z" fill="white"/>
<path d="M305.89 452.952C305.89 453.297 305.925 453.577 305.992 453.784C306.065 453.988 306.16 454.212 306.289 454.456C306.331 454.52 306.353 454.594 306.354 454.671C306.354 454.764 306.298 454.858 306.179 454.951L305.591 455.343C305.52 455.394 305.436 455.423 305.35 455.427C305.255 455.427 305.162 455.381 305.07 455.297C304.944 455.162 304.831 455.015 304.734 454.858C304.629 454.679 304.533 454.495 304.445 454.307C303.719 455.166 302.807 455.597 301.708 455.597C300.926 455.597 300.301 455.371 299.846 454.923C299.389 454.475 299.156 453.876 299.156 453.129C299.156 452.335 299.436 451.691 300.003 451.204C300.572 450.718 301.326 450.476 302.285 450.476C302.6 450.476 302.928 450.504 303.272 450.55C303.617 450.597 303.972 450.672 304.343 450.756V450.074C304.343 449.363 304.195 448.868 303.906 448.579C303.608 448.289 303.104 448.149 302.387 448.149C302.061 448.149 301.727 448.187 301.382 448.271C301.04 448.353 300.703 448.458 300.376 448.588C300.27 448.636 300.162 448.677 300.051 448.71C300.002 448.726 299.952 448.736 299.902 448.738C299.771 448.738 299.706 448.644 299.706 448.448V447.989C299.706 447.841 299.723 447.727 299.771 447.664C299.841 447.578 299.931 447.51 300.033 447.466C300.357 447.298 300.749 447.158 301.206 447.046C301.661 446.924 302.145 446.869 302.658 446.869C303.766 446.869 304.576 447.121 305.098 447.625C305.61 448.129 305.871 448.896 305.871 449.925V452.952H305.889H305.89ZM302.109 454.372C302.415 454.372 302.732 454.316 303.068 454.204C303.402 454.092 303.701 453.885 303.951 453.605C304.101 453.433 304.21 453.229 304.268 453.008C304.324 452.783 304.363 452.513 304.363 452.195V451.803C304.08 451.734 303.794 451.681 303.505 451.645C303.215 451.608 302.923 451.588 302.63 451.587C302.005 451.587 301.549 451.71 301.242 451.962C300.934 452.214 300.787 452.569 300.787 453.036C300.787 453.474 300.898 453.801 301.13 454.027C301.354 454.26 301.68 454.372 302.109 454.372ZM309.586 455.381C309.418 455.381 309.306 455.353 309.233 455.287C309.158 455.231 309.093 455.101 309.037 454.923L306.849 447.701C306.806 447.58 306.777 447.454 306.763 447.326C306.763 447.177 306.839 447.093 306.988 447.093H307.901C308.076 447.093 308.199 447.121 308.263 447.186C308.339 447.242 308.395 447.373 308.451 447.55L310.015 453.736L311.468 447.55C311.513 447.365 311.569 447.242 311.643 447.186C311.755 447.117 311.886 447.085 312.017 447.093H312.761C312.939 447.093 313.058 447.121 313.134 447.186C313.209 447.242 313.274 447.373 313.31 447.55L314.782 453.812L316.392 447.55C316.422 447.415 316.486 447.289 316.579 447.186C316.688 447.117 316.815 447.085 316.943 447.093H317.81C317.958 447.093 318.042 447.169 318.042 447.326C318.042 447.373 318.032 447.421 318.025 447.477C318.01 447.556 317.987 447.634 317.958 447.709L315.713 454.932C315.657 455.119 315.592 455.241 315.519 455.297C315.413 455.365 315.289 455.397 315.164 455.39H314.364C314.187 455.39 314.066 455.362 313.991 455.297C313.916 455.231 313.851 455.11 313.814 454.923L312.371 448.898L310.936 454.916C310.89 455.103 310.834 455.224 310.761 455.289C310.685 455.355 310.554 455.383 310.388 455.383H309.586V455.381ZM321.553 455.633C321.069 455.634 320.588 455.578 320.118 455.465C319.652 455.353 319.29 455.231 319.047 455.091C318.898 455.007 318.797 454.914 318.758 454.828C318.722 454.746 318.704 454.657 318.704 454.568V454.092C318.704 453.896 318.777 453.801 318.917 453.801C318.974 453.801 319.031 453.811 319.085 453.829C319.141 453.848 319.225 453.885 319.318 453.924C319.633 454.064 319.98 454.176 320.342 454.251C320.715 454.324 321.077 454.363 321.45 454.363C322.038 454.363 322.493 454.26 322.809 454.055C322.961 453.963 323.086 453.832 323.172 453.676C323.257 453.52 323.299 453.344 323.294 453.166C323.297 453.046 323.276 452.926 323.233 452.814C323.19 452.702 323.125 452.6 323.042 452.513C322.876 452.335 322.559 452.175 322.102 452.027L320.751 451.607C320.072 451.391 319.568 451.073 319.262 450.653C318.962 450.265 318.799 449.789 318.797 449.298C318.797 448.906 318.881 448.56 319.047 448.261C319.215 447.963 319.439 447.701 319.719 447.494C319.999 447.281 320.314 447.121 320.687 447.009C321.059 446.897 321.45 446.85 321.859 446.85C322.066 446.85 322.279 446.859 322.484 446.887C322.697 446.915 322.893 446.953 323.089 446.992C323.275 447.037 323.453 447.083 323.62 447.141C323.788 447.197 323.917 447.253 324.012 447.309C324.121 447.364 324.217 447.443 324.292 447.541C324.351 447.632 324.38 447.74 324.374 447.849V448.289C324.374 448.485 324.3 448.588 324.16 448.588C324.036 448.574 323.916 448.536 323.807 448.476C323.244 448.226 322.634 448.102 322.018 448.112C321.488 448.112 321.068 448.196 320.779 448.374C320.491 448.549 320.342 448.822 320.342 449.206C320.342 449.466 320.435 449.69 320.622 449.869C320.807 450.046 321.152 450.222 321.646 450.382L322.969 450.802C323.639 451.017 324.124 451.316 324.412 451.699C324.701 452.083 324.839 452.522 324.839 453.008C324.839 453.411 324.757 453.773 324.598 454.092C324.433 454.411 324.201 454.692 323.919 454.914C323.63 455.147 323.285 455.317 322.885 455.437C322.465 455.569 322.027 455.633 321.553 455.633Z" fill="white"/>
<path fill-rule="evenodd" clip-rule="evenodd" d="M323.314 458.483C320.251 460.753 315.799 461.958 311.972 461.958C306.608 461.958 301.775 459.969 298.124 456.661C297.835 456.399 298.096 456.043 298.439 456.25C302.389 458.548 307.259 459.941 312.299 459.941C315.696 459.941 319.43 459.23 322.867 457.772C323.38 457.54 323.818 458.108 323.314 458.483Z" fill="#FF9900"/>
<path fill-rule="evenodd" clip-rule="evenodd" d="M324.587 457.025C324.196 456.523 321.998 456.784 321.003 456.905C320.705 456.943 320.658 456.681 320.927 456.485C322.677 455.251 325.556 455.606 325.89 456.017C326.226 456.437 325.798 459.325 324.158 460.707C323.908 460.923 323.666 460.812 323.776 460.532C324.149 459.605 324.979 457.522 324.587 457.027V457.025Z" fill="#FF9900"/>
<path d="M366.003 453.811C366.003 452.66 365.908 451.82 365.702 450.949H352.289V456.144H360.162C360.003 457.435 359.146 459.38 357.241 460.686L357.215 460.86L361.456 464.08L361.749 464.109C364.448 461.666 366.003 458.073 366.003 453.811Z" fill="#4285F4"/>
<path d="M352.285 467.5C356.142 467.5 359.38 466.255 361.746 464.109L357.238 460.686C356.031 461.511 354.412 462.086 352.285 462.086C348.508 462.086 345.301 459.644 344.158 456.269L343.991 456.282L339.581 459.627L339.523 459.784C341.873 464.357 346.698 467.5 352.285 467.5Z" fill="#34A853"/>
<path d="M344.159 456.269C343.857 455.398 343.683 454.464 343.683 453.5C343.683 452.536 343.857 451.602 344.143 450.731L344.135 450.546L339.67 447.147L339.524 447.216C338.556 449.113 338 451.245 338 453.5C338 455.756 338.556 457.887 339.524 459.784L344.159 456.269Z" fill="#FBBC05"/>
<path d="M352.285 444.913C354.968 444.913 356.777 446.049 357.809 446.998L361.841 443.14C359.365 440.884 356.142 439.5 352.285 439.5C346.698 439.5 341.873 442.642 339.523 447.215L344.142 450.731C345.301 447.356 348.508 444.913 352.285 444.913Z" fill="#EB4335"/>
<path d="M391.076 461.221L396.935 460.185L396.989 460.173L393.975 456.587C392.965 455.391 391.96 454.191 390.96 452.985C390.96 452.968 394.073 444.395 394.091 444.365C395.813 447.314 397.525 450.269 399.225 453.231L404.388 462.182L404.428 462.25L385.269 462.248L391.076 461.221ZM379.578 460.129C379.578 460.124 380.997 457.658 382.733 454.65L385.89 449.178L389.569 446.091C391.592 444.395 393.253 443 393.258 443C393.245 443.052 393.225 443.102 393.2 443.149L389.203 451.717L385.283 460.131L382.431 460.134C380.861 460.136 379.578 460.134 379.578 460.129Z" fill="#0089D6"/>
</g>
<rect x="284.5" y="391.5" width="198" height="86" stroke="#256A7F"/>
<g clip-path="url(#clip3_751_3386)">
<rect x="12" y="12" width="182" height="96" fill="#1D1D1D"/>
<rect width="182" height="40" transform="translate(12 12)" fill="#256A7F"/>
<path d="M35.9044 22.3999C30.3229 22.3999 25.7969 26.9251 25.7969 32.5074C25.7969 36.9733 28.693 40.762 32.7091 42.0985C33.2142 42.1921 33.3997 41.8793 33.3997 41.6123C33.3997 41.3713 33.3902 40.575 33.386 39.7305C30.574 40.3419 29.9806 38.5379 29.9806 38.5379C29.5208 37.3696 28.8584 37.059 28.8584 37.059C27.9413 36.4316 28.9275 36.4445 28.9275 36.4445C29.9425 36.5158 30.4769 37.4861 30.4769 37.4861C31.3784 39.0314 32.8414 38.5846 33.4182 38.3264C33.5089 37.673 33.7709 37.2272 34.0599 36.9748C31.8149 36.7192 29.4549 35.8525 29.4549 31.9796C29.4549 30.8761 29.8497 29.9744 30.4963 29.2666C30.3914 29.012 30.0454 27.984 30.5942 26.5917C30.5942 26.5917 31.443 26.32 33.3745 27.6278C34.1807 27.4038 35.0454 27.2915 35.9044 27.2877C36.7634 27.2915 37.6287 27.4038 38.4365 27.6278C40.3658 26.32 41.2133 26.5917 41.2133 26.5917C41.7635 27.984 41.4174 29.012 41.3124 29.2666C41.9605 29.9744 42.3526 30.876 42.3526 31.9796C42.3526 35.8617 39.9881 36.7165 37.7374 36.9667C38.0999 37.2804 38.423 37.8956 38.423 38.8385C38.423 40.1909 38.4112 41.2793 38.4112 41.6123C38.4112 41.8813 38.5932 42.1964 39.1056 42.0972C43.1194 40.7592 46.0119 36.9718 46.0119 32.5074C46.0119 26.9251 41.4865 22.3999 35.9044 22.3999Z" fill="#FEFEFE"/>
<path d="M29.5832 36.7984C29.561 36.8485 29.4819 36.8636 29.41 36.8292C29.3367 36.7962 29.2955 36.7277 29.3192 36.6773C29.341 36.6256 29.4202 36.6112 29.4933 36.6459C29.5668 36.6788 29.6087 36.7479 29.5832 36.7984ZM30.0804 37.242C30.0322 37.2867 29.938 37.2659 29.874 37.1953C29.8079 37.1248 29.7955 37.0306 29.8444 36.9852C29.8941 36.9406 29.9855 36.9614 30.0518 37.032C30.1179 37.1032 30.1307 37.1968 30.0803 37.242L30.0804 37.242ZM30.4215 37.8095C30.3595 37.8526 30.2582 37.8122 30.1957 37.7223C30.1338 37.6325 30.1338 37.5247 30.197 37.4815C30.2598 37.4383 30.3595 37.4772 30.4229 37.5663C30.4848 37.6577 30.4848 37.7655 30.4214 37.8096L30.4215 37.8095ZM30.9983 38.4669C30.9429 38.528 30.8249 38.5117 30.7385 38.4283C30.6502 38.3468 30.6256 38.2311 30.6811 38.17C30.7372 38.1088 30.8558 38.126 30.9429 38.2087C31.0306 38.29 31.0574 38.4065 30.9984 38.4669H30.9983ZM31.7438 38.6889C31.7194 38.768 31.6058 38.804 31.4913 38.7704C31.377 38.7358 31.3021 38.643 31.3252 38.563C31.349 38.4834 31.4631 38.4459 31.5785 38.4818C31.6926 38.5163 31.7676 38.6084 31.7438 38.6889H31.7438ZM32.5923 38.783C32.5951 38.8664 32.498 38.9355 32.3779 38.937C32.257 38.9396 32.1592 38.8722 32.158 38.7902C32.158 38.706 32.2529 38.6375 32.3737 38.6356C32.4938 38.6332 32.5923 38.7002 32.5923 38.783ZM33.4258 38.7511C33.4402 38.8324 33.3566 38.9159 33.2373 38.9381C33.12 38.9595 33.0114 38.9094 32.9964 38.8287C32.9818 38.7453 33.067 38.6619 33.1841 38.6402C33.3036 38.6195 33.4105 38.6684 33.4258 38.7511Z" fill="#FEFEFE"/>
<path d="M61.495 34.925H57.79L56.815 38H55.435L58.855 27.35H60.445L63.865 38H62.485L61.495 34.925ZM59.635 28.58C59.355 29.81 58.865 31.525 58.165 33.725H61.12C60.45 31.635 59.965 29.92 59.665 28.58H59.635ZM66.9468 38H65.5518V27.35H69.0318C70.3318 27.35 71.2468 27.66 71.7768 28.28C72.3068 28.9 72.5718 29.64 72.5718 30.5C72.5718 31.03 72.4518 31.535 72.2118 32.015C71.9818 32.485 71.5818 32.875 71.0118 33.185C70.4518 33.495 69.7068 33.65 68.7768 33.65H66.9468V38ZM68.8068 32.51C69.6668 32.51 70.2618 32.315 70.5918 31.925C70.9318 31.535 71.1018 31.065 71.1018 30.515C71.1018 29.965 70.9418 29.495 70.6218 29.105C70.3118 28.715 69.7568 28.52 68.9568 28.52H66.9468V32.51H68.8068ZM75.8485 38H74.4535V27.35H77.9335C79.2335 27.35 80.1485 27.66 80.6785 28.28C81.2085 28.9 81.4735 29.64 81.4735 30.5C81.4735 31.03 81.3535 31.535 81.1135 32.015C80.8835 32.485 80.4835 32.875 79.9135 33.185C79.3535 33.495 78.6085 33.65 77.6785 33.65H75.8485V38ZM77.7085 32.51C78.5685 32.51 79.1635 32.315 79.4935 31.925C79.8335 31.535 80.0035 31.065 80.0035 30.515C80.0035 29.965 79.8435 29.495 79.5235 29.105C79.2135 28.715 78.6585 28.52 77.8585 28.52H75.8485V32.51H77.7085ZM84.8253 27.35V36.8H89.9253V38H83.4303V27.35H84.8253ZM95.947 28.475V36.875H98.617V38H91.897V36.875H94.552V28.475H91.897V27.35H98.617V28.475H95.947ZM104.114 38.255C102.864 38.255 101.919 37.805 101.279 36.905C100.639 35.995 100.319 34.715 100.319 33.065V32.285C100.319 30.645 100.654 29.37 101.324 28.46C102.004 27.55 102.974 27.095 104.234 27.095C106.464 27.095 107.714 28.345 107.984 30.845L106.589 31.07C106.529 30.18 106.299 29.495 105.899 29.015C105.499 28.535 104.939 28.295 104.219 28.295C103.379 28.295 102.759 28.615 102.359 29.255C101.959 29.885 101.759 30.87 101.759 32.21V32.975C101.759 34.325 101.964 35.345 102.374 36.035C102.794 36.715 103.409 37.055 104.219 37.055C104.949 37.055 105.509 36.815 105.899 36.335C106.299 35.855 106.529 35.165 106.589 34.265L107.969 34.55C107.849 35.67 107.469 36.57 106.829 37.25C106.189 37.92 105.284 38.255 104.114 38.255ZM114.906 34.925H111.201L110.226 38H108.846L112.266 27.35H113.856L117.276 38H115.896L114.906 34.925ZM113.046 28.58C112.766 29.81 112.276 31.525 111.576 33.725H114.531C113.861 31.635 113.376 29.92 113.076 28.58H113.046ZM125.997 27.35V28.55H122.652V38H121.242V28.55H117.897V27.35H125.997ZM131.554 28.475V36.875H134.224V38H127.504V36.875H130.159V28.475H127.504V27.35H134.224V28.475H131.554ZM139.766 38.255C138.486 38.255 137.516 37.81 136.856 36.92C136.206 36.02 135.881 34.765 135.881 33.155V32.195C135.881 30.585 136.206 29.335 136.856 28.445C137.516 27.545 138.486 27.095 139.766 27.095C141.046 27.095 142.011 27.545 142.661 28.445C143.321 29.335 143.651 30.585 143.651 32.195V33.155C143.651 34.765 143.321 36.02 142.661 36.92C142.011 37.81 141.046 38.255 139.766 38.255ZM139.766 37.055C140.596 37.055 141.206 36.74 141.596 36.11C141.996 35.48 142.196 34.495 142.196 33.155V32.195C142.196 30.855 141.996 29.87 141.596 29.24C141.206 28.61 140.596 28.295 139.766 28.295C138.936 28.295 138.321 28.61 137.921 29.24C137.531 29.87 137.336 30.855 137.336 32.195V33.155C137.336 34.495 137.531 35.48 137.921 36.11C138.321 36.74 138.936 37.055 139.766 37.055ZM150.198 34.595C150.448 35.185 150.618 35.65 150.708 35.99H150.738C150.718 35.75 150.708 35.37 150.708 34.85V27.35H152.103V38H150.468L147.123 30.335C147.013 30.095 146.913 29.845 146.823 29.585C146.733 29.325 146.673 29.155 146.643 29.075H146.598C146.618 29.265 146.628 29.57 146.628 29.99V38H145.233V27.35H147.063L150.198 34.595Z" fill="white"/>
<rect x="12.5" y="52.5" width="181" height="55" stroke="#1D1D1D" stroke-dasharray="4 4"/>
<rect width="32" height="32" transform="translate(24 64)" fill="#1D1D1D" fill-opacity="0.6"/>
<g clip-path="url(#clip4_751_3386)">
<path fill-rule="evenodd" clip-rule="evenodd" d="M26.0625 76.5811H27.8663V79.0234H30.0456V76.5811H31.8494V83.4415H30.0456V80.8254H27.8663V83.4415H26.0625V76.5811ZM33.9188 83.4415V76.5811H38.1857V78.072H35.7226V79.188H37.9019V80.7064H35.7226V81.9688H38.1857V83.4415H33.9188ZM40.1636 83.4415V76.5811H41.9674V81.6303H44.4397V83.4415H40.1636ZM47.2324 76.5811L50.0343 79.124L52.827 76.5811H53.642V83.4415H51.829V79.9198L50.0343 81.5571L48.2305 79.9289V83.4415H46.4175V76.5811H47.2324Z" fill="#7A81FF"/>
<mask id="mask0_751_3386" style="mask-type:luminance" maskUnits="userSpaceOnUse" x="26" y="59" width="29" height="15">
<path fill-rule="evenodd" clip-rule="evenodd" d="M26 59.3506H54.5633V73.9252H26V59.3506Z" fill="white"/>
</mask>
<g mask="url(#mask0_751_3386)">
<path fill-rule="evenodd" clip-rule="evenodd" d="M46.3848 72.1978C46.9028 72.5605 48.0972 71.7486 49.0524 70.3843C50.0077 69.02 50.3622 67.62 49.8442 67.2573C49.3262 66.8946 48.1318 67.7065 47.1766 69.0708C46.2213 70.4351 45.8668 71.8351 46.3848 72.1978Z" fill="#7A81FF"/>
<path fill-rule="evenodd" clip-rule="evenodd" d="M34.0449 72.1978C33.5268 72.5605 32.3325 71.7486 31.3772 70.3843C30.422 69.02 30.0675 67.62 30.5855 67.2573C31.1035 66.8946 32.2978 67.7065 33.2531 69.0708C34.2084 70.4351 34.5629 71.8351 34.0449 72.1978Z" fill="#7A81FF"/>
<path fill-rule="evenodd" clip-rule="evenodd" d="M40.2144 70.0615C39.582 70.0615 39.0694 68.7113 39.0694 67.0459C39.0694 65.3804 39.582 64.0303 40.2144 64.0303C40.8467 64.0303 41.3594 65.3804 41.3594 67.0459C41.3594 68.7113 40.8467 70.0615 40.2144 70.0615Z" fill="#7A81FF"/>
</g>
<mask id="mask1_751_3386" style="mask-type:luminance" maskUnits="userSpaceOnUse" x="26" y="59" width="29" height="15">
<path fill-rule="evenodd" clip-rule="evenodd" d="M26 59.3506H54.5633V73.9252H26V59.3506Z" fill="white"/>
</mask>
<g mask="url(#mask1_751_3386)">
<path fill-rule="evenodd" clip-rule="evenodd" d="M30.3047 74.1668C32.3369 70.9924 35.883 68.8843 39.9212 68.8843C44.073 68.8843 47.7044 71.1126 49.7056 74.4374L48.1434 75.3777C46.456 72.5742 43.403 70.7076 39.9212 70.7076C36.5344 70.7076 33.5538 72.4734 31.8403 75.1499L30.3047 74.1668ZM49.3313 86.9356C47.2707 89.9358 43.8258 91.907 39.9212 91.907C36.0236 91.907 32.5841 89.9429 30.5223 86.9519L32.0235 85.9171C33.7617 88.4386 36.652 90.0837 39.9212 90.0837C43.1962 90.0837 46.0912 88.4326 47.8283 85.9033L49.3313 86.9356Z" fill="#7A81FF"/>
</g>
<mask id="mask2_751_3386" style="mask-type:luminance" maskUnits="userSpaceOnUse" x="25" y="86" width="29" height="15">
<path fill-rule="evenodd" clip-rule="evenodd" d="M53.8516 100.9L25.2883 100.9L25.2883 86.3253L53.8516 86.3253L53.8516 100.9Z" fill="white"/>
</mask>
<g mask="url(#mask2_751_3386)">
<path fill-rule="evenodd" clip-rule="evenodd" d="M33.4667 88.0527C32.9487 87.69 31.7544 88.5019 30.7991 89.8662C29.8438 91.2304 29.4894 92.6304 30.0074 92.9932C30.5254 93.3559 31.7197 92.5439 32.675 91.1797C33.6303 89.8154 33.9847 88.4154 33.4667 88.0527Z" fill="#7A81FF"/>
<path fill-rule="evenodd" clip-rule="evenodd" d="M45.8067 88.0527C46.3247 87.69 47.519 88.5019 48.4743 89.8662C49.4296 91.2304 49.7841 92.6304 49.2661 92.9932C48.7481 93.3559 47.5537 92.5439 46.5985 91.1797C45.6432 89.8154 45.2887 88.4154 45.8067 88.0527Z" fill="#7A81FF"/>
<path fill-rule="evenodd" clip-rule="evenodd" d="M39.6372 90.189C40.2696 90.189 40.7822 91.5392 40.7822 93.2046C40.7822 94.8701 40.2696 96.2202 39.6372 96.2202C39.0048 96.2202 38.4922 94.8701 38.4922 93.2046C38.4922 91.5392 39.0048 90.189 39.6372 90.189Z" fill="#7A81FF"/>
</g>
<mask id="mask3_751_3386" style="mask-type:luminance" maskUnits="userSpaceOnUse" x="25" y="86" width="29" height="15">
<path fill-rule="evenodd" clip-rule="evenodd" d="M53.8516 100.9L25.2883 100.9L25.2883 86.3253L53.8516 86.3253L53.8516 100.9Z" fill="white"/>
</mask>
<g mask="url(#mask3_751_3386)">
<path fill-rule="evenodd" clip-rule="evenodd" d="M49.5469 86.0837C47.5146 89.2581 43.9686 91.3662 39.9304 91.3662C35.7785 91.3662 32.1472 89.1379 30.1459 85.8131L31.7081 84.8728C33.3956 87.6763 36.4486 89.5428 39.9304 89.5428C43.3171 89.5428 46.2978 87.7771 48.0112 85.1006L49.5469 86.0837ZM30.5203 73.3149C32.5808 70.3147 36.0258 68.3435 39.9304 68.3435C43.828 68.3435 47.2675 70.3075 49.3293 73.2986L47.828 74.3334C46.0899 71.8119 43.1995 70.1668 39.9304 70.1668C36.6554 70.1668 33.7604 71.8179 32.0233 74.3471L30.5203 73.3149Z" fill="#7A81FF"/>
</g>
</g>
<rect width="32" height="32" transform="translate(66 64)" fill="#1D1D1D" fill-opacity="0.6"/>
<path d="M81.9168 69.0019C81.7046 69.012 81.4968 69.0617 81.3054 69.1481L72.9618 72.9144C72.7458 73.0119 72.5561 73.1536 72.4066 73.3292C72.2572 73.5048 72.1519 73.7096 72.0985 73.9286L70.0401 82.3887C69.9926 82.5836 69.9872 82.7855 70.0244 82.9824C70.0616 83.1792 70.1406 83.3671 70.2567 83.5349C70.2849 83.5759 70.3151 83.6156 70.3474 83.6539L76.1225 90.4375C76.272 90.613 76.4618 90.7547 76.6777 90.8521C76.8937 90.9495 77.1303 91 77.3699 91L86.6312 90.998C86.8708 90.9981 87.1073 90.9478 87.3233 90.8505C87.5392 90.7533 87.729 90.6118 87.8786 90.4365L93.6516 83.6519C93.8012 83.4762 93.9066 83.2713 93.9599 83.0523C94.0133 82.8332 94.0133 82.6057 93.96 82.3867L91.8984 73.9266C91.845 73.7076 91.7397 73.5028 91.5902 73.3272C91.4408 73.1516 91.251 73.0098 91.0351 72.9124L82.6904 69.1481C82.4497 69.0395 82.1837 68.9892 81.9168 69.0019Z" fill="#326CE5"/>
<path d="M81.9999 71.8809C81.7241 71.8809 81.5004 72.1156 81.5005 72.4051C81.5005 72.4095 81.5014 72.4138 81.5015 72.4182C81.5011 72.4575 81.4991 72.5049 81.5005 72.5392C81.5071 72.7061 81.5456 72.8339 81.5688 72.9878C81.6108 73.317 81.646 73.59 81.6243 73.8437C81.6031 73.9393 81.5286 74.0268 81.4621 74.0876L81.4503 74.2872C81.1506 74.3107 80.8489 74.3536 80.5476 74.4183C79.2509 74.6964 78.1344 75.3275 77.2844 76.1795C77.2292 76.1439 77.1328 76.0785 77.1041 76.0585C77.0149 76.0699 76.9248 76.0959 76.8074 76.0313C76.5839 75.8891 76.3804 75.693 76.1341 75.4566C76.0212 75.3436 75.9395 75.236 75.8054 75.127C75.775 75.1022 75.7285 75.0688 75.6944 75.0433C75.5896 74.9644 75.466 74.9232 75.3466 74.9193C75.193 74.9143 75.0453 74.9711 74.9485 75.0857C74.7766 75.2894 74.8317 75.6008 75.0713 75.7813C75.0737 75.7831 75.0763 75.7845 75.0787 75.7863C75.1117 75.8115 75.152 75.8438 75.1822 75.8649C75.3245 75.9642 75.4545 76.015 75.5963 76.0938C75.8949 76.268 76.1426 76.4125 76.339 76.5867C76.4157 76.664 76.4291 76.8001 76.4393 76.8589L76.5993 76.994C75.7425 78.2123 75.3459 79.717 75.5803 81.2503L75.3711 81.3077C75.316 81.375 75.2381 81.4808 75.1566 81.5124C74.8997 81.5888 74.6105 81.6169 74.2613 81.6515C74.0974 81.6644 73.956 81.6567 73.7822 81.6878C73.744 81.6946 73.6907 81.7078 73.6488 81.717C73.6474 81.7173 73.646 81.7177 73.6446 81.718C73.6423 81.7185 73.6393 81.7196 73.6371 81.7201C73.3427 81.7872 73.1536 82.0428 73.2145 82.2947C73.2754 82.5466 73.5629 82.6998 73.859 82.6395C73.8612 82.639 73.8643 82.6389 73.8665 82.6384C73.8699 82.6377 73.8728 82.6362 73.8761 82.6354C73.9174 82.6269 73.9691 82.6173 74.0052 82.6082C74.1761 82.565 74.2998 82.5015 74.4534 82.4459C74.7838 82.3339 75.0575 82.2404 75.3242 82.204C75.4355 82.1957 75.5528 82.2689 75.6112 82.2997L75.8289 82.2644C76.3298 83.7317 77.3796 84.9176 78.709 85.6618L78.6183 85.8674C78.651 85.9473 78.687 86.0553 78.6627 86.1342C78.5657 86.3717 78.3997 86.6223 78.2106 86.9018C78.1191 87.0309 78.0254 87.1311 77.9428 87.2788C77.923 87.3142 77.8979 87.3685 77.8788 87.4058C77.7504 87.6653 77.8446 87.9641 78.0911 88.0762C78.3392 88.1891 78.6472 88.07 78.7805 87.8101C78.7807 87.8097 78.7813 87.8094 78.7815 87.8091C78.7817 87.8088 78.7814 87.8083 78.7815 87.8081C78.8005 87.7712 78.8274 87.7228 78.8434 87.6881C78.9142 87.535 78.9377 87.4037 78.9875 87.2556C79.1196 86.942 79.1922 86.613 79.3741 86.408C79.4239 86.3519 79.5051 86.3303 79.5893 86.309L79.7024 86.1154C80.8613 86.5357 82.1585 86.6484 83.4543 86.3705C83.7499 86.3071 84.0353 86.225 84.3112 86.1265C84.343 86.1798 84.4021 86.2822 84.4179 86.308C84.5035 86.3343 84.5968 86.3479 84.6729 86.4542C84.809 86.6738 84.9021 86.9337 85.0155 87.2476C85.0652 87.3957 85.0898 87.5269 85.1606 87.68C85.1767 87.7149 85.2035 87.7641 85.2225 87.801C85.3555 88.0618 85.6644 88.1812 85.9129 88.0682C86.1594 87.956 86.2537 87.6572 86.1252 87.3978C86.1062 87.3604 86.0799 87.3061 86.0602 87.2707C85.9775 87.123 85.8839 87.0238 85.7923 86.8947C85.6032 86.6153 85.4464 86.3831 85.3495 86.1457C85.3089 86.0232 85.3563 85.947 85.3879 85.8674C85.369 85.847 85.3285 85.7313 85.3047 85.6769C86.6861 84.9063 87.7051 83.6761 88.1837 82.2554C88.2483 82.265 88.3606 82.2837 88.3971 82.2907C88.4722 82.2439 88.5412 82.1828 88.6767 82.1929C88.9433 82.2293 89.217 82.3229 89.5474 82.4348C89.701 82.4904 89.8247 82.5549 89.9956 82.5981C90.0317 82.6073 90.0834 82.6158 90.1247 82.6243C90.128 82.6251 90.131 82.6266 90.1343 82.6274C90.1365 82.6278 90.1396 82.6279 90.1418 82.6284C90.4379 82.6886 90.7255 82.5355 90.7863 82.2836C90.8471 82.0317 90.6581 81.7761 90.3637 81.709C90.3209 81.6998 90.2602 81.6841 90.2186 81.6767C90.0448 81.6456 89.9034 81.6533 89.7395 81.6404C89.3903 81.6059 89.1012 81.5777 88.8442 81.5013C88.7394 81.4629 88.6649 81.3451 88.6286 81.2966L88.427 81.2412C88.5315 80.5265 88.5033 79.7827 88.3224 79.0385C88.1398 78.2873 87.817 77.6003 87.3865 76.995C87.4383 76.9506 87.536 76.8689 87.5637 76.8448C87.5718 76.7602 87.5648 76.6714 87.6576 76.5777C87.854 76.4034 88.1016 76.259 88.4003 76.0847C88.542 76.0059 88.6731 75.9551 88.8154 75.8559C88.8476 75.8334 88.8915 75.7979 88.9253 75.7722C89.1648 75.5916 89.22 75.2803 89.048 75.0766C88.876 74.8729 88.5427 74.8537 88.3032 75.0342C88.2691 75.0598 88.2228 75.093 88.1922 75.1179C88.0581 75.2269 87.9753 75.3345 87.8625 75.4476C87.6162 75.6839 87.4126 75.8811 87.1891 76.0232C87.0923 76.0765 86.9504 76.058 86.8861 76.0545L86.6961 76.1825C85.613 75.1095 84.1384 74.4235 82.5505 74.2903C82.5461 74.2274 82.5402 74.1138 82.5388 74.0796C82.4738 74.0208 82.3952 73.9706 82.3755 73.8437C82.3538 73.59 82.39 73.317 82.4321 72.9878C82.4552 72.8339 82.4938 72.7061 82.5003 72.5392C82.5018 72.5012 82.4994 72.4461 82.4993 72.4051C82.4992 72.1156 82.2757 71.8808 81.9999 71.8809ZM81.3746 75.5403L81.2262 78.0152L81.2156 78.0203C81.2056 78.2417 81.0127 78.4185 80.7759 78.4185C80.6789 78.4185 80.5894 78.3891 80.5166 78.3388L80.5124 78.3409L78.3643 76.9023C79.0245 76.289 79.8689 75.8358 80.8421 75.627C81.0199 75.5889 81.1975 75.5606 81.3746 75.5403ZM82.6263 75.5403C83.7624 75.6723 84.8132 76.1584 85.6184 76.9033L83.4842 78.3328L83.4767 78.3298C83.2873 78.4605 83.0204 78.428 82.8728 78.2532C82.8123 78.1815 82.7805 78.0973 82.7767 78.0122L82.7746 78.0112L82.6263 75.5403ZM77.5853 77.8267L79.5466 79.4841L79.5445 79.4941C79.7215 79.6395 79.7476 79.8918 79.6 80.0667C79.5395 80.1384 79.4586 80.1865 79.3716 80.2089L79.3695 80.217L76.8554 80.9025C76.7275 79.7971 77.0032 78.7226 77.5853 77.8267ZM86.4006 77.8277C86.692 78.274 86.9126 78.7724 87.044 79.3127C87.1738 79.8465 87.2064 80.3794 87.1529 80.8944L84.626 80.2069L84.6239 80.1968C84.3976 80.1384 84.2585 79.9209 84.3112 79.7028C84.3328 79.6135 84.383 79.5379 84.451 79.482L84.4499 79.477L86.4006 77.8277ZM81.5976 79.6121H82.4011L82.9005 80.2018L82.7212 80.9378L81.9999 81.2654L81.2764 80.9367L81.0971 80.2008L81.5976 79.6121ZM84.1735 81.6303C84.2077 81.6287 84.2417 81.6316 84.2749 81.6374L84.2792 81.6323L86.8797 82.0477C86.4991 83.0578 85.7708 83.933 84.7978 84.5186L83.7883 82.215L83.7915 82.211C83.6988 82.0074 83.7916 81.7687 84.0049 81.6717C84.0596 81.6468 84.1166 81.633 84.1735 81.6303ZM79.8059 81.6404C80.0044 81.643 80.1824 81.7732 80.2285 81.964C80.2501 82.0534 80.2396 82.1419 80.204 82.2201L80.2114 82.2292L79.2126 84.5095C78.2788 83.9434 77.535 83.0958 77.1371 82.0558L79.7152 81.6424L79.7195 81.6475C79.7483 81.6425 79.7776 81.64 79.8059 81.6404ZM81.9839 82.6395C82.053 82.6371 82.1231 82.6505 82.1898 82.6808C82.2772 82.7205 82.3447 82.7832 82.3872 82.8582H82.3968L83.6677 85.0277C83.5028 85.0799 83.3332 85.1246 83.1598 85.1618C82.1878 85.3702 81.2189 85.3071 80.3416 85.0247L81.6093 82.8592H81.6115C81.6875 82.7249 81.8318 82.6447 81.9839 82.6395Z" fill="white" stroke="white" stroke-width="0.25"/>
<rect width="32" height="32" transform="translate(108 64)" fill="#1D1D1D" fill-opacity="0.6"/>
<g clip-path="url(#clip5_751_3386)">
<path d="M128.039 76.1005V83.7492L134.666 79.9272V72.2705L128.039 76.1005Z" fill="#4040B2"/>
<path d="M120.689 72.2707L127.316 76.1007V83.7493L120.689 79.9227V72.2707ZM113.336 68V75.6527L119.963 79.4793V71.826L113.336 68ZM120.689 88.416L127.316 92.2427V84.5893L120.689 80.7633V88.416Z" fill="#5C4EE5"/>
</g>
<rect width="32" height="32" transform="translate(150 64)" fill="#1D1D1D" fill-opacity="0.6"/>
<path d="M174.753 78.1064C174.627 77.1934 174.124 76.4008 173.217 75.6846L172.692 75.3293L172.342 75.8595C171.894 76.5429 171.669 77.4941 171.741 78.4071C171.773 78.7241 171.877 79.3036 172.2 79.8011C171.877 79.9815 171.238 80.222 170.385 80.2056H154.094L154.061 80.397C153.908 81.3099 153.908 84.1691 155.739 86.3612C157.133 88.0286 159.216 88.876 161.939 88.876C167.843 88.876 172.205 86.1262 174.255 81.1186C175.059 81.135 176.792 81.1241 177.683 79.402C177.705 79.3638 177.759 79.2599 177.913 78.9319L178 78.7515L177.503 78.4125C176.956 78.0572 175.715 77.9205 174.753 78.1064ZM167.121 72H164.645V74.2796H167.121V72ZM167.121 74.7389H164.645V77.0185H167.121V74.7389ZM164.191 74.7389H161.714V77.0185H164.191V74.7389ZM161.266 74.7389H158.79V77.0185H161.266V74.7389ZM158.336 77.4777H155.86V79.7574H158.336V77.4777ZM161.266 77.4777H158.79V79.7574H161.266V77.4777ZM164.191 77.4777H161.714V79.7574H164.191V77.4777ZM167.121 77.4777H164.645V79.7574H167.121V77.4777ZM170.051 77.4777H167.575V79.7574H170.051V77.4777Z" fill="#1D63ED"/>
</g>
<rect x="12.5" y="12.5" width="181" height="95" stroke="#4CC9F0"/>
<path d="M102.293 167.707C102.683 168.098 103.317 168.098 103.707 167.707L110.071 161.343C110.462 160.953 110.462 160.319 110.071 159.929C109.681 159.538 109.047 159.538 108.657 159.929L103 165.586L97.3431 159.929C96.9526 159.538 96.3195 159.538 95.9289 159.929C95.5384 160.319 95.5384 160.953 95.9289 161.343L102.293 167.707ZM103 110L102 110L102 112.375L103 112.375L104 112.375L104 110L103 110ZM103 117.125L102 117.125L102 121.875L103 121.875L104 121.875L104 117.125L103 117.125ZM103 126.625L102 126.625L102 131.375L103 131.375L104 131.375L104 126.625L103 126.625ZM103 136.125L102 136.125L102 140.875L103 140.875L104 140.875L104 136.125L103 136.125ZM103 145.625L102 145.625L102 150.375L103 150.375L104 150.375L104 145.625L103 145.625ZM103 155.125L102 155.125L102 159.875L103 159.875L104 159.875L104 155.125L103 155.125ZM103 164.625L102 164.625L102 167L103 167L104 167L104 164.625L103 164.625Z" fill="#4CC9F0"/>
<rect x="12.5" y="169.5" width="181" height="86" fill="#1D1D1D"/>
<rect x="12.5" y="169.5" width="181" height="86" stroke="#4CC9F0"/>
<path d="M80.0955 195.5L73.5744 199.258V205.342L68.2955 202.298H68.2925L62 205.924V225.874L68.2895 229.5H68.2925L75.0453 225.607V219.79L80.0955 222.699L86.6167 218.941V199.258L80.0955 195.5ZM63.4739 206.773L68.2895 204H68.2925L73.5714 207.04V217.242L63.4739 211.425V206.773ZM73.5714 224.758L68.2895 227.798L63.4739 225.025V213.124L73.5714 218.941V224.758ZM85.1428 218.089L80.0955 220.997L75.0483 218.092V207.89L85.1458 213.707V218.089H85.1428ZM85.1428 212.008L75.0453 206.191V200.107L80.0955 197.199L85.1428 200.107V212.008Z" fill="#FEFEFE"/>
<path d="M105.476 215.87V222.714H102.516V216.567C102.516 214.766 101.674 213.998 100.23 213.998C98.7139 213.998 97.631 214.886 97.631 217.287V222.714H94.6953V211.62H97.607V213.301H97.6551C98.401 212.029 99.6523 211.26 101.289 211.26C103.695 211.26 105.476 212.605 105.476 215.87Z" fill="#FEFEFE"/>
<path d="M107.391 218.416V211.621H110.423V217.888C110.423 219.616 111.241 220.361 112.516 220.361C113.984 220.361 114.971 219.4 114.971 216.951V211.621H117.93V222.714H115.019V221.009H114.971C114.297 222.21 113.238 223.074 111.505 223.074C109.243 223.074 107.391 221.705 107.391 218.416Z" fill="#FEFEFE"/>
<path d="M131.742 217.167C131.742 220.649 129.119 223.074 125.582 223.074C122.045 223.074 119.422 220.649 119.422 217.167C119.422 213.685 122.045 211.26 125.582 211.26C129.119 211.26 131.742 213.685 131.742 217.167ZM122.454 217.167C122.454 219.064 123.777 220.289 125.582 220.289C127.387 220.289 128.686 219.064 128.686 217.167C128.686 215.27 127.387 214.046 125.582 214.046C123.777 214.046 122.454 215.27 122.454 217.167Z" fill="#FEFEFE"/>
<path d="M143.999 215.87V222.714H141.039V216.567C141.039 214.766 140.197 213.998 138.753 213.998C137.237 213.998 136.154 214.886 136.154 217.287V222.714H133.219V211.62H136.13V213.301H136.179C136.924 212.029 138.176 211.26 139.812 211.26C142.218 211.26 143.999 212.605 143.999 215.87Z" fill="#FEFEFE"/>
<path d="M103.707 257.293C103.317 256.902 102.683 256.902 102.293 257.293L95.9289 263.657C95.5384 264.047 95.5384 264.681 95.9289 265.071C96.3195 265.462 96.9526 265.462 97.3431 265.071L103 259.414L108.657 265.071C109.047 265.462 109.681 265.462 110.071 265.071C110.462 264.681 110.462 264.047 110.071 263.657L103.707 257.293ZM103 314L104 314L104 311.667L103 311.667L102 311.667L102 314L103 314ZM103 307L104 307L104 302.333L103 302.333L102 302.333L102 307L103 307ZM103 297.667L104 297.667L104 293L103 293L102 293L102 297.667L103 297.667ZM103 288.333L104 288.333L104 283.667L103 283.667L102 283.667L102 288.333L103 288.333ZM103 279L104 279L104 274.333L103 274.333L102 274.333L102 279L103 279ZM103 269.667L104 269.667L104 265L103 265L102 265L102 269.667L103 269.667ZM103 260.333L104 260.333L104 258L103 258L102 258L102 260.333L103 260.333Z" fill="#4CC9F0"/>
<g clip-path="url(#clip6_751_3386)">
<rect x="12" y="316" width="182" height="146" fill="#1D1D1D"/>
<rect width="182" height="40" transform="translate(12 316)" fill="#256A7F"/>
<path d="M29.625 335.25C31.9032 335.25 33.75 333.403 33.75 331.125C33.75 328.847 31.9032 327 29.625 327C27.3468 327 25.5 328.847 25.5 331.125C25.5 333.403 27.3468 335.25 29.625 335.25Z" fill="#FEFEFE" stroke="#FEFEFE" stroke-width="2" stroke-linecap="round" stroke-linejoin="round"/>
<path d="M43.5 337.5L46.5 340.5L43.5 343.5" stroke="#FEFEFE" stroke-width="2" stroke-linecap="round" stroke-linejoin="round"/>
<path d="M31.5 331.5C39.75 331.5 35.25 340.5 43.5 340.5H46.5" stroke="#FEFEFE" stroke-width="2" stroke-linecap="round" stroke-linejoin="round"/>
<path d="M31.9219 331.125C31.922 331.181 31.9077 331.236 31.8804 331.284C31.8531 331.333 31.8137 331.373 31.766 331.402L28.8113 333.21C28.7614 333.24 28.7044 333.257 28.646 333.258C28.5876 333.259 28.5299 333.245 28.479 333.216C28.4286 333.188 28.3866 333.147 28.3573 333.097C28.3281 333.047 28.3126 332.99 28.3125 332.932V329.318C28.3126 329.26 28.3281 329.203 28.3573 329.153C28.3866 329.104 28.4286 329.063 28.479 329.034C28.5299 329.006 28.5876 328.991 28.646 328.992C28.7044 328.993 28.7614 329.01 28.8113 329.04L31.766 330.848C31.8137 330.877 31.8531 330.918 31.8804 330.966C31.9077 331.015 31.922 331.069 31.9219 331.125Z" fill="#256A7F"/>
<path d="M61.495 338.925H57.79L56.815 342H55.435L58.855 331.35H60.445L63.865 342H62.485L61.495 338.925ZM59.635 332.58C59.355 333.81 58.865 335.525 58.165 337.725H61.12C60.45 335.635 59.965 333.92 59.665 332.58H59.635ZM68.5068 342.255C67.2568 342.255 66.3118 341.805 65.6718 340.905C65.0318 339.995 64.7118 338.715 64.7118 337.065V336.285C64.7118 334.645 65.0468 333.37 65.7168 332.46C66.3968 331.55 67.3668 331.095 68.6268 331.095C70.8568 331.095 72.1068 332.345 72.3768 334.845L70.9818 335.07C70.9218 334.18 70.6918 333.495 70.2918 333.015C69.8918 332.535 69.3318 332.295 68.6118 332.295C67.7718 332.295 67.1518 332.615 66.7518 333.255C66.3518 333.885 66.1518 334.87 66.1518 336.21V336.975C66.1518 338.325 66.3568 339.345 66.7668 340.035C67.1868 340.715 67.8018 341.055 68.6118 341.055C69.3418 341.055 69.9018 340.815 70.2918 340.335C70.6918 339.855 70.9218 339.165 70.9818 338.265L72.3618 338.55C72.2418 339.67 71.8618 340.57 71.2218 341.25C70.5818 341.92 69.6768 342.255 68.5068 342.255ZM81.4885 331.35V332.55H78.1435V342H76.7335V332.55H73.3885V331.35H81.4885ZM87.0453 332.475V340.875H89.7153V342H82.9953V340.875H85.6503V332.475H82.9953V331.35H89.7153V332.475H87.0453ZM95.257 342.255C93.977 342.255 93.007 341.81 92.347 340.92C91.697 340.02 91.372 338.765 91.372 337.155V336.195C91.372 334.585 91.697 333.335 92.347 332.445C93.007 331.545 93.977 331.095 95.257 331.095C96.537 331.095 97.502 331.545 98.152 332.445C98.812 333.335 99.142 334.585 99.142 336.195V337.155C99.142 338.765 98.812 340.02 98.152 340.92C97.502 341.81 96.537 342.255 95.257 342.255ZM95.257 341.055C96.087 341.055 96.697 340.74 97.087 340.11C97.487 339.48 97.687 338.495 97.687 337.155V336.195C97.687 334.855 97.487 333.87 97.087 333.24C96.697 332.61 96.087 332.295 95.257 332.295C94.427 332.295 93.812 332.61 93.412 333.24C93.022 333.87 92.827 334.855 92.827 336.195V337.155C92.827 338.495 93.022 339.48 93.412 340.11C93.812 340.74 94.427 341.055 95.257 341.055ZM105.689 338.595C105.939 339.185 106.109 339.65 106.199 339.99H106.229C106.209 339.75 106.199 339.37 106.199 338.85V331.35H107.594V342H105.959L102.614 334.335C102.504 334.095 102.404 333.845 102.314 333.585C102.224 333.325 102.164 333.155 102.134 333.075H102.089C102.109 333.265 102.119 333.57 102.119 333.99V342H100.724V331.35H102.554L105.689 338.595ZM122.082 342.255C120.882 342.255 119.957 341.945 119.307 341.325C118.667 340.705 118.277 339.91 118.137 338.94L119.487 338.67C119.617 339.38 119.892 339.96 120.312 340.41C120.732 340.86 121.317 341.085 122.067 341.085C122.667 341.085 123.177 340.955 123.597 340.695C124.027 340.435 124.242 340 124.242 339.39C124.242 338.76 124.087 338.315 123.777 338.055C123.477 337.785 123.057 337.575 122.517 337.425L121.092 337.05C120.282 336.83 119.642 336.48 119.172 336C118.702 335.51 118.467 334.875 118.467 334.095C118.467 333.565 118.607 333.07 118.887 332.61C119.167 332.15 119.562 331.785 120.072 331.515C120.592 331.235 121.187 331.095 121.857 331.095C122.907 331.095 123.767 331.335 124.437 331.815C125.107 332.295 125.492 333.05 125.592 334.08L124.257 334.47C124.197 333.69 123.947 333.13 123.507 332.79C123.077 332.44 122.542 332.265 121.902 332.265C121.192 332.265 120.677 332.435 120.357 332.775C120.047 333.105 119.892 333.505 119.892 333.975C119.892 334.425 120.042 334.805 120.342 335.115C120.652 335.415 121.047 335.635 121.527 335.775L122.892 336.135C123.752 336.365 124.427 336.7 124.917 337.14C125.417 337.58 125.667 338.265 125.667 339.195C125.667 339.725 125.537 340.225 125.277 340.695C125.027 341.155 124.632 341.53 124.092 341.82C123.552 342.11 122.882 342.255 122.082 342.255ZM130.819 342.255C129.569 342.255 128.624 341.805 127.984 340.905C127.344 339.995 127.024 338.715 127.024 337.065V336.285C127.024 334.645 127.359 333.37 128.029 332.46C128.709 331.55 129.679 331.095 130.939 331.095C133.169 331.095 134.419 332.345 134.689 334.845L133.294 335.07C133.234 334.18 133.004 333.495 132.604 333.015C132.204 332.535 131.644 332.295 130.924 332.295C130.084 332.295 129.464 332.615 129.064 333.255C128.664 333.885 128.464 334.87 128.464 336.21V336.975C128.464 338.325 128.669 339.345 129.079 340.035C129.499 340.715 130.114 341.055 130.924 341.055C131.654 341.055 132.214 340.815 132.604 340.335C133.004 339.855 133.234 339.165 133.294 338.265L134.674 338.55C134.554 339.67 134.174 340.57 133.534 341.25C132.894 341.92 131.989 342.255 130.819 342.255ZM139.736 337.545H137.786V342H136.391V331.35H139.811C140.961 331.35 141.846 331.62 142.466 332.16C143.096 332.7 143.411 333.465 143.411 334.455C143.411 335.175 143.211 335.785 142.811 336.285C142.411 336.785 141.856 337.13 141.146 337.32L143.741 342H142.196L139.736 337.545ZM137.786 336.435H139.751C140.461 336.435 141.001 336.27 141.371 335.94C141.751 335.6 141.941 335.115 141.941 334.485C141.941 333.845 141.751 333.36 141.371 333.03C141.001 332.69 140.461 332.52 139.751 332.52H137.786V336.435ZM149.358 332.475V340.875H152.028V342H145.308V340.875H147.963V332.475H145.308V331.35H152.028V332.475H149.358ZM155.964 342H154.569V331.35H158.049C159.349 331.35 160.264 331.66 160.794 332.28C161.324 332.9 161.589 333.64 161.589 334.5C161.589 335.03 161.469 335.535 161.229 336.015C160.999 336.485 160.599 336.875 160.029 337.185C159.469 337.495 158.724 337.65 157.794 337.65H155.964V342ZM157.824 336.51C158.684 336.51 159.279 336.315 159.609 335.925C159.949 335.535 160.119 335.065 160.119 334.515C160.119 333.965 159.959 333.495 159.639 333.105C159.329 332.715 158.774 332.52 157.974 332.52H155.964V336.51H157.824ZM170.506 331.35V332.55H167.161V342H165.751V332.55H162.406V331.35H170.506ZM175.493 342.255C174.293 342.255 173.368 341.945 172.718 341.325C172.078 340.705 171.688 339.91 171.548 338.94L172.898 338.67C173.028 339.38 173.303 339.96 173.723 340.41C174.143 340.86 174.728 341.085 175.478 341.085C176.078 341.085 176.588 340.955 177.008 340.695C177.438 340.435 177.653 340 177.653 339.39C177.653 338.76 177.498 338.315 177.188 338.055C176.888 337.785 176.468 337.575 175.928 337.425L174.503 337.05C173.693 336.83 173.053 336.48 172.583 336C172.113 335.51 171.878 334.875 171.878 334.095C171.878 333.565 172.018 333.07 172.298 332.61C172.578 332.15 172.973 331.785 173.483 331.515C174.003 331.235 174.598 331.095 175.268 331.095C176.318 331.095 177.178 331.335 177.848 331.815C178.518 332.295 178.903 333.05 179.003 334.08L177.668 334.47C177.608 333.69 177.358 333.13 176.918 332.79C176.488 332.44 175.953 332.265 175.313 332.265C174.603 332.265 174.088 332.435 173.768 332.775C173.458 333.105 173.303 333.505 173.303 333.975C173.303 334.425 173.453 334.805 173.753 335.115C174.063 335.415 174.458 335.635 174.938 335.775L176.303 336.135C177.163 336.365 177.838 336.7 178.328 337.14C178.828 337.58 179.078 338.265 179.078 339.195C179.078 339.725 178.948 340.225 178.688 340.695C178.438 341.155 178.043 341.53 177.503 341.82C176.963 342.11 176.293 342.255 175.493 342.255Z" fill="white"/>
<rect x="12.5" y="356.5" width="164" height="105" stroke="#1D1D1D" stroke-dasharray="4 4"/>
<rect x="24.5" y="368.5" width="140" height="15" stroke="#1D1D1D" stroke-dasharray="4 4"/>
<path d="M24.936 380V371.84H27.6C30.132 371.84 31.716 373.376 31.716 375.932C31.716 378.488 30.132 380 27.6 380H24.936ZM27.6 379.1C29.472 379.1 30.588 377.924 30.588 375.932C30.588 373.916 29.472 372.74 27.6 372.74H26.04V379.1H27.6ZM33.3032 380V371.84H36.1712C37.8512 371.84 38.9312 372.68 38.9312 374.012C38.9312 374.792 38.5112 375.416 37.7312 375.716C38.7992 375.992 39.3752 376.736 39.3752 377.708C39.3752 379.16 38.3192 380 36.5792 380H33.3032ZM36.1472 372.728H34.4072V375.38H36.1232C37.1792 375.38 37.7912 374.852 37.7912 374.072C37.7912 373.244 37.1672 372.728 36.1472 372.728ZM36.3872 376.268H34.4072V379.112H36.5552C37.5992 379.112 38.2472 378.548 38.2472 377.684C38.2472 376.82 37.5392 376.268 36.3872 376.268ZM39.665 380.948V380.144H44.153V380.948H39.665ZM45.4555 380V371.84H46.9795L49.4875 377.828L49.7275 378.56L49.9795 377.828L52.4755 371.84H53.9515V380H52.8475V373.172L52.2715 374.78L50.0875 380H49.3075L47.1235 374.768L46.5595 373.208V380H45.4555ZM55.7306 372.776V371.36H56.7866V372.776H55.7306ZM55.7306 380V373.628H56.7866V380H55.7306ZM60.7291 380.048C59.1091 380.048 58.1371 378.812 58.1371 376.772C58.1371 374.636 59.1331 373.472 60.7291 373.472C61.5811 373.472 62.2171 373.772 62.6371 374.324V373.628H63.6931V380.192C63.6931 381.968 62.5531 382.796 61.0891 382.796C59.5891 382.796 58.5331 382.076 58.3051 380.624H59.3611C59.4931 381.464 60.1531 381.92 61.0771 381.92C62.0131 381.92 62.6371 381.416 62.6371 380.228V379.136C62.1931 379.736 61.5451 380.048 60.7291 380.048ZM60.9211 379.136C62.0371 379.136 62.6371 378.296 62.6371 376.76C62.6371 375.26 62.0131 374.384 60.9211 374.384C59.8171 374.384 59.2171 375.224 59.2171 376.772C59.2171 378.272 59.8291 379.136 60.9211 379.136ZM65.3869 380V373.628H66.4429V374.612C66.8749 373.832 67.5589 373.472 68.3269 373.472C68.5789 373.472 68.8069 373.532 68.9269 373.628V374.576C68.7469 374.516 68.5189 374.492 68.2669 374.492C66.9949 374.492 66.4429 375.284 66.4429 376.436V380H65.3869ZM70.7183 375.704H69.6623C69.8663 374.3 70.7903 373.472 72.3503 373.472C74.0543 373.472 74.8823 374.468 74.8823 375.956V378.464C74.8823 379.196 74.9423 379.652 75.1103 380H73.9943C73.8743 379.748 73.8383 379.376 73.8263 378.992C73.2863 379.796 72.4223 380.144 71.6543 380.144C70.3343 380.144 69.4463 379.532 69.4463 378.32C69.4463 377.444 69.9263 376.808 70.8623 376.496C71.7263 376.208 72.6023 376.136 73.8263 376.124V375.98C73.8263 374.948 73.3463 374.384 72.2543 374.384C71.3423 374.384 70.8503 374.888 70.7183 375.704ZM70.5263 378.296C70.5263 378.884 71.0183 379.232 71.7623 379.232C72.9383 379.232 73.8263 378.308 73.8263 377.216V376.916C71.1143 376.94 70.5263 377.516 70.5263 378.296ZM76.7574 378.164V374.468H75.8694V373.628H76.7574V372.164H77.8134V373.628H79.2174V374.468H77.8134V378.164C77.8134 378.932 78.0414 379.292 78.9774 379.292H79.1934V380.048C79.0734 380.108 78.8094 380.144 78.5094 380.144C77.3214 380.144 76.7574 379.508 76.7574 378.164ZM80.2228 372.776V371.36H81.2788V372.776H80.2228ZM80.2228 380V373.628H81.2788V380H80.2228ZM85.5453 380.144C83.7213 380.144 82.6293 378.896 82.6293 376.82C82.6293 374.66 83.7573 373.472 85.5453 373.472C87.3693 373.472 88.4613 374.744 88.4613 376.82C88.4613 378.968 87.3333 380.144 85.5453 380.144ZM85.5453 379.232C86.7333 379.232 87.3813 378.38 87.3813 376.82C87.3813 375.272 86.7213 374.384 85.5453 374.384C84.3573 374.384 83.7093 375.248 83.7093 376.82C83.7093 378.356 84.3693 379.232 85.5453 379.232ZM89.8205 380V373.628H90.8765V374.492C91.3085 373.82 92.0045 373.472 92.8445 373.472C94.2005 373.472 95.0045 374.264 95.0045 375.74V380H93.9485V375.956C93.9485 374.996 93.5165 374.372 92.5565 374.372C91.5005 374.372 90.8765 375.32 90.8765 376.232V380H89.8205ZM100.026 373.832C100.026 376.136 105.03 374.348 105.03 377.696C105.03 379.268 103.758 380.144 102.018 380.144C100.266 380.144 99.066 379.34 98.706 377.696H99.858C100.122 378.668 100.854 379.196 102.03 379.196C103.254 379.196 103.902 378.656 103.902 377.84C103.902 375.344 98.898 377.204 98.898 373.904C98.898 372.728 99.882 371.696 101.682 371.696C103.254 371.696 104.514 372.452 104.814 374.192H103.65C103.398 373.112 102.702 372.644 101.658 372.644C100.626 372.644 100.026 373.112 100.026 373.832ZM111.588 375.824H110.532C110.364 374.852 109.716 374.384 108.876 374.384C107.7 374.384 107.076 375.248 107.076 376.82C107.076 378.368 107.736 379.244 108.912 379.244C109.764 379.244 110.376 378.788 110.58 377.876H111.636C111.348 379.46 110.28 380.144 108.888 380.144C107.076 380.144 105.996 378.884 105.996 376.82C105.996 374.66 107.1 373.472 108.876 373.472C110.28 373.472 111.384 374.264 111.588 375.824ZM112.942 380V373.628H113.998V374.612C114.43 373.832 115.114 373.472 115.882 373.472C116.134 373.472 116.362 373.532 116.482 373.628V374.576C116.302 374.516 116.074 374.492 115.822 374.492C114.55 374.492 113.998 375.284 113.998 376.436V380H112.942ZM117.418 372.776V371.36H118.474V372.776H117.418ZM117.418 380V373.628H118.474V380H117.418ZM121.217 382.64H120.161V373.628H121.217V374.42C121.637 373.82 122.249 373.472 123.005 373.472C124.697 373.472 125.717 374.72 125.717 376.796C125.717 378.956 124.673 380.144 123.005 380.144C122.249 380.144 121.637 379.832 121.217 379.244V382.64ZM122.933 374.384C121.817 374.384 121.217 375.236 121.217 376.796C121.217 378.344 121.841 379.232 122.933 379.232C124.037 379.232 124.637 378.368 124.637 376.796C124.637 375.26 124.013 374.384 122.933 374.384ZM127.218 378.164V374.468H126.33V373.628H127.218V372.164H128.274V373.628H129.678V374.468H128.274V378.164C128.274 378.932 128.502 379.292 129.438 379.292H129.654V380.048C129.534 380.108 129.27 380.144 128.97 380.144C127.782 380.144 127.218 379.508 127.218 378.164Z" fill="white"/>
<rect x="24.5" y="390.5" width="140" height="15" stroke="#1D1D1D" stroke-dasharray="4 4"/>
<path d="M24.936 402V393.84H26.04V397.344H30.312V393.84H31.416V402H30.312V398.244H26.04V402H24.936ZM38.7035 399.924C38.3555 401.412 37.2875 402.144 35.8355 402.144C33.9875 402.144 32.8715 400.896 32.8715 398.82C32.8715 396.66 33.9875 395.472 35.7755 395.472C37.5755 395.472 38.6555 396.708 38.6555 398.736V399H33.9515C34.0115 400.428 34.6835 401.232 35.8355 401.232C36.7355 401.232 37.3715 400.8 37.5995 399.924H38.7035ZM35.7755 396.384C34.7555 396.384 34.1435 397.02 33.9875 398.208H37.5515C37.4075 397.032 36.7715 396.384 35.7755 396.384ZM41.0347 397.704H39.9787C40.1827 396.3 41.1067 395.472 42.6667 395.472C44.3707 395.472 45.1987 396.468 45.1987 397.956V400.464C45.1987 401.196 45.2587 401.652 45.4267 402H44.3107C44.1907 401.748 44.1547 401.376 44.1427 400.992C43.6027 401.796 42.7387 402.144 41.9707 402.144C40.6507 402.144 39.7627 401.532 39.7627 400.32C39.7627 399.444 40.2427 398.808 41.1787 398.496C42.0427 398.208 42.9187 398.136 44.1427 398.124V397.98C44.1427 396.948 43.6627 396.384 42.5707 396.384C41.6587 396.384 41.1667 396.888 41.0347 397.704ZM40.8427 400.296C40.8427 400.884 41.3347 401.232 42.0787 401.232C43.2547 401.232 44.1427 400.308 44.1427 399.216V398.916C41.4307 398.94 40.8427 399.516 40.8427 400.296ZM46.9298 402V393.36H47.9858V402H46.9298ZM49.8043 400.164V396.468H48.9163V395.628H49.8043V394.164H50.8603V395.628H52.2643V396.468H50.8603V400.164C50.8603 400.932 51.0883 401.292 52.0243 401.292H52.2403V402.048C52.1203 402.108 51.8563 402.144 51.5563 402.144C50.3683 402.144 49.8043 401.508 49.8043 400.164ZM53.2697 402V393.36H54.3257V396.492C54.7577 395.82 55.4537 395.472 56.2937 395.472C57.6497 395.472 58.4537 396.264 58.4537 397.74V402H57.3977V397.956C57.3977 396.996 56.9657 396.372 56.0057 396.372C54.9497 396.372 54.3257 397.32 54.3257 398.232V402H53.2697ZM69.3552 396.192H68.2032C67.9032 395.196 67.0512 394.644 66.0072 394.644C64.4112 394.644 63.4632 395.892 63.4632 397.932C63.4632 399.972 64.3992 401.196 66.0072 401.196C67.0152 401.196 67.8312 400.68 68.1792 399.696H69.3432C68.8872 401.244 67.5552 402.144 65.9952 402.144C63.7152 402.144 62.3352 400.548 62.3352 397.932C62.3352 395.328 63.7392 393.696 66.0432 393.696C67.6152 393.696 68.9592 394.56 69.3552 396.192ZM70.7072 402V393.36H71.7632V396.492C72.1952 395.82 72.8912 395.472 73.7312 395.472C75.0872 395.472 75.8912 396.264 75.8912 397.74V402H74.8352V397.956C74.8352 396.996 74.4032 396.372 73.4432 396.372C72.3872 396.372 71.7632 397.32 71.7632 398.232V402H70.7072ZM83.0824 399.924C82.7344 401.412 81.6664 402.144 80.2144 402.144C78.3664 402.144 77.2504 400.896 77.2504 398.82C77.2504 396.66 78.3664 395.472 80.1544 395.472C81.9544 395.472 83.0344 396.708 83.0344 398.736V399H78.3304C78.3904 400.428 79.0624 401.232 80.2144 401.232C81.1144 401.232 81.7504 400.8 81.9784 399.924H83.0824ZM80.1544 396.384C79.1344 396.384 78.5224 397.02 78.3664 398.208H81.9304C81.7864 397.032 81.1504 396.384 80.1544 396.384ZM89.7096 397.824H88.6536C88.4856 396.852 87.8376 396.384 86.9976 396.384C85.8216 396.384 85.1976 397.248 85.1976 398.82C85.1976 400.368 85.8576 401.244 87.0336 401.244C87.8856 401.244 88.4976 400.788 88.7016 399.876H89.7576C89.4696 401.46 88.4016 402.144 87.0096 402.144C85.1976 402.144 84.1176 400.884 84.1176 398.82C84.1176 396.66 85.2216 395.472 86.9976 395.472C88.4016 395.472 89.5056 396.264 89.7096 397.824ZM91.0627 402V393.36H92.1187V398.364L94.8667 395.628H96.1627L93.2587 398.472L96.3307 402H94.9867L92.1187 398.748V402H91.0627ZM97.7723 397.26C97.7723 399.036 101.912 397.572 101.912 400.2C101.912 401.388 100.856 402.144 99.3563 402.144C97.8443 402.144 96.7883 401.424 96.5483 399.924H97.6043C97.7483 400.812 98.4083 401.304 99.3923 401.304C100.352 401.304 100.856 400.872 100.856 400.272C100.856 398.532 96.7643 399.972 96.7643 397.332C96.7643 396.36 97.5203 395.472 99.0803 395.472C100.46 395.472 101.48 396.12 101.684 397.704H100.628C100.472 396.708 99.9203 396.336 99.0203 396.336C98.2283 396.336 97.7723 396.732 97.7723 397.26Z" fill="white"/>
<rect x="24.5" y="412.5" width="140" height="15" stroke="#1D1D1D" stroke-dasharray="4 4"/>
<path d="M24.936 424V415.84H26.04V424H24.936ZM27.8166 424V417.628H28.8726V418.492C29.3046 417.82 30.0006 417.472 30.8406 417.472C32.1966 417.472 33.0006 418.264 33.0006 419.74V424H31.9446V419.956C31.9446 418.996 31.5126 418.372 30.5526 418.372C29.4966 418.372 28.8726 419.32 28.8726 420.232V424H27.8166ZM34.6838 416.776V415.36H35.7398V416.776H34.6838ZM34.6838 424V417.628H35.7398V424H34.6838ZM37.5582 422.164V418.468H36.6702V417.628H37.5582V416.164H38.6142V417.628H40.0182V418.468H38.6142V422.164C38.6142 422.932 38.8422 423.292 39.7782 423.292H39.9942V424.048C39.8742 424.108 39.6102 424.144 39.3102 424.144C38.1222 424.144 37.5582 423.508 37.5582 422.164ZM44.3619 417.832C44.3619 420.136 49.3659 418.348 49.3659 421.696C49.3659 423.268 48.0939 424.144 46.3539 424.144C44.6019 424.144 43.4019 423.34 43.0419 421.696H44.1939C44.4579 422.668 45.1899 423.196 46.3659 423.196C47.5899 423.196 48.2379 422.656 48.2379 421.84C48.2379 419.344 43.2339 421.204 43.2339 417.904C43.2339 416.728 44.2179 415.696 46.0179 415.696C47.5899 415.696 48.8499 416.452 49.1499 418.192H47.9859C47.7339 417.112 47.0379 416.644 45.9939 416.644C44.9619 416.644 44.3619 417.112 44.3619 417.832ZM55.9244 419.824H54.8684C54.7004 418.852 54.0524 418.384 53.2124 418.384C52.0364 418.384 51.4124 419.248 51.4124 420.82C51.4124 422.368 52.0724 423.244 53.2484 423.244C54.1004 423.244 54.7124 422.788 54.9164 421.876H55.9724C55.6844 423.46 54.6164 424.144 53.2244 424.144C51.4124 424.144 50.3324 422.884 50.3324 420.82C50.3324 418.66 51.4364 417.472 53.2124 417.472C54.6164 417.472 55.7204 418.264 55.9244 419.824ZM57.2775 424V417.628H58.3335V418.612C58.7655 417.832 59.4495 417.472 60.2175 417.472C60.4695 417.472 60.6975 417.532 60.8175 417.628V418.576C60.6375 418.516 60.4095 418.492 60.1575 418.492C58.8855 418.492 58.3335 419.284 58.3335 420.436V424H57.2775ZM61.7541 416.776V415.36H62.8101V416.776H61.7541ZM61.7541 424V417.628H62.8101V424H61.7541ZM65.5525 426.64H64.4965V417.628H65.5525V418.42C65.9725 417.82 66.5845 417.472 67.3405 417.472C69.0325 417.472 70.0525 418.72 70.0525 420.796C70.0525 422.956 69.0085 424.144 67.3405 424.144C66.5845 424.144 65.9725 423.832 65.5525 423.244V426.64ZM67.2685 418.384C66.1525 418.384 65.5525 419.236 65.5525 420.796C65.5525 422.344 66.1765 423.232 67.2685 423.232C68.3725 423.232 68.9725 422.368 68.9725 420.796C68.9725 419.26 68.3485 418.384 67.2685 418.384ZM71.5543 422.164V418.468H70.6663V417.628H71.5543V416.164H72.6103V417.628H74.0143V418.468H72.6103V422.164C72.6103 422.932 72.8383 423.292 73.7743 423.292H73.9903V424.048C73.8703 424.108 73.6063 424.144 73.3063 424.144C72.1183 424.144 71.5543 423.508 71.5543 422.164ZM75.7997 419.26C75.7997 421.036 79.9397 419.572 79.9397 422.2C79.9397 423.388 78.8837 424.144 77.3837 424.144C75.8717 424.144 74.8157 423.424 74.5757 421.924H75.6317C75.7757 422.812 76.4357 423.304 77.4197 423.304C78.3797 423.304 78.8837 422.872 78.8837 422.272C78.8837 420.532 74.7917 421.972 74.7917 419.332C74.7917 418.36 75.5477 417.472 77.1077 417.472C78.4877 417.472 79.5077 418.12 79.7117 419.704H78.6557C78.4997 418.708 77.9477 418.336 77.0477 418.336C76.2557 418.336 75.7997 418.732 75.7997 419.26Z" fill="white"/>
<rect x="24.5" y="434.5" width="140" height="15" stroke="#1D1D1D" stroke-dasharray="4 4"/>
<path d="M24.936 446V437.84H27.876C29.592 437.84 30.684 438.728 30.684 440.144C30.684 441.08 30.228 441.74 29.46 442.088C29.988 442.328 30.264 442.772 30.468 443.576L31.08 446H29.916L29.4 443.792C29.16 442.772 28.752 442.58 27.768 442.58H26.04V446H24.936ZM27.852 438.74H26.04V441.68H27.828C28.908 441.68 29.544 441.104 29.544 440.204C29.544 439.304 28.908 438.74 27.852 438.74ZM37.8128 443.924C37.4648 445.412 36.3968 446.144 34.9448 446.144C33.0968 446.144 31.9808 444.896 31.9808 442.82C31.9808 440.66 33.0968 439.472 34.8848 439.472C36.6848 439.472 37.7648 440.708 37.7648 442.736V443H33.0608C33.1208 444.428 33.7928 445.232 34.9448 445.232C35.8448 445.232 36.4808 444.8 36.7088 443.924H37.8128ZM34.8848 440.384C33.8648 440.384 33.2528 441.02 33.0968 442.208H36.6608C36.5168 441.032 35.8808 440.384 34.8848 440.384ZM40.144 441.704H39.088C39.292 440.3 40.216 439.472 41.776 439.472C43.48 439.472 44.308 440.468 44.308 441.956V444.464C44.308 445.196 44.368 445.652 44.536 446H43.42C43.3 445.748 43.264 445.376 43.252 444.992C42.712 445.796 41.848 446.144 41.08 446.144C39.76 446.144 38.872 445.532 38.872 444.32C38.872 443.444 39.352 442.808 40.288 442.496C41.152 442.208 42.028 442.136 43.252 442.124V441.98C43.252 440.948 42.772 440.384 41.68 440.384C40.768 440.384 40.276 440.888 40.144 441.704ZM39.952 444.296C39.952 444.884 40.444 445.232 41.188 445.232C42.364 445.232 43.252 444.308 43.252 443.216V442.916C40.54 442.94 39.952 443.516 39.952 444.296ZM48.4272 446.144C46.7352 446.144 45.7152 444.896 45.7152 442.82C45.7152 440.66 46.7592 439.472 48.4272 439.472C49.1832 439.472 49.7952 439.784 50.2152 440.372V437.36H51.2712V446H50.2152V445.196C49.7952 445.796 49.1832 446.144 48.4272 446.144ZM48.4992 445.232C49.6152 445.232 50.2152 444.38 50.2152 442.82C50.2152 441.272 49.5912 440.384 48.4992 440.384C47.3952 440.384 46.7952 441.248 46.7952 442.82C46.7952 444.356 47.4192 445.232 48.4992 445.232ZM52.9533 438.776V437.36H54.0093V438.776H52.9533ZM52.9533 446V439.628H54.0093V446H52.9533ZM55.6838 446V439.628H56.7398V440.492C57.1718 439.82 57.8678 439.472 58.7078 439.472C60.0638 439.472 60.8678 440.264 60.8678 441.74V446H59.8118V441.956C59.8118 440.996 59.3798 440.372 58.4198 440.372C57.3638 440.372 56.7398 441.32 56.7398 442.232V446H55.6838ZM68.0589 443.924C67.7109 445.412 66.6429 446.144 65.1909 446.144C63.3429 446.144 62.2269 444.896 62.2269 442.82C62.2269 440.66 63.3429 439.472 65.1309 439.472C66.9309 439.472 68.0109 440.708 68.0109 442.736V443H63.3069C63.3669 444.428 64.0389 445.232 65.1909 445.232C66.0909 445.232 66.7269 444.8 66.9549 443.924H68.0589ZM65.1309 440.384C64.1109 440.384 63.4989 441.02 63.3429 442.208H66.9069C66.7629 441.032 66.1269 440.384 65.1309 440.384ZM70.1981 441.26C70.1981 443.036 74.3381 441.572 74.3381 444.2C74.3381 445.388 73.2821 446.144 71.7821 446.144C70.2701 446.144 69.2141 445.424 68.9741 443.924H70.0301C70.1741 444.812 70.8341 445.304 71.8181 445.304C72.7781 445.304 73.2821 444.872 73.2821 444.272C73.2821 442.532 69.1901 443.972 69.1901 441.332C69.1901 440.36 69.9461 439.472 71.5061 439.472C72.8861 439.472 73.9061 440.12 74.1101 441.704H73.0541C72.8981 440.708 72.3461 440.336 71.4461 440.336C70.6541 440.336 70.1981 440.732 70.1981 441.26ZM76.3739 441.26C76.3739 443.036 80.5139 441.572 80.5139 444.2C80.5139 445.388 79.4579 446.144 77.9579 446.144C76.4459 446.144 75.3899 445.424 75.1499 443.924H76.2059C76.3499 444.812 77.0099 445.304 77.9939 445.304C78.9539 445.304 79.4579 444.872 79.4579 444.272C79.4579 442.532 75.3659 443.972 75.3659 441.332C75.3659 440.36 76.1219 439.472 77.6819 439.472C79.0619 439.472 80.0819 440.12 80.2859 441.704H79.2299C79.0739 440.708 78.5219 440.336 77.6219 440.336C76.8299 440.336 76.3739 440.732 76.3739 441.26ZM90.988 440.192H89.836C89.536 439.196 88.684 438.644 87.64 438.644C86.044 438.644 85.096 439.892 85.096 441.932C85.096 443.972 86.032 445.196 87.64 445.196C88.648 445.196 89.464 444.68 89.812 443.696H90.976C90.52 445.244 89.188 446.144 87.628 446.144C85.348 446.144 83.968 444.548 83.968 441.932C83.968 439.328 85.372 437.696 87.676 437.696C89.248 437.696 90.592 438.56 90.988 440.192ZM92.34 446V437.36H93.396V440.492C93.828 439.82 94.524 439.472 95.364 439.472C96.72 439.472 97.524 440.264 97.524 441.74V446H96.468V441.956C96.468 440.996 96.036 440.372 95.076 440.372C94.02 440.372 93.396 441.32 93.396 442.232V446H92.34ZM104.715 443.924C104.367 445.412 103.299 446.144 101.847 446.144C99.9992 446.144 98.8832 444.896 98.8832 442.82C98.8832 440.66 99.9992 439.472 101.787 439.472C103.587 439.472 104.667 440.708 104.667 442.736V443H99.9632C100.023 444.428 100.695 445.232 101.847 445.232C102.747 445.232 103.383 444.8 103.611 443.924H104.715ZM101.787 440.384C100.767 440.384 100.155 441.02 99.9992 442.208H103.563C103.419 441.032 102.783 440.384 101.787 440.384ZM111.342 441.824H110.286C110.118 440.852 109.47 440.384 108.63 440.384C107.454 440.384 106.83 441.248 106.83 442.82C106.83 444.368 107.49 445.244 108.666 445.244C109.518 445.244 110.13 444.788 110.334 443.876H111.39C111.102 445.46 110.034 446.144 108.642 446.144C106.83 446.144 105.75 444.884 105.75 442.82C105.75 440.66 106.854 439.472 108.63 439.472C110.034 439.472 111.138 440.264 111.342 441.824ZM112.695 446V437.36H113.751V442.364L116.499 439.628H117.795L114.891 442.472L117.963 446H116.619L113.751 442.748V446H112.695Z" fill="white"/>
</g>
<rect x="12.5" y="316.5" width="181" height="145" stroke="#4CC9F0"/>
<path d="M276.707 186.707C277.098 186.317 277.098 185.683 276.707 185.293L270.343 178.929C269.953 178.538 269.319 178.538 268.929 178.929C268.538 179.319 268.538 179.953 268.929 180.343L274.586 186L268.929 191.657C268.538 192.047 268.538 192.681 268.929 193.071C269.319 193.462 269.953 193.462 270.343 193.071L276.707 186.707ZM194 186V187H196.562V186V185H194V186ZM201.688 186V187H206.812V186V185H201.688V186ZM211.938 186V187H217.062V186V185H211.938V186ZM222.188 186V187H227.312V186V185H222.188V186ZM232.438 186V187H237.562V186V185H232.438V186ZM242.688 186V187H247.812V186V185H242.688V186ZM252.938 186V187H258.062V186V185H252.938V186ZM263.188 186V187H268.312V186V185H263.188V186ZM273.438 186V187H276V186V185H273.438V186Z" fill="#4CC9F0"/>
<path d="M278.707 300.707C279.098 300.317 279.098 299.683 278.707 299.293L272.343 292.929C271.953 292.538 271.319 292.538 270.929 292.929C270.538 293.319 270.538 293.953 270.929 294.343L276.586 300L270.929 305.657C270.538 306.047 270.538 306.681 270.929 307.071C271.319 307.462 271.953 307.462 272.343 307.071L278.707 300.707ZM235.246 186H236.246V185H235.246V186ZM235.246 300H234.246V301H235.246V300ZM278 300V299H275.328V300V301H278V300ZM269.984 300V299H264.639V300V301H269.984V300ZM259.295 300V299H253.951V300V301H259.295V300ZM248.606 300V299H243.262V300V301H248.606V300ZM237.918 300V299H235.246V300V301H237.918V300ZM235.246 300H236.246V297.409H235.246H234.246V300H235.246ZM235.246 292.227H236.246V287.045H235.246H234.246V292.227H235.246ZM235.246 281.864H236.246V276.682H235.246H234.246V281.864H235.246ZM235.246 271.5H236.246V266.318H235.246H234.246V271.5H235.246ZM235.246 261.136H236.246V255.955H235.246H234.246V261.136H235.246ZM235.246 250.773H236.246V245.591H235.246H234.246V250.773H235.246ZM235.246 240.409H236.246V235.227H235.246H234.246V240.409H235.246ZM235.246 230.045H236.246V224.864H235.246H234.246V230.045H235.246ZM235.246 219.682H236.246V214.5H235.246H234.246V219.682H235.246ZM235.246 209.318H236.246V204.136H235.246H234.246V209.318H235.246ZM235.246 198.955H236.246V193.773H235.246H234.246V198.955H235.246ZM235.246 188.591H236.246V186H235.246H234.246V188.591H235.246ZM235.246 186V185H232.668V186V187H235.246V186ZM227.512 186V185H222.356V186V187H227.512V186ZM217.201 186V185H212.045V186V187H217.201V186ZM206.889 186V185H201.734V186V187H206.889V186ZM196.578 186V185H194V186V187H196.578V186Z" fill="#4CC9F0"/>
<path d="M278.707 409.707C279.098 409.317 279.098 408.683 278.707 408.293L272.343 401.929C271.953 401.538 271.319 401.538 270.929 401.929C270.538 402.319 270.538 402.953 270.929 403.343L276.586 409L270.929 414.657C270.538 415.047 270.538 415.681 270.929 416.071C271.319 416.462 271.953 416.462 272.343 416.071L278.707 409.707ZM235.246 186H236.246V185H235.246V186ZM235.246 409H234.246V410H235.246V409ZM278 409V408H275.328V409V410H278V409ZM269.984 409V408H264.639V409V410H269.984V409ZM259.295 409V408H253.951V409V410H259.295V409ZM248.606 409V408H243.262V409V410H248.606V409ZM237.918 409V408H235.246V409V410H237.918V409ZM235.246 409H236.246V406.466H235.246H234.246V409H235.246ZM235.246 401.398H236.246V396.33H235.246H234.246V401.398H235.246ZM235.246 391.261H236.246V386.193H235.246H234.246V391.261H235.246ZM235.246 381.125H236.246V376.057H235.246H234.246V381.125H235.246ZM235.246 370.989H236.246V365.92H235.246H234.246V370.989H235.246ZM235.246 360.852H236.246V355.784H235.246H234.246V360.852H235.246ZM235.246 350.716H236.246V345.648H235.246H234.246V350.716H235.246ZM235.246 340.58H236.246V335.511H235.246H234.246V340.58H235.246ZM235.246 330.443H236.246V325.375H235.246H234.246V330.443H235.246ZM235.246 320.307H236.246V315.239H235.246H234.246V320.307H235.246ZM235.246 310.17H236.246V305.102H235.246H234.246V310.17H235.246ZM235.246 300.034H236.246V294.966H235.246H234.246V300.034H235.246ZM235.246 289.898H236.246V284.83H235.246H234.246V289.898H235.246ZM235.246 279.761H236.246V274.693H235.246H234.246V279.761H235.246ZM235.246 269.625H236.246V264.557H235.246H234.246V269.625H235.246ZM235.246 259.489H236.246V254.42H235.246H234.246V259.489H235.246ZM235.246 249.352H236.246V244.284H235.246H234.246V249.352H235.246ZM235.246 239.216H236.246V234.148H235.246H234.246V239.216H235.246ZM235.246 229.08H236.246V224.011H235.246H234.246V229.08H235.246ZM235.246 218.943H236.246V213.875H235.246H234.246V218.943H235.246ZM235.246 208.807H236.246V203.739H235.246H234.246V208.807H235.246ZM235.246 198.671H236.246V193.602H235.246H234.246V198.671H235.246ZM235.246 188.534H236.246V186H235.246H234.246V188.534H235.246ZM235.246 186V185H232.668V186V187H235.246V186ZM227.512 186V185H222.356V186V187H227.512V186ZM217.201 186V185H212.045V186V187H217.201V186ZM206.889 186V185H201.734V186V187H206.889V186ZM196.578 186V185H194V186V187H196.578V186Z" fill="#4CC9F0"/>
<defs>
<clipPath id="clip0_751_3386">
<rect x="284" y="167" width="199" height="87" fill="white"/>
</clipPath>
<clipPath id="clip1_751_3386">
<rect x="284" y="281" width="199" height="87" fill="white"/>
</clipPath>
<clipPath id="clip2_751_3386">
<rect x="284" y="391" width="199" height="87" fill="white"/>
</clipPath>
<clipPath id="clip3_751_3386">
<rect x="12" y="12" width="182" height="96" fill="white"/>
</clipPath>
<clipPath id="clip4_751_3386">
<rect width="27.7151" height="32" fill="white" transform="translate(26 64)"/>
</clipPath>
<clipPath id="clip5_751_3386">
<rect width="32" height="32" fill="white" transform="translate(108 64)"/>
</clipPath>
<clipPath id="clip6_751_3386">
<rect x="12" y="316" width="182" height="146" fill="white"/>
</clipPath>
</defs>
</svg>
